<svg width="242" height="94" viewBox="0 0 242 94" fill="none" xmlns="http://www.w3.org/2000/svg">
<g filter="url(#filter0_dd_1_3274)">
<rect x="20.2506" y="0.0402832" width="200.88" height="53.8406" rx="8" fill="#33895E"/>
<g clip-path="url(#clip0_1_3274)">
<path d="M34.9146 17.9607C32.1536 17.9607 29.9146 20.1767 29.9146 22.9107C29.9146 25.1177 30.7896 30.3557 39.4026 35.6507C39.5569 35.7446 39.734 35.7942 39.9146 35.7942C40.0952 35.7942 40.2723 35.7446 40.4266 35.6507C49.0396 30.3557 49.9146 25.1177 49.9146 22.9107C49.9146 20.1767 47.6756 17.9607 44.9146 17.9607C42.1536 17.9607 39.9146 20.9607 39.9146 20.9607C39.9146 20.9607 37.6756 17.9607 34.9146 17.9607Z" fill="#66A686" fill-opacity="0.3" stroke="white" stroke-width="2" stroke-linecap="round" stroke-linejoin="round"/>
</g>
<path d="M63.2094 23.9607V15.2334H68.6213V16.3669H64.5261V19.026H68.2335V20.1553H64.5261V23.9607H63.2094ZM70.0563 23.9607V17.4152H71.2878V18.455H71.356C71.4753 18.1027 71.6856 17.8257 71.9867 17.624C72.2907 17.4195 72.6344 17.3172 73.0179 17.3172C73.0975 17.3172 73.1912 17.3201 73.2992 17.3258C73.41 17.3314 73.4966 17.3385 73.5591 17.3471V18.5658C73.508 18.5516 73.4171 18.536 73.2864 18.5189C73.1557 18.499 73.0251 18.4891 72.8944 18.4891C72.5932 18.4891 72.3248 18.553 72.089 18.6809C71.856 18.8059 71.6714 18.9806 71.535 19.205C71.3986 19.4266 71.3304 19.6794 71.3304 19.9635V23.9607H70.0563ZM77.2484 24.0928C76.6035 24.0928 76.0481 23.955 75.5822 23.6794C75.1192 23.401 74.7612 23.0104 74.5084 22.5076C74.2584 22.0019 74.1334 21.4096 74.1334 20.7306C74.1334 20.0601 74.2584 19.4692 74.5084 18.9579C74.7612 18.4465 75.1135 18.0473 75.5652 17.7604C76.0197 17.4735 76.551 17.33 77.1589 17.33C77.5282 17.33 77.8862 17.3911 78.2328 17.5133C78.5794 17.6354 78.8905 17.8272 79.166 18.0885C79.4416 18.3499 79.6589 18.6894 79.818 19.107C79.9771 19.5218 80.0567 20.026 80.0567 20.6198V21.0715H74.8535V20.1169H78.8081C78.8081 19.7817 78.7399 19.4848 78.6035 19.2263C78.4672 18.965 78.2754 18.759 78.0282 18.6084C77.7839 18.4579 77.497 18.3826 77.1675 18.3826C76.8095 18.3826 76.497 18.4706 76.23 18.6468C75.9657 18.8201 75.7612 19.0473 75.6163 19.3286C75.4743 19.607 75.4032 19.9096 75.4032 20.2363V20.982C75.4032 21.4195 75.48 21.7917 75.6334 22.0985C75.7896 22.4053 76.0069 22.6397 76.2854 22.8016C76.5638 22.9607 76.889 23.0402 77.2612 23.0402C77.5027 23.0402 77.7229 23.0061 77.9217 22.938C78.1206 22.8669 78.2925 22.7618 78.4373 22.6226C78.5822 22.4834 78.693 22.3115 78.7697 22.107L79.9757 22.3243C79.8791 22.6794 79.7058 22.9905 79.4558 23.2576C79.2086 23.5218 78.8976 23.7277 78.5226 23.8755C78.1504 24.0204 77.7257 24.0928 77.2484 24.0928ZM84.2914 24.0928C83.6465 24.0928 83.0911 23.955 82.6252 23.6794C82.1621 23.401 81.8042 23.0104 81.5513 22.5076C81.3013 22.0019 81.1763 21.4096 81.1763 20.7306C81.1763 20.0601 81.3013 19.4692 81.5513 18.9579C81.8042 18.4465 82.1564 18.0473 82.6081 17.7604C83.0627 17.4735 83.5939 17.33 84.2019 17.33C84.5712 17.33 84.9292 17.3911 85.2758 17.5133C85.6224 17.6354 85.9334 17.8272 86.209 18.0885C86.4846 18.3499 86.7019 18.6894 86.861 19.107C87.0201 19.5218 87.0996 20.026 87.0996 20.6198V21.0715H81.8965V20.1169H85.851C85.851 19.7817 85.7829 19.4848 85.6465 19.2263C85.5101 18.965 85.3184 18.759 85.0712 18.6084C84.8269 18.4579 84.54 18.3826 84.2104 18.3826C83.8525 18.3826 83.54 18.4706 83.2729 18.6468C83.0087 18.8201 82.8042 19.0473 82.6593 19.3286C82.5172 19.607 82.4462 19.9096 82.4462 20.2363V20.982C82.4462 21.4195 82.5229 21.7917 82.6763 22.0985C82.8326 22.4053 83.0499 22.6397 83.3283 22.8016C83.6067 22.9607 83.932 23.0402 84.3042 23.0402C84.5456 23.0402 84.7658 23.0061 84.9647 22.938C85.1635 22.8669 85.3354 22.7618 85.4803 22.6226C85.6252 22.4834 85.736 22.3115 85.8127 22.107L87.0187 22.3243C86.9221 22.6794 86.7488 22.9905 86.4988 23.2576C86.2516 23.5218 85.9405 23.7277 85.5655 23.8755C85.1934 24.0204 84.7687 24.0928 84.2914 24.0928ZM94.8042 17.4152V18.438H91.1053V17.4152H94.8042ZM92.1195 23.9607V16.6567C92.1195 16.2476 92.209 15.9081 92.388 15.6383C92.567 15.3655 92.8042 15.1624 93.0996 15.0289C93.3951 14.8925 93.7161 14.8243 94.0627 14.8243C94.3184 14.8243 94.5371 14.8456 94.7189 14.8883C94.9008 14.928 95.0357 14.965 95.1238 14.999L94.8255 16.0303C94.7658 16.0132 94.6891 15.9934 94.5954 15.9706C94.5016 15.9451 94.388 15.9323 94.2545 15.9323C93.9448 15.9323 93.7232 16.009 93.5897 16.1624C93.459 16.3158 93.3937 16.5374 93.3937 16.8272V23.9607H92.1195ZM98.6181 24.0928C98.0045 24.0928 97.4689 23.9522 97.0116 23.6709C96.5542 23.3897 96.1991 22.9962 95.9462 22.4905C95.6934 21.9848 95.567 21.3939 95.567 20.7178C95.567 20.0388 95.6934 19.4451 95.9462 18.9365C96.1991 18.428 96.5542 18.0331 97.0116 17.7519C97.4689 17.4706 98.0045 17.33 98.6181 17.33C99.2317 17.33 99.7672 17.4706 100.225 17.7519C100.682 18.0331 101.037 18.428 101.29 18.9365C101.543 19.4451 101.669 20.0388 101.669 20.7178C101.669 21.3939 101.543 21.9848 101.29 22.4905C101.037 22.9962 100.682 23.3897 100.225 23.6709C99.7672 23.9522 99.2317 24.0928 98.6181 24.0928ZM98.6224 23.0232C99.0201 23.0232 99.3496 22.9181 99.611 22.7079C99.8724 22.4976 100.066 22.2178 100.191 21.8684C100.318 21.5189 100.382 21.134 100.382 20.7135C100.382 20.2959 100.318 19.9124 100.191 19.563C100.066 19.2107 99.8724 18.928 99.611 18.715C99.3496 18.5019 99.0201 18.3954 98.6224 18.3954C98.2218 18.3954 97.8894 18.5019 97.6252 18.715C97.3638 18.928 97.1692 19.2107 97.0414 19.563C96.9164 19.9124 96.8539 20.2959 96.8539 20.7135C96.8539 21.134 96.9164 21.5189 97.0414 21.8684C97.1692 22.2178 97.3638 22.4976 97.6252 22.7079C97.8894 22.9181 98.2218 23.0232 98.6224 23.0232ZM103.091 23.9607V17.4152H104.323V18.455H104.391C104.51 18.1027 104.721 17.8257 105.022 17.624C105.326 17.4195 105.67 17.3172 106.053 17.3172C106.133 17.3172 106.226 17.3201 106.334 17.3258C106.445 17.3314 106.532 17.3385 106.594 17.3471V18.5658C106.543 18.5516 106.452 18.536 106.322 18.5189C106.191 18.499 106.06 18.4891 105.93 18.4891C105.628 18.4891 105.36 18.553 105.124 18.6809C104.891 18.8059 104.707 18.9806 104.57 19.205C104.434 19.4266 104.366 19.6794 104.366 19.9635V23.9607H103.091ZM113.694 24.0928C113.049 24.0928 112.493 23.955 112.028 23.6794C111.564 23.401 111.207 23.0104 110.954 22.5076C110.704 22.0019 110.579 21.4096 110.579 20.7306C110.579 20.0601 110.704 19.4692 110.954 18.9579C111.207 18.4465 111.559 18.0473 112.01 17.7604C112.465 17.4735 112.996 17.33 113.604 17.33C113.974 17.33 114.332 17.3911 114.678 17.5133C115.025 17.6354 115.336 17.8272 115.611 18.0885C115.887 18.3499 116.104 18.6894 116.263 19.107C116.422 19.5218 116.502 20.026 116.502 20.6198V21.0715H111.299V20.1169H115.253C115.253 19.7817 115.185 19.4848 115.049 19.2263C114.912 18.965 114.721 18.759 114.474 18.6084C114.229 18.4579 113.942 18.3826 113.613 18.3826C113.255 18.3826 112.942 18.4706 112.675 18.6468C112.411 18.8201 112.207 19.0473 112.062 19.3286C111.92 19.607 111.849 19.9096 111.849 20.2363V20.982C111.849 21.4195 111.925 21.7917 112.079 22.0985C112.235 22.4053 112.452 22.6397 112.731 22.8016C113.009 22.9607 113.334 23.0402 113.707 23.0402C113.948 23.0402 114.168 23.0061 114.367 22.938C114.566 22.8669 114.738 22.7618 114.883 22.6226C115.028 22.4834 115.138 22.3115 115.215 22.107L116.421 22.3243C116.324 22.6794 116.151 22.9905 115.901 23.2576C115.654 23.5218 115.343 23.7277 114.968 23.8755C114.596 24.0204 114.171 24.0928 113.694 24.0928ZM123.328 17.4152L120.954 23.9607H119.59L117.213 17.4152H118.58L120.238 22.4522H120.306L121.96 17.4152H123.328ZM127.123 24.0928C126.479 24.0928 125.923 23.955 125.457 23.6794C124.994 23.401 124.636 23.0104 124.383 22.5076C124.133 22.0019 124.008 21.4096 124.008 20.7306C124.008 20.0601 124.133 19.4692 124.383 18.9579C124.636 18.4465 124.988 18.0473 125.44 17.7604C125.895 17.4735 126.426 17.33 127.034 17.33C127.403 17.33 127.761 17.3911 128.108 17.5133C128.454 17.6354 128.765 17.8272 129.041 18.0885C129.317 18.3499 129.534 18.6894 129.693 19.107C129.852 19.5218 129.932 20.026 129.932 20.6198V21.0715H124.729V20.1169H128.683C128.683 19.7817 128.615 19.4848 128.479 19.2263C128.342 18.965 128.15 18.759 127.903 18.6084C127.659 18.4579 127.372 18.3826 127.042 18.3826C126.684 18.3826 126.372 18.4706 126.105 18.6468C125.841 18.8201 125.636 19.0473 125.491 19.3286C125.349 19.607 125.278 19.9096 125.278 20.2363V20.982C125.278 21.4195 125.355 21.7917 125.508 22.0985C125.665 22.4053 125.882 22.6397 126.16 22.8016C126.439 22.9607 126.764 23.0402 127.136 23.0402C127.378 23.0402 127.598 23.0061 127.797 22.938C127.996 22.8669 128.167 22.7618 128.312 22.6226C128.457 22.4834 128.568 22.3115 128.645 22.107L129.851 22.3243C129.754 22.6794 129.581 22.9905 129.331 23.2576C129.084 23.5218 128.773 23.7277 128.398 23.8755C128.025 24.0204 127.601 24.0928 127.123 24.0928ZM131.345 23.9607V17.4152H132.577V18.455H132.645C132.764 18.1027 132.975 17.8257 133.276 17.624C133.58 17.4195 133.923 17.3172 134.307 17.3172C134.387 17.3172 134.48 17.3201 134.588 17.3258C134.699 17.3314 134.786 17.3385 134.848 17.3471V18.5658C134.797 18.5516 134.706 18.536 134.575 18.5189C134.445 18.499 134.314 18.4891 134.183 18.4891C133.882 18.4891 133.614 18.553 133.378 18.6809C133.145 18.8059 132.96 18.9806 132.824 19.205C132.688 19.4266 132.62 19.6794 132.62 19.9635V23.9607H131.345ZM136.955 26.4152C136.765 26.4152 136.592 26.3996 136.436 26.3684C136.279 26.34 136.163 26.3087 136.086 26.2746L136.393 25.2306C136.626 25.2931 136.833 25.3201 137.015 25.3115C137.197 25.303 137.357 25.2348 137.497 25.107C137.639 24.9792 137.764 24.7704 137.872 24.4806L138.029 24.0459L135.634 17.4152H136.998L138.656 22.4948H138.724L140.382 17.4152H141.749L139.052 24.8343C138.927 25.1752 138.768 25.4635 138.575 25.6993C138.382 25.938 138.151 26.1169 137.884 26.2363C137.617 26.3556 137.308 26.4152 136.955 26.4152ZM145.481 24.0928C144.868 24.0928 144.332 23.9522 143.875 23.6709C143.417 23.3897 143.062 22.9962 142.809 22.4905C142.557 21.9848 142.43 21.3939 142.43 20.7178C142.43 20.0388 142.557 19.4451 142.809 18.9365C143.062 18.428 143.417 18.0331 143.875 17.7519C144.332 17.4706 144.868 17.33 145.481 17.33C146.095 17.33 146.631 17.4706 147.088 17.7519C147.545 18.0331 147.9 18.428 148.153 18.9365C148.406 19.4451 148.533 20.0388 148.533 20.7178C148.533 21.3939 148.406 21.9848 148.153 22.4905C147.9 22.9962 147.545 23.3897 147.088 23.6709C146.631 23.9522 146.095 24.0928 145.481 24.0928ZM145.486 23.0232C145.883 23.0232 146.213 22.9181 146.474 22.7079C146.736 22.4976 146.929 22.2178 147.054 21.8684C147.182 21.5189 147.246 21.134 147.246 20.7135C147.246 20.2959 147.182 19.9124 147.054 19.563C146.929 19.2107 146.736 18.928 146.474 18.715C146.213 18.5019 145.883 18.3954 145.486 18.3954C145.085 18.3954 144.753 18.5019 144.488 18.715C144.227 18.928 144.033 19.2107 143.905 19.563C143.78 19.9124 143.717 20.2959 143.717 20.7135C143.717 21.134 143.78 21.5189 143.905 21.8684C144.033 22.2178 144.227 22.4976 144.488 22.7079C144.753 22.9181 145.085 23.0232 145.486 23.0232ZM151.229 20.0743V23.9607H149.955V17.4152H151.178V18.4806H151.259C151.409 18.134 151.645 17.8556 151.966 17.6454C152.29 17.4351 152.698 17.33 153.189 17.33C153.635 17.33 154.026 17.4238 154.361 17.6113C154.696 17.7959 154.956 18.0715 155.141 18.438C155.325 18.8044 155.418 19.2576 155.418 19.7973V23.9607H154.144V19.9508C154.144 19.4763 154.02 19.1056 153.773 18.8385C153.526 18.5686 153.186 18.4337 152.754 18.4337C152.459 18.4337 152.196 18.4976 151.966 18.6255C151.739 18.7533 151.558 18.9408 151.425 19.188C151.294 19.4323 151.229 19.7277 151.229 20.0743ZM159.948 24.0928C159.303 24.0928 158.747 23.955 158.281 23.6794C157.818 23.401 157.46 23.0104 157.208 22.5076C156.958 22.0019 156.833 21.4096 156.833 20.7306C156.833 20.0601 156.958 19.4692 157.208 18.9579C157.46 18.4465 157.813 18.0473 158.264 17.7604C158.719 17.4735 159.25 17.33 159.858 17.33C160.227 17.33 160.585 17.3911 160.932 17.5133C161.279 17.6354 161.59 17.8272 161.865 18.0885C162.141 18.3499 162.358 18.6894 162.517 19.107C162.676 19.5218 162.756 20.026 162.756 20.6198V21.0715H157.553V20.1169H161.507C161.507 19.7817 161.439 19.4848 161.303 19.2263C161.166 18.965 160.975 18.759 160.727 18.6084C160.483 18.4579 160.196 18.3826 159.867 18.3826C159.509 18.3826 159.196 18.4706 158.929 18.6468C158.665 18.8201 158.46 19.0473 158.316 19.3286C158.173 19.607 158.102 19.9096 158.102 20.2363V20.982C158.102 21.4195 158.179 21.7917 158.333 22.0985C158.489 22.4053 158.706 22.6397 158.985 22.8016C159.263 22.9607 159.588 23.0402 159.96 23.0402C160.202 23.0402 160.422 23.0061 160.621 22.938C160.82 22.8669 160.992 22.7618 161.137 22.6226C161.281 22.4834 161.392 22.3115 161.469 22.107L162.675 22.3243C162.578 22.6794 162.405 22.9905 162.155 23.2576C161.908 23.5218 161.597 23.7277 161.222 23.8755C160.85 24.0204 160.425 24.0928 159.948 24.0928ZM165.827 22.7675L165.763 23.232C165.721 23.5729 165.648 23.928 165.546 24.2973C165.447 24.6695 165.343 25.0147 165.235 25.3329C165.13 25.651 165.043 25.9039 164.975 26.0914H164.072C164.109 25.9152 164.16 25.6766 164.225 25.3755C164.29 25.0772 164.354 24.7434 164.417 24.374C164.479 24.0047 164.526 23.6283 164.557 23.2448L164.6 22.7675H165.827ZM63.2094 30.2334H64.8074L67.5858 37.0175H67.688L70.4665 30.2334H72.0645V38.9607H70.8116V32.6454H70.7307L68.1568 38.9479H67.117L64.5432 32.6411H64.4622V38.9607H63.2094V30.2334ZM75.7814 39.1056C75.3667 39.1056 74.9917 39.0289 74.6564 38.8755C74.3212 38.7192 74.0556 38.4934 73.8596 38.1979C73.6664 37.9025 73.5698 37.5402 73.5698 37.1113C73.5698 36.7419 73.6408 36.438 73.7829 36.1993C73.9249 35.9607 74.1167 35.7718 74.3581 35.6326C74.5996 35.4934 74.8695 35.3883 75.1678 35.3172C75.4661 35.2462 75.7701 35.1922 76.0797 35.1553C76.4718 35.1098 76.79 35.0729 77.0343 35.0445C77.2786 35.0133 77.4562 34.9635 77.567 34.8954C77.6778 34.8272 77.7331 34.7164 77.7331 34.563V34.5331C77.7331 34.161 77.628 33.8726 77.4178 33.6681C77.2104 33.4635 76.9008 33.3613 76.4888 33.3613C76.0599 33.3613 75.7218 33.4564 75.4746 33.6468C75.2303 33.8343 75.0613 34.0431 74.9675 34.2732L73.7701 34.0005C73.9121 33.6027 74.1195 33.2817 74.3922 33.0374C74.6678 32.7902 74.9846 32.6113 75.3425 32.5005C75.7005 32.3868 76.0769 32.33 76.4718 32.33C76.7331 32.33 77.0101 32.3613 77.3028 32.4238C77.5982 32.4834 77.8738 32.5942 78.1295 32.7561C78.388 32.9181 78.5996 33.1496 78.7644 33.4508C78.9292 33.749 79.0116 34.1368 79.0116 34.6141V38.9607H77.7672V38.0658H77.7161C77.6337 38.2306 77.5101 38.3925 77.3454 38.5516C77.1806 38.7107 76.9689 38.8428 76.7104 38.9479C76.4519 39.053 76.1422 39.1056 75.7814 39.1056ZM76.0584 38.0829C76.4107 38.0829 76.7118 38.0133 76.9618 37.874C77.2147 37.7348 77.4064 37.553 77.5371 37.3286C77.6706 37.1013 77.7374 36.8584 77.7374 36.5999V35.7561C77.692 35.8016 77.6039 35.8442 77.4732 35.884C77.3454 35.9209 77.1991 35.9536 77.0343 35.982C76.8695 36.0076 76.709 36.0317 76.5528 36.0544C76.3965 36.0743 76.2658 36.0914 76.1607 36.1056C75.9135 36.1368 75.6877 36.1894 75.4831 36.2633C75.2814 36.3371 75.1195 36.4436 74.9974 36.5829C74.878 36.7192 74.8184 36.901 74.8184 37.1283C74.8184 37.4436 74.9349 37.6823 75.1678 37.8442C75.4008 38.0033 75.6976 38.0829 76.0584 38.0829ZM83.1589 39.0885C82.6305 39.0885 82.1589 38.9536 81.7442 38.6837C81.3322 38.411 81.0084 38.0232 80.7726 37.5204C80.5396 37.0147 80.4231 36.4081 80.4231 35.7008C80.4231 34.9934 80.541 34.3882 80.7768 33.8854C81.0155 33.3826 81.3422 32.9976 81.7569 32.7306C82.1717 32.4635 82.6419 32.33 83.1675 32.33C83.5737 32.33 83.9004 32.3982 84.1476 32.5346C84.3976 32.6681 84.5907 32.8243 84.7271 33.0033C84.8663 33.1823 84.9743 33.34 85.051 33.4763H85.1277V30.2334H86.4018V38.9607H85.1575V37.9422H85.051C84.9743 38.0814 84.8635 38.2405 84.7186 38.4195C84.5765 38.5985 84.3805 38.7547 84.1305 38.8883C83.8805 39.0218 83.5567 39.0885 83.1589 39.0885ZM83.4402 38.0019C83.8067 38.0019 84.1163 37.9053 84.3692 37.7121C84.6248 37.5161 84.818 37.2448 84.9487 36.8982C85.0822 36.5516 85.149 36.1482 85.149 35.688C85.149 35.2334 85.0836 34.8357 84.953 34.4948C84.8223 34.1539 84.6305 33.8882 84.3777 33.6979C84.1248 33.5076 83.8123 33.4124 83.4402 33.4124C83.0567 33.4124 82.7371 33.5118 82.4814 33.7107C82.2257 33.9096 82.0325 34.1809 81.9018 34.5246C81.774 34.8684 81.7101 35.2561 81.7101 35.688C81.7101 36.1255 81.7754 36.5189 81.9061 36.8684C82.0368 37.2178 82.23 37.4948 82.4856 37.6993C82.7442 37.901 83.0623 38.0019 83.4402 38.0019ZM91.0414 39.0928C90.3965 39.0928 89.8411 38.955 89.3752 38.6794C88.9121 38.401 88.5542 38.0104 88.3013 37.5076C88.0513 37.0019 87.9263 36.4096 87.9263 35.7306C87.9263 35.0601 88.0513 34.4692 88.3013 33.9579C88.5542 33.4465 88.9064 33.0473 89.3581 32.7604C89.8127 32.4735 90.3439 32.33 90.9519 32.33C91.3212 32.33 91.6792 32.3911 92.0258 32.5133C92.3724 32.6354 92.6834 32.8272 92.959 33.0885C93.2346 33.3499 93.4519 33.6894 93.611 34.107C93.7701 34.5218 93.8496 35.026 93.8496 35.6198V36.0715H88.6465V35.1169H92.601C92.601 34.7817 92.5329 34.4848 92.3965 34.2263C92.2601 33.965 92.0684 33.759 91.8212 33.6084C91.5769 33.4579 91.29 33.3826 90.9604 33.3826C90.6025 33.3826 90.29 33.4706 90.0229 33.6468C89.7587 33.8201 89.5542 34.0473 89.4093 34.3286C89.2672 34.607 89.1962 34.9096 89.1962 35.2363V35.982C89.1962 36.4195 89.2729 36.7917 89.4263 37.0985C89.5826 37.4053 89.7999 37.6397 90.0783 37.8016C90.3567 37.9607 90.682 38.0402 91.0542 38.0402C91.2956 38.0402 91.5158 38.0061 91.7147 37.938C91.9135 37.8669 92.0854 37.7618 92.2303 37.6226C92.3752 37.4834 92.486 37.3115 92.5627 37.107L93.7687 37.3243C93.6721 37.6794 93.4988 37.9905 93.2488 38.2576C93.0016 38.5218 92.6905 38.7277 92.3155 38.8755C91.9434 39.0204 91.5187 39.0928 91.0414 39.0928ZM99.8581 38.9607L97.932 32.4152H99.2488L100.531 37.2221H100.595L101.882 32.4152H103.199L104.477 37.2008H104.541L105.816 32.4152H107.132L105.21 38.9607H103.911L102.581 34.2348H102.483L101.154 38.9607H99.8581ZM108.341 38.9607V32.4152H109.616V38.9607H108.341ZM108.985 31.4053C108.763 31.4053 108.573 31.3314 108.414 31.1837C108.258 31.0331 108.18 30.8542 108.18 30.6468C108.18 30.4365 108.258 30.2576 108.414 30.1098C108.573 29.9593 108.763 29.884 108.985 29.884C109.207 29.884 109.395 29.9593 109.552 30.1098C109.711 30.2576 109.79 30.4365 109.79 30.6468C109.79 30.8542 109.711 31.0331 109.552 31.1837C109.395 31.3314 109.207 31.4053 108.985 31.4053ZM114.385 32.4152V33.438H110.81V32.4152H114.385ZM111.769 30.8471H113.043V37.0388C113.043 37.286 113.08 37.4721 113.154 37.5971C113.227 37.7192 113.323 37.803 113.439 37.8485C113.558 37.8911 113.688 37.9124 113.827 37.9124C113.929 37.9124 114.019 37.9053 114.095 37.8911C114.172 37.8769 114.232 37.8655 114.274 37.857L114.504 38.9096C114.431 38.938 114.325 38.9664 114.189 38.9948C114.053 39.026 113.882 39.0431 113.678 39.0459C113.343 39.0516 113.03 38.9919 112.74 38.8669C112.45 38.7419 112.216 38.5488 112.037 38.2874C111.858 38.026 111.769 37.6979 111.769 37.303V30.8471ZM117.209 35.0743V38.9607H115.935V30.2334H117.192V33.4806H117.273C117.427 33.1283 117.661 32.8485 117.976 32.6411C118.292 32.4337 118.704 32.33 119.212 32.33C119.661 32.33 120.053 32.4223 120.388 32.607C120.726 32.7917 120.988 33.0672 121.172 33.4337C121.36 33.7973 121.454 34.2519 121.454 34.7973V38.9607H120.18V34.9508C120.18 34.4706 120.056 34.0985 119.809 33.8343C119.562 33.5672 119.218 33.4337 118.778 33.4337C118.476 33.4337 118.207 33.4976 117.968 33.6255C117.732 33.7533 117.546 33.9408 117.41 34.188C117.276 34.4323 117.209 34.7277 117.209 35.0743ZM127.604 30.2334V38.9607H126.33V30.2334H127.604ZM132.075 39.0928C131.461 39.0928 130.926 38.9522 130.469 38.6709C130.011 38.3897 129.656 37.9962 129.403 37.4905C129.15 36.9848 129.024 36.3939 129.024 35.7178C129.024 35.0388 129.15 34.4451 129.403 33.9365C129.656 33.428 130.011 33.0331 130.469 32.7519C130.926 32.4706 131.461 32.33 132.075 32.33C132.689 32.33 133.224 32.4706 133.682 32.7519C134.139 33.0331 134.494 33.428 134.747 33.9365C135 34.4451 135.126 35.0388 135.126 35.7178C135.126 36.3939 135 36.9848 134.747 37.4905C134.494 37.9962 134.139 38.3897 133.682 38.6709C133.224 38.9522 132.689 39.0928 132.075 39.0928ZM132.079 38.0232C132.477 38.0232 132.807 37.9181 133.068 37.7079C133.329 37.4976 133.523 37.2178 133.648 36.8684C133.775 36.5189 133.839 36.134 133.839 35.7135C133.839 35.2959 133.775 34.9124 133.648 34.563C133.523 34.2107 133.329 33.928 133.068 33.715C132.807 33.5019 132.477 33.3954 132.079 33.3954C131.679 33.3954 131.346 33.5019 131.082 33.715C130.821 33.928 130.626 34.2107 130.498 34.563C130.373 34.9124 130.311 35.2959 130.311 35.7135C130.311 36.134 130.373 36.5189 130.498 36.8684C130.626 37.2178 130.821 37.4976 131.082 37.7079C131.346 37.9181 131.679 38.0232 132.079 38.0232ZM141.925 32.4152L139.552 38.9607H138.188L135.81 32.4152H137.178L138.836 37.4522H138.904L140.557 32.4152H141.925ZM145.721 39.0928C145.076 39.0928 144.521 38.955 144.055 38.6794C143.592 38.401 143.234 38.0104 142.981 37.5076C142.731 37.0019 142.606 36.4096 142.606 35.7306C142.606 35.0601 142.731 34.4692 142.981 33.9579C143.234 33.4465 143.586 33.0473 144.038 32.7604C144.492 32.4735 145.024 32.33 145.632 32.33C146.001 32.33 146.359 32.3911 146.705 32.5133C147.052 32.6354 147.363 32.8272 147.639 33.0885C147.914 33.3499 148.132 33.6894 148.291 34.107C148.45 34.5218 148.529 35.026 148.529 35.6198V36.0715H143.326V35.1169H147.281C147.281 34.7817 147.213 34.4848 147.076 34.2263C146.94 33.965 146.748 33.759 146.501 33.6084C146.257 33.4579 145.97 33.3826 145.64 33.3826C145.282 33.3826 144.97 33.4706 144.703 33.6468C144.438 33.8201 144.234 34.0473 144.089 34.3286C143.947 34.607 143.876 34.9096 143.876 35.2363V35.982C143.876 36.4195 143.953 36.7917 144.106 37.0985C144.262 37.4053 144.48 37.6397 144.758 37.8016C145.036 37.9607 145.362 38.0402 145.734 38.0402C145.975 38.0402 146.196 38.0061 146.394 37.938C146.593 37.8669 146.765 37.7618 146.91 37.6226C147.055 37.4834 147.166 37.3115 147.242 37.107L148.448 37.3243C148.352 37.6794 148.178 37.9905 147.928 38.2576C147.681 38.5218 147.37 38.7277 146.995 38.8755C146.623 39.0204 146.198 39.0928 145.721 39.0928Z" fill="white"/>
</g>
<defs>
<filter id="filter0_dd_1_3274" x="0.250565" y="0.0402832" width="240.88" height="93.8406" filterUnits="userSpaceOnUse" color-interpolation-filters="sRGB">
<feFlood flood-opacity="0" result="BackgroundImageFix"/>
<feColorMatrix in="SourceAlpha" type="matrix" values="0 0 0 0 0 0 0 0 0 0 0 0 0 0 0 0 0 0 127 0" result="hardAlpha"/>
<feMorphology radius="4" operator="erode" in="SourceAlpha" result="effect1_dropShadow_1_3274"/>
<feOffset dy="8"/>
<feGaussianBlur stdDeviation="4"/>
<feColorMatrix type="matrix" values="0 0 0 0 0.0627451 0 0 0 0 0.0941176 0 0 0 0 0.156863 0 0 0 0.03 0"/>
<feBlend mode="normal" in2="BackgroundImageFix" result="effect1_dropShadow_1_3274"/>
<feColorMatrix in="SourceAlpha" type="matrix" values="0 0 0 0 0 0 0 0 0 0 0 0 0 0 0 0 0 0 127 0" result="hardAlpha"/>
<feMorphology radius="4" operator="erode" in="SourceAlpha" result="effect2_dropShadow_1_3274"/>
<feOffset dy="20"/>
<feGaussianBlur stdDeviation="12"/>
<feColorMatrix type="matrix" values="0 0 0 0 0.0627451 0 0 0 0 0.0941176 0 0 0 0 0.156863 0 0 0 0.08 0"/>
<feBlend mode="normal" in2="effect1_dropShadow_1_3274" result="effect2_dropShadow_1_3274"/>
<feBlend mode="normal" in="SourceGraphic" in2="effect2_dropShadow_1_3274" result="shape"/>
</filter>
<clipPath id="clip0_1_3274">
<rect width="24" height="24" fill="white" transform="translate(28.2506 14.9607)"/>
</clipPath>
</defs>
</svg>
