<svg width="213" height="81" viewBox="0 0 213 81" fill="none" xmlns="http://www.w3.org/2000/svg">
<g filter="url(#filter0_dd_1_3242)">
<rect x="20.8164" y="0.489258" width="171.627" height="40" rx="8" fill="#33895E"/>
<path d="M40.8164 11.6793L47.8164 14.7893V19.4893C47.8164 24.0093 44.8364 28.1793 40.8164 29.4193C36.7964 28.1793 33.8164 24.0093 33.8164 19.4893V14.7893L40.8164 11.6793ZM40.8164 9.48926L31.8164 13.4893V19.4893C31.8164 25.0393 35.6564 30.2293 40.8164 31.4893C45.9764 30.2293 49.8164 25.0393 49.8164 19.4893V13.4893L40.8164 9.48926Z" fill="white"/>
<path d="M63.7752 24.9893V16.262H66.886C67.565 16.262 68.1275 16.3856 68.5735 16.6327C69.0195 16.8799 69.3533 17.218 69.5749 17.6469C69.7965 18.0731 69.9073 18.5532 69.9073 19.0873C69.9073 19.6242 69.7951 20.1072 69.5707 20.5361C69.3491 20.9623 69.0138 21.3003 68.565 21.5503C68.119 21.7975 67.5579 21.9211 66.8817 21.9211H64.7425V20.8046H66.7624C67.1914 20.8046 67.5394 20.7307 67.8065 20.583C68.0735 20.4324 68.2695 20.2279 68.3945 19.9694C68.5195 19.7108 68.582 19.4168 68.582 19.0873C68.582 18.7577 68.5195 18.4651 68.3945 18.2094C68.2695 17.9537 68.0721 17.7535 67.8022 17.6086C67.5352 17.4637 67.1829 17.3912 66.7454 17.3912H65.092V24.9893H63.7752ZM71.3487 24.9893V18.4438H72.5803V19.4836H72.6484C72.7678 19.1313 72.978 18.8543 73.2791 18.6526C73.5831 18.4481 73.9268 18.3458 74.3104 18.3458C74.3899 18.3458 74.4837 18.3486 74.5916 18.3543C74.7024 18.36 74.7891 18.3671 74.8516 18.3756V19.5944C74.8004 19.5802 74.7095 19.5645 74.5788 19.5475C74.4482 19.5276 74.3175 19.5177 74.1868 19.5177C73.8857 19.5177 73.6172 19.5816 73.3814 19.7094C73.1484 19.8344 72.9638 20.0091 72.8274 20.2336C72.6911 20.4552 72.6229 20.708 72.6229 20.9921V24.9893H71.3487ZM75.9542 24.9893V18.4438H77.2283V24.9893H75.9542ZM76.5977 17.4339C76.3761 17.4339 76.1857 17.36 76.0266 17.2123C75.8704 17.0617 75.7923 16.8827 75.7923 16.6753C75.7923 16.4651 75.8704 16.2861 76.0266 16.1384C76.1857 15.9878 76.3761 15.9126 76.5977 15.9126C76.8192 15.9126 77.0082 15.9878 77.1644 16.1384C77.3235 16.2861 77.4031 16.4651 77.4031 16.6753C77.4031 16.8827 77.3235 17.0617 77.1644 17.2123C77.0082 17.36 76.8192 17.4339 76.5977 17.4339ZM84.5419 18.4438L82.1683 24.9893H80.8047L78.4268 18.4438H79.7947L81.4524 23.4807H81.5206L83.174 18.4438H84.5419ZM87.4567 25.1341C87.0419 25.1341 86.6669 25.0574 86.3317 24.904C85.9964 24.7478 85.7308 24.5219 85.5348 24.2265C85.3416 23.931 85.245 23.5688 85.245 23.1398C85.245 22.7705 85.3161 22.4665 85.4581 22.2279C85.6001 21.9893 85.7919 21.8003 86.0334 21.6611C86.2749 21.5219 86.5447 21.4168 86.843 21.3458C87.1413 21.2748 87.4453 21.2208 87.755 21.1839C88.147 21.1384 88.4652 21.1015 88.7095 21.0731C88.9538 21.0418 89.1314 20.9921 89.2422 20.9239C89.353 20.8557 89.4084 20.7449 89.4084 20.5915V20.5617C89.4084 20.1895 89.3033 19.9012 89.093 19.6966C88.8857 19.4921 88.576 19.3898 88.1641 19.3898C87.7351 19.3898 87.397 19.485 87.1499 19.6753C86.9055 19.8628 86.7365 20.0716 86.6428 20.3018L85.4453 20.029C85.5874 19.6313 85.7947 19.3103 86.0675 19.066C86.343 18.8188 86.6598 18.6398 87.0178 18.529C87.3757 18.4154 87.7521 18.3586 88.147 18.3586C88.4084 18.3586 88.6854 18.3898 88.978 18.4523C89.2734 18.512 89.549 18.6228 89.8047 18.7847C90.0632 18.9466 90.2749 19.1782 90.4396 19.4793C90.6044 19.7776 90.6868 20.1654 90.6868 20.6427V24.9893H89.4425V24.0944H89.3913C89.3089 24.2591 89.1854 24.4211 89.0206 24.5802C88.8558 24.7393 88.6442 24.8714 88.3857 24.9765C88.1271 25.0816 87.8175 25.1341 87.4567 25.1341ZM87.7337 24.1114C88.0859 24.1114 88.3871 24.0418 88.6371 23.9026C88.8899 23.7634 89.0817 23.5816 89.2124 23.3572C89.3459 23.1299 89.4126 22.887 89.4126 22.6285V21.7847C89.3672 21.8302 89.2791 21.8728 89.1484 21.9126C89.0206 21.9495 88.8743 21.9822 88.7095 22.0106C88.5447 22.0361 88.3842 22.0603 88.228 22.083C88.0717 22.1029 87.9411 22.1199 87.8359 22.1341C87.5888 22.1654 87.3629 22.218 87.1584 22.2918C86.9567 22.3657 86.7947 22.4722 86.6726 22.6114C86.5533 22.7478 86.4936 22.9296 86.4936 23.1569C86.4936 23.4722 86.6101 23.7108 86.843 23.8728C87.076 24.0319 87.3729 24.1114 87.7337 24.1114ZM95.141 25.1214C94.5075 25.1214 93.962 24.9779 93.5046 24.691C93.0501 24.4012 92.7006 24.002 92.4563 23.4935C92.212 22.985 92.0898 22.4026 92.0898 21.7464C92.0898 21.0816 92.2148 20.4949 92.4648 19.9864C92.7148 19.4751 93.0671 19.0759 93.5217 18.789C93.9762 18.502 94.5117 18.3586 95.1282 18.3586C95.6254 18.3586 96.0685 18.4509 96.4577 18.6356C96.8469 18.8174 97.1609 19.0731 97.3995 19.4026C97.641 19.7322 97.7844 20.1171 97.8299 20.5574H96.5898C96.5217 20.2506 96.3654 19.9864 96.1211 19.7648C95.8796 19.5432 95.5558 19.4324 95.1495 19.4324C94.7944 19.4324 94.4833 19.5262 94.2163 19.7137C93.9521 19.8983 93.7461 20.1626 93.5984 20.5063C93.4506 20.8472 93.3768 21.2506 93.3768 21.7165C93.3768 22.1938 93.4492 22.6057 93.5941 22.9523C93.739 23.2989 93.9435 23.5674 94.2077 23.7577C94.4748 23.9481 94.7887 24.0432 95.1495 24.0432C95.391 24.0432 95.6097 23.9992 95.8058 23.9111C96.0046 23.8202 96.1708 23.691 96.3043 23.5233C96.4407 23.3557 96.5359 23.154 96.5898 22.9182H97.8299C97.7844 23.3415 97.6467 23.7194 97.4165 24.0518C97.1864 24.3841 96.8782 24.6455 96.4918 24.8358C96.1083 25.0262 95.658 25.1214 95.141 25.1214ZM99.9979 27.4438C99.8075 27.4438 99.6342 27.4282 99.478 27.3969C99.3217 27.3685 99.2053 27.3373 99.1286 27.3032L99.4354 26.2591C99.6683 26.3216 99.8757 26.3486 100.058 26.3401C100.239 26.3316 100.4 26.2634 100.539 26.1356C100.681 26.0077 100.806 25.7989 100.914 25.5091L101.072 25.0745L98.6768 18.4438H100.04L101.698 23.5233H101.766L103.424 18.4438H104.792L102.094 25.8628C101.969 26.2037 101.81 26.4921 101.617 26.7279C101.424 26.9665 101.194 27.1455 100.927 27.2648C100.66 27.3841 100.35 27.4438 99.9979 27.4438ZM109.267 24.9893V16.262H110.542V19.5049H110.618C110.692 19.3685 110.799 19.2108 110.938 19.0319C111.077 18.8529 111.27 18.6966 111.517 18.5631C111.765 18.4268 112.091 18.3586 112.498 18.3586C113.026 18.3586 113.498 18.4921 113.912 18.7591C114.327 19.0262 114.652 19.4111 114.888 19.914C115.127 20.4168 115.246 21.0219 115.246 21.7293C115.246 22.4367 115.128 23.0432 114.892 23.5489C114.657 24.0518 114.333 24.4395 113.921 24.7123C113.509 24.9822 113.039 25.1171 112.51 25.1171C112.113 25.1171 111.787 25.0503 111.534 24.9168C111.284 24.7833 111.088 24.627 110.946 24.4481C110.804 24.2691 110.695 24.11 110.618 23.9708H110.512V24.9893H109.267ZM110.516 21.7165C110.516 22.1768 110.583 22.5802 110.716 22.9268C110.85 23.2733 111.043 23.5447 111.296 23.7407C111.549 23.9339 111.858 24.0305 112.225 24.0305C112.605 24.0305 112.924 23.9296 113.179 23.7279C113.435 23.5233 113.628 23.2464 113.759 22.8969C113.892 22.5475 113.959 22.154 113.959 21.7165C113.959 21.2847 113.894 20.8969 113.763 20.5532C113.635 20.2094 113.442 19.9381 113.184 19.7393C112.928 19.5404 112.608 19.441 112.225 19.441C111.855 19.441 111.543 19.5361 111.287 19.7265C111.034 19.9168 110.843 20.1824 110.712 20.5233C110.581 20.8643 110.516 21.262 110.516 21.7165ZM117.26 27.4438C117.069 27.4438 116.896 27.4282 116.74 27.3969C116.583 27.3685 116.467 27.3373 116.39 27.3032L116.697 26.2591C116.93 26.3216 117.137 26.3486 117.319 26.3401C117.501 26.3316 117.662 26.2634 117.801 26.1356C117.943 26.0077 118.068 25.7989 118.176 25.5091L118.333 25.0745L115.939 18.4438H117.302L118.96 23.5233H119.028L120.686 18.4438H122.054L119.356 25.8628C119.231 26.2037 119.072 26.4921 118.879 26.7279C118.686 26.9665 118.456 27.1455 118.189 27.2648C117.922 27.3841 117.612 27.4438 117.26 27.4438ZM128.877 25.1171C128.349 25.1171 127.877 24.9822 127.462 24.7123C127.05 24.4395 126.727 24.0518 126.491 23.5489C126.258 23.0432 126.141 22.4367 126.141 21.7293C126.141 21.0219 126.259 20.4168 126.495 19.914C126.734 19.4111 127.06 19.0262 127.475 18.7591C127.89 18.4921 128.36 18.3586 128.886 18.3586C129.292 18.3586 129.619 18.4268 129.866 18.5631C130.116 18.6966 130.309 18.8529 130.445 19.0319C130.585 19.2108 130.692 19.3685 130.769 19.5049H130.846V16.262H132.12V24.9893H130.876V23.9708H130.769C130.692 24.11 130.582 24.2691 130.437 24.4481C130.295 24.627 130.099 24.7833 129.849 24.9168C129.599 25.0503 129.275 25.1171 128.877 25.1171ZM129.158 24.0305C129.525 24.0305 129.835 23.9339 130.087 23.7407C130.343 23.5447 130.536 23.2733 130.667 22.9268C130.8 22.5802 130.867 22.1768 130.867 21.7165C130.867 21.262 130.802 20.8643 130.671 20.5233C130.54 20.1824 130.349 19.9168 130.096 19.7265C129.843 19.5361 129.531 19.441 129.158 19.441C128.775 19.441 128.455 19.5404 128.2 19.7393C127.944 19.9381 127.751 20.2094 127.62 20.5532C127.492 20.8969 127.428 21.2847 127.428 21.7165C127.428 22.154 127.494 22.5475 127.624 22.8969C127.755 23.2464 127.948 23.5233 128.204 23.7279C128.462 23.9296 128.781 24.0305 129.158 24.0305ZM136.76 25.1214C136.115 25.1214 135.559 24.9836 135.093 24.708C134.63 24.4296 134.272 24.039 134.02 23.5361C133.77 23.0305 133.645 22.4381 133.645 21.7591C133.645 21.0887 133.77 20.4978 134.02 19.9864C134.272 19.4751 134.625 19.0759 135.076 18.789C135.531 18.502 136.062 18.3586 136.67 18.3586C137.039 18.3586 137.397 18.4197 137.744 18.5418C138.091 18.664 138.402 18.8557 138.677 19.1171C138.953 19.3785 139.17 19.718 139.329 20.1356C139.488 20.5503 139.568 21.0546 139.568 21.6483V22.1001H134.365V21.1455H138.319C138.319 20.8103 138.251 20.5134 138.115 20.2549C137.978 19.9935 137.787 19.7876 137.539 19.637C137.295 19.4864 137.008 19.4111 136.679 19.4111C136.321 19.4111 136.008 19.4992 135.741 19.6753C135.477 19.8486 135.272 20.0759 135.127 20.3572C134.985 20.6356 134.914 20.9381 134.914 21.2648V22.0106C134.914 22.4481 134.991 22.8202 135.145 23.127C135.301 23.4339 135.518 23.6682 135.797 23.8302C136.075 23.9893 136.4 24.0688 136.772 24.0688C137.014 24.0688 137.234 24.0347 137.433 23.9665C137.632 23.8955 137.804 23.7904 137.949 23.6512C138.093 23.512 138.204 23.3401 138.281 23.1356L139.487 23.3529C139.39 23.708 139.217 24.0191 138.967 24.2861C138.72 24.5503 138.409 24.7563 138.034 24.904C137.662 25.0489 137.237 25.1214 136.76 25.1214ZM144.097 18.4438V19.4665H140.398V18.4438H144.097ZM141.412 24.9893V17.6853C141.412 17.2762 141.501 16.9367 141.68 16.6668C141.859 16.3941 142.097 16.191 142.392 16.0574C142.688 15.9211 143.009 15.8529 143.355 15.8529C143.611 15.8529 143.83 15.8742 144.011 15.9168C144.193 15.9566 144.328 15.9935 144.416 16.0276L144.118 17.0589C144.058 17.0418 143.982 17.0219 143.888 16.9992C143.794 16.9736 143.68 16.9608 143.547 16.9608C143.237 16.9608 143.016 17.0376 142.882 17.191C142.751 17.3444 142.686 17.566 142.686 17.8557V24.9893H141.412ZM147.117 25.1341C146.702 25.1341 146.327 25.0574 145.992 24.904C145.657 24.7478 145.391 24.5219 145.195 24.2265C145.002 23.931 144.905 23.5688 144.905 23.1398C144.905 22.7705 144.976 22.4665 145.118 22.2279C145.26 21.9893 145.452 21.8003 145.694 21.6611C145.935 21.5219 146.205 21.4168 146.503 21.3458C146.801 21.2748 147.105 21.2208 147.415 21.1839C147.807 21.1384 148.125 21.1015 148.37 21.0731C148.614 21.0418 148.792 20.9921 148.902 20.9239C149.013 20.8557 149.069 20.7449 149.069 20.5915V20.5617C149.069 20.1895 148.963 19.9012 148.753 19.6966C148.546 19.4921 148.236 19.3898 147.824 19.3898C147.395 19.3898 147.057 19.485 146.81 19.6753C146.566 19.8628 146.397 20.0716 146.303 20.3018L145.105 20.029C145.248 19.6313 145.455 19.3103 145.728 19.066C146.003 18.8188 146.32 18.6398 146.678 18.529C147.036 18.4154 147.412 18.3586 147.807 18.3586C148.069 18.3586 148.346 18.3898 148.638 18.4523C148.934 18.512 149.209 18.6228 149.465 18.7847C149.723 18.9466 149.935 19.1782 150.1 19.4793C150.265 19.7776 150.347 20.1654 150.347 20.6427V24.9893H149.103V24.0944H149.051C148.969 24.2591 148.846 24.4211 148.681 24.5802C148.516 24.7393 148.304 24.8714 148.046 24.9765C147.787 25.0816 147.478 25.1341 147.117 25.1341ZM147.394 24.1114C147.746 24.1114 148.047 24.0418 148.297 23.9026C148.55 23.7634 148.742 23.5816 148.873 23.3572C149.006 23.1299 149.073 22.887 149.073 22.6285V21.7847C149.027 21.8302 148.939 21.8728 148.809 21.9126C148.681 21.9495 148.534 21.9822 148.37 22.0106C148.205 22.0361 148.044 22.0603 147.888 22.083C147.732 22.1029 147.601 22.1199 147.496 22.1341C147.249 22.1654 147.023 22.218 146.819 22.2918C146.617 22.3657 146.455 22.4722 146.333 22.6114C146.213 22.7478 146.154 22.9296 146.154 23.1569C146.154 23.4722 146.27 23.7108 146.503 23.8728C146.736 24.0319 147.033 24.1114 147.394 24.1114ZM156.19 22.2748V18.4438H157.469V24.9893H156.216V23.8557H156.148C155.997 24.2052 155.756 24.4964 155.423 24.7293C155.094 24.9594 154.683 25.0745 154.192 25.0745C153.771 25.0745 153.399 24.9822 153.075 24.7975C152.754 24.61 152.501 24.333 152.317 23.9665C152.135 23.6001 152.044 23.1469 152.044 22.6072V18.4438H153.318V22.4537C153.318 22.8998 153.442 23.2549 153.689 23.5191C153.936 23.7833 154.257 23.9154 154.652 23.9154C154.891 23.9154 155.128 23.8557 155.364 23.7364C155.602 23.6171 155.8 23.4367 155.956 23.1952C156.115 22.9537 156.193 22.6469 156.19 22.2748ZM160.455 16.262V24.9893H159.181V16.262H160.455ZM165.224 18.4438V19.4665H161.649V18.4438H165.224ZM162.608 16.8756H163.882V23.0674C163.882 23.3145 163.919 23.5006 163.993 23.6256C164.067 23.7478 164.162 23.8316 164.278 23.877C164.398 23.9197 164.527 23.941 164.666 23.941C164.768 23.941 164.858 23.9339 164.935 23.9197C165.011 23.9055 165.071 23.8941 165.114 23.8856L165.344 24.9381C165.27 24.9665 165.165 24.9949 165.028 25.0233C164.892 25.0546 164.722 25.0716 164.517 25.0745C164.182 25.0802 163.869 25.0205 163.58 24.8955C163.29 24.7705 163.055 24.5773 162.876 24.316C162.697 24.0546 162.608 23.7265 162.608 23.3316V16.8756Z" fill="white"/>
</g>
<defs>
<filter id="filter0_dd_1_3242" x="0.816406" y="0.489258" width="211.627" height="80" filterUnits="userSpaceOnUse" color-interpolation-filters="sRGB">
<feFlood flood-opacity="0" result="BackgroundImageFix"/>
<feColorMatrix in="SourceAlpha" type="matrix" values="0 0 0 0 0 0 0 0 0 0 0 0 0 0 0 0 0 0 127 0" result="hardAlpha"/>
<feMorphology radius="4" operator="erode" in="SourceAlpha" result="effect1_dropShadow_1_3242"/>
<feOffset dy="8"/>
<feGaussianBlur stdDeviation="4"/>
<feColorMatrix type="matrix" values="0 0 0 0 0.0627451 0 0 0 0 0.0941176 0 0 0 0 0.156863 0 0 0 0.03 0"/>
<feBlend mode="normal" in2="BackgroundImageFix" result="effect1_dropShadow_1_3242"/>
<feColorMatrix in="SourceAlpha" type="matrix" values="0 0 0 0 0 0 0 0 0 0 0 0 0 0 0 0 0 0 127 0" result="hardAlpha"/>
<feMorphology radius="4" operator="erode" in="SourceAlpha" result="effect2_dropShadow_1_3242"/>
<feOffset dy="20"/>
<feGaussianBlur stdDeviation="12"/>
<feColorMatrix type="matrix" values="0 0 0 0 0.0627451 0 0 0 0 0.0941176 0 0 0 0 0.156863 0 0 0 0.08 0"/>
<feBlend mode="normal" in2="effect1_dropShadow_1_3242" result="effect2_dropShadow_1_3242"/>
<feBlend mode="normal" in="SourceGraphic" in2="effect2_dropShadow_1_3242" result="shape"/>
</filter>
</defs>
</svg>
