<svg width="242" height="78" viewBox="0 0 242 78" fill="none" xmlns="http://www.w3.org/2000/svg">
<g filter="url(#filter0_dd_1_3261)">
<rect x="20.4175" width="201" height="38" rx="8" fill="#33895E"/>
<path d="M50.3117 16.1846H49.1117C48.7803 16.1846 48.5117 16.4532 48.5117 16.7846V21.5846C48.5117 21.9159 48.7803 22.1846 49.1117 22.1846H50.3117C50.6431 22.1846 50.9117 21.9159 50.9117 21.5846V16.7846C50.9117 16.4532 50.6431 16.1846 50.3117 16.1846Z" fill="white"/>
<path d="M32.9102 16.1846H36.5102V22.1846H32.9102V16.1846ZM37.1102 16.1846H40.7102V22.1846H37.1102V16.1846ZM41.3102 16.1846H44.9102V22.1846H41.3102V16.1846Z" fill="white"/>
<path fill-rule="evenodd" clip-rule="evenodd" d="M44.9125 12.5847H32.9125C31.9577 12.5847 31.042 12.964 30.3669 13.6391C29.6918 14.3143 29.3125 15.2299 29.3125 16.1847V22.1847C29.3125 23.1395 29.6918 24.0552 30.3669 24.7303C31.042 25.4054 31.9577 25.7847 32.9125 25.7847H44.9125C45.8673 25.7847 46.783 25.4054 47.4581 24.7303C48.1332 24.0552 48.5125 23.1395 48.5125 22.1847V16.1847C48.5125 15.2299 48.1332 14.3143 47.4581 13.6391C46.783 12.964 45.8673 12.5847 44.9125 12.5847ZM31.7125 16.1847C31.7125 15.8665 31.8389 15.5612 32.064 15.3362C32.289 15.1111 32.5942 14.9847 32.9125 14.9847H44.9125C45.2308 14.9847 45.536 15.1111 45.761 15.3362C45.9861 15.5612 46.1125 15.8665 46.1125 16.1847V22.1847C46.1125 22.503 45.9861 22.8082 45.761 23.0332C45.536 23.2583 45.2308 23.3847 44.9125 23.3847H32.9125C32.5942 23.3847 32.289 23.2583 32.064 23.0332C31.8389 22.8082 31.7125 22.503 31.7125 22.1847V16.1847Z" fill="white"/>
<path d="M63.3763 23.5V14.7727H68.8479V15.9062H64.693V18.5653H68.5624V19.6946H64.693V22.3665H68.899V23.5H63.3763ZM73.6195 16.9545V17.9773H69.9207V16.9545H73.6195ZM70.9349 23.5V16.196C70.9349 15.7869 71.0244 15.4474 71.2033 15.1776C71.3823 14.9048 71.6195 14.7017 71.915 14.5682C72.2104 14.4318 72.5315 14.3636 72.8781 14.3636C73.1337 14.3636 73.3525 14.3849 73.5343 14.4276C73.7161 14.4673 73.8511 14.5043 73.9391 14.5384L73.6408 15.5696C73.5812 15.5526 73.5045 15.5327 73.4107 15.5099C73.317 15.4844 73.2033 15.4716 73.0698 15.4716C72.7602 15.4716 72.5386 15.5483 72.4051 15.7017C72.2744 15.8551 72.209 16.0767 72.209 16.3665V23.5H70.9349ZM78.0492 16.9545V17.9773H74.3504V16.9545H78.0492ZM75.3646 23.5V16.196C75.3646 15.7869 75.4541 15.4474 75.633 15.1776C75.812 14.9048 76.0492 14.7017 76.3447 14.5682C76.6401 14.4318 76.9612 14.3636 77.3078 14.3636C77.5634 14.3636 77.7822 14.3849 77.964 14.4276C78.1458 14.4673 78.2808 14.5043 78.3688 14.5384L78.0705 15.5696C78.0109 15.5526 77.9342 15.5327 77.8404 15.5099C77.7467 15.4844 77.633 15.4716 77.4995 15.4716C77.1899 15.4716 76.9683 15.5483 76.8347 15.7017C76.7041 15.8551 76.6387 16.0767 76.6387 16.3665V23.5H75.3646ZM79.3639 23.5V16.9545H80.638V23.5H79.3639ZM80.0073 15.9446C79.7857 15.9446 79.5954 15.8707 79.4363 15.723C79.2801 15.5724 79.2019 15.3935 79.2019 15.1861C79.2019 14.9759 79.2801 14.7969 79.4363 14.6491C79.5954 14.4986 79.7857 14.4233 80.0073 14.4233C80.2289 14.4233 80.4178 14.4986 80.5741 14.6491C80.7332 14.7969 80.8127 14.9759 80.8127 15.1861C80.8127 15.3935 80.7332 15.5724 80.5741 15.723C80.4178 15.8707 80.2289 15.9446 80.0073 15.9446ZM85.1092 23.6321C84.4757 23.6321 83.9303 23.4886 83.4729 23.2017C83.0183 22.9119 82.6689 22.5128 82.4246 22.0043C82.1803 21.4957 82.0581 20.9134 82.0581 20.2571C82.0581 19.5923 82.1831 19.0057 82.4331 18.4972C82.6831 17.9858 83.0354 17.5866 83.4899 17.2997C83.9445 17.0128 84.48 16.8693 85.0965 16.8693C85.5936 16.8693 86.0368 16.9616 86.426 17.1463C86.8152 17.3281 87.1291 17.5838 87.3678 17.9134C87.6092 18.2429 87.7527 18.6278 87.7982 19.0682H86.5581C86.4899 18.7614 86.3337 18.4972 86.0894 18.2756C85.8479 18.054 85.524 17.9432 85.1178 17.9432C84.7627 17.9432 84.4516 18.0369 84.1845 18.2244C83.9203 18.4091 83.7144 18.6733 83.5666 19.017C83.4189 19.358 83.345 19.7614 83.345 20.2273C83.345 20.7045 83.4175 21.1165 83.5624 21.4631C83.7073 21.8097 83.9118 22.0781 84.176 22.2685C84.443 22.4588 84.757 22.554 85.1178 22.554C85.3592 22.554 85.578 22.5099 85.774 22.4219C85.9729 22.331 86.1391 22.2017 86.2726 22.0341C86.409 21.8665 86.5041 21.6648 86.5581 21.429H87.7982C87.7527 21.8523 87.6149 22.2301 87.3848 22.5625C87.1547 22.8949 86.8465 23.1562 86.4601 23.3466C86.0766 23.5369 85.6263 23.6321 85.1092 23.6321ZM89.1607 23.5V16.9545H90.4349V23.5H89.1607ZM89.8042 15.9446C89.5826 15.9446 89.3923 15.8707 89.2332 15.723C89.0769 15.5724 88.9988 15.3935 88.9988 15.1861C88.9988 14.9759 89.0769 14.7969 89.2332 14.6491C89.3923 14.4986 89.5826 14.4233 89.8042 14.4233C90.0258 14.4233 90.2147 14.4986 90.371 14.6491C90.5301 14.7969 90.6096 14.9759 90.6096 15.1861C90.6096 15.3935 90.5301 15.5724 90.371 15.723C90.2147 15.8707 90.0258 15.9446 89.8042 15.9446ZM94.97 23.6321C94.3252 23.6321 93.7698 23.4943 93.3038 23.2188C92.8408 22.9403 92.4828 22.5497 92.23 22.0469C91.98 21.5412 91.855 20.9489 91.855 20.2699C91.855 19.5994 91.98 19.0085 92.23 18.4972C92.4828 17.9858 92.8351 17.5866 93.2868 17.2997C93.7413 17.0128 94.2726 16.8693 94.8805 16.8693C95.2499 16.8693 95.6078 16.9304 95.9544 17.0526C96.301 17.1747 96.6121 17.3665 96.8877 17.6278C97.1632 17.8892 97.3805 18.2287 97.5396 18.6463C97.6987 19.0611 97.7783 19.5653 97.7783 20.1591V20.6108H92.5752V19.6562H96.5297C96.5297 19.321 96.4615 19.0241 96.3252 18.7656C96.1888 18.5043 95.997 18.2983 95.7499 18.1477C95.5055 17.9972 95.2186 17.9219 94.8891 17.9219C94.5311 17.9219 94.2186 18.0099 93.9516 18.1861C93.6874 18.3594 93.4828 18.5866 93.3379 18.8679C93.1959 19.1463 93.1249 19.4489 93.1249 19.7756V20.5213C93.1249 20.9588 93.2016 21.331 93.355 21.6378C93.5112 21.9446 93.7286 22.179 94.007 22.3409C94.2854 22.5 94.6107 22.5795 94.9828 22.5795C95.2243 22.5795 95.4445 22.5455 95.6433 22.4773C95.8422 22.4062 96.0141 22.3011 96.159 22.1619C96.3038 22.0227 96.4146 21.8509 96.4913 21.6463L97.6973 21.8636C97.6007 22.2187 97.4274 22.5298 97.1774 22.7969C96.9303 23.0611 96.6192 23.267 96.2442 23.4148C95.872 23.5597 95.4473 23.6321 94.97 23.6321ZM100.466 19.6136V23.5H99.192V16.9545H100.415V18.0199H100.496C100.647 17.6733 100.882 17.3949 101.203 17.1847C101.527 16.9744 101.935 16.8693 102.426 16.8693C102.872 16.8693 103.263 16.9631 103.598 17.1506C103.933 17.3352 104.193 17.6108 104.378 17.9773C104.563 18.3437 104.655 18.7969 104.655 19.3366V23.5H103.381V19.4901C103.381 19.0156 103.257 18.6449 103.01 18.3778C102.763 18.108 102.424 17.973 101.992 17.973C101.696 17.973 101.433 18.0369 101.203 18.1648C100.976 18.2926 100.796 18.4801 100.662 18.7273C100.531 18.9716 100.466 19.267 100.466 19.6136ZM109.419 16.9545V17.9773H105.844V16.9545H109.419ZM106.803 15.3864H108.077V21.5781C108.077 21.8253 108.114 22.0114 108.188 22.1364C108.262 22.2585 108.357 22.3423 108.473 22.3878C108.593 22.4304 108.722 22.4517 108.861 22.4517C108.963 22.4517 109.053 22.4446 109.129 22.4304C109.206 22.4162 109.266 22.4048 109.308 22.3963L109.539 23.4489C109.465 23.4773 109.36 23.5057 109.223 23.5341C109.087 23.5653 108.916 23.5824 108.712 23.5852C108.377 23.5909 108.064 23.5312 107.774 23.4062C107.485 23.2812 107.25 23.0881 107.071 22.8267C106.892 22.5653 106.803 22.2372 106.803 21.8423V15.3864ZM114.107 23.5V14.7727H115.381V18.0156H115.458C115.531 17.8793 115.638 17.7216 115.777 17.5426C115.916 17.3636 116.11 17.2074 116.357 17.0739C116.604 16.9375 116.931 16.8693 117.337 16.8693C117.865 16.8693 118.337 17.0028 118.752 17.2699C119.166 17.5369 119.492 17.9219 119.727 18.4247C119.966 18.9276 120.085 19.5327 120.085 20.2401C120.085 20.9474 119.968 21.554 119.732 22.0597C119.496 22.5625 119.172 22.9503 118.76 23.223C118.348 23.4929 117.878 23.6278 117.35 23.6278C116.952 23.6278 116.627 23.5611 116.374 23.4276C116.124 23.294 115.928 23.1378 115.786 22.9588C115.644 22.7798 115.534 22.6207 115.458 22.4815H115.351V23.5H114.107ZM115.355 20.2273C115.355 20.6875 115.422 21.0909 115.556 21.4375C115.689 21.7841 115.882 22.0554 116.135 22.2514C116.388 22.4446 116.698 22.5412 117.064 22.5412C117.445 22.5412 117.763 22.4403 118.019 22.2386C118.274 22.0341 118.468 21.7571 118.598 21.4077C118.732 21.0582 118.799 20.6648 118.799 20.2273C118.799 19.7955 118.733 19.4077 118.602 19.0639C118.475 18.7202 118.281 18.4489 118.023 18.25C117.767 18.0511 117.448 17.9517 117.064 17.9517C116.695 17.9517 116.382 18.0469 116.127 18.2372C115.874 18.4276 115.682 18.6932 115.551 19.0341C115.421 19.375 115.355 19.7727 115.355 20.2273ZM123.421 23.6449C123.006 23.6449 122.631 23.5682 122.296 23.4148C121.961 23.2585 121.695 23.0327 121.499 22.7372C121.306 22.4418 121.209 22.0795 121.209 21.6506C121.209 21.2812 121.28 20.9773 121.422 20.7386C121.564 20.5 121.756 20.3111 121.998 20.1719C122.239 20.0327 122.509 19.9276 122.807 19.8565C123.106 19.7855 123.41 19.7315 123.719 19.6946C124.111 19.6491 124.43 19.6122 124.674 19.5838C124.918 19.5526 125.096 19.5028 125.207 19.4347C125.317 19.3665 125.373 19.2557 125.373 19.1023V19.0724C125.373 18.7003 125.268 18.4119 125.057 18.2074C124.85 18.0028 124.54 17.9006 124.128 17.9006C123.699 17.9006 123.361 17.9957 123.114 18.1861C122.87 18.3736 122.701 18.5824 122.607 18.8125L121.41 18.5398C121.552 18.142 121.759 17.821 122.032 17.5767C122.307 17.3295 122.624 17.1506 122.982 17.0398C123.34 16.9261 123.716 16.8693 124.111 16.8693C124.373 16.8693 124.65 16.9006 124.942 16.9631C125.238 17.0227 125.513 17.1335 125.769 17.2955C126.028 17.4574 126.239 17.6889 126.404 17.9901C126.569 18.2884 126.651 18.6761 126.651 19.1534V23.5H125.407V22.6051H125.356C125.273 22.7699 125.15 22.9318 124.985 23.0909C124.82 23.25 124.609 23.3821 124.35 23.4872C124.091 23.5923 123.782 23.6449 123.421 23.6449ZM123.698 22.6222C124.05 22.6222 124.351 22.5526 124.601 22.4134C124.854 22.2741 125.046 22.0923 125.177 21.8679C125.31 21.6406 125.377 21.3977 125.377 21.1392V20.2955C125.332 20.3409 125.243 20.3835 125.113 20.4233C124.985 20.4602 124.839 20.4929 124.674 20.5213C124.509 20.5469 124.349 20.571 124.192 20.5938C124.036 20.6136 123.905 20.6307 123.8 20.6449C123.553 20.6761 123.327 20.7287 123.123 20.8026C122.921 20.8764 122.759 20.983 122.637 21.1222C122.518 21.2585 122.458 21.4403 122.458 21.6676C122.458 21.983 122.574 22.2216 122.807 22.3835C123.04 22.5426 123.337 22.6222 123.698 22.6222ZM131.404 16.9545V17.9773H127.828V16.9545H131.404ZM128.787 15.3864H130.061V21.5781C130.061 21.8253 130.098 22.0114 130.172 22.1364C130.246 22.2585 130.341 22.3423 130.458 22.3878C130.577 22.4304 130.706 22.4517 130.845 22.4517C130.948 22.4517 131.037 22.4446 131.114 22.4304C131.191 22.4162 131.25 22.4048 131.293 22.3963L131.523 23.4489C131.449 23.4773 131.344 23.5057 131.208 23.5341C131.071 23.5653 130.901 23.5824 130.696 23.5852C130.361 23.5909 130.049 23.5312 129.759 23.4062C129.469 23.2812 129.235 23.0881 129.056 22.8267C128.877 22.5653 128.787 22.2372 128.787 21.8423V15.3864ZM135.868 16.9545V17.9773H132.293V16.9545H135.868ZM133.252 15.3864H134.526V21.5781C134.526 21.8253 134.563 22.0114 134.637 22.1364C134.711 22.2585 134.806 22.3423 134.922 22.3878C135.042 22.4304 135.171 22.4517 135.31 22.4517C135.413 22.4517 135.502 22.4446 135.579 22.4304C135.655 22.4162 135.715 22.4048 135.758 22.3963L135.988 23.4489C135.914 23.4773 135.809 23.5057 135.672 23.5341C135.536 23.5653 135.366 23.5824 135.161 23.5852C134.826 23.5909 134.513 23.5312 134.224 23.4062C133.934 23.2812 133.699 23.0881 133.52 22.8267C133.341 22.5653 133.252 22.2372 133.252 21.8423V15.3864ZM140.029 23.6321C139.384 23.6321 138.828 23.4943 138.362 23.2188C137.899 22.9403 137.541 22.5497 137.289 22.0469C137.039 21.5412 136.914 20.9489 136.914 20.2699C136.914 19.5994 137.039 19.0085 137.289 18.4972C137.541 17.9858 137.894 17.5866 138.345 17.2997C138.8 17.0128 139.331 16.8693 139.939 16.8693C140.308 16.8693 140.666 16.9304 141.013 17.0526C141.36 17.1747 141.671 17.3665 141.946 17.6278C142.222 17.8892 142.439 18.2287 142.598 18.6463C142.757 19.0611 142.837 19.5653 142.837 20.1591V20.6108H137.634V19.6562H141.588C141.588 19.321 141.52 19.0241 141.384 18.7656C141.247 18.5043 141.056 18.2983 140.808 18.1477C140.564 17.9972 140.277 17.9219 139.948 17.9219C139.59 17.9219 139.277 18.0099 139.01 18.1861C138.746 18.3594 138.541 18.5866 138.397 18.8679C138.254 19.1463 138.183 19.4489 138.183 19.7756V20.5213C138.183 20.9588 138.26 21.331 138.414 21.6378C138.57 21.9446 138.787 22.179 139.066 22.3409C139.344 22.5 139.669 22.5795 140.041 22.5795C140.283 22.5795 140.503 22.5455 140.702 22.4773C140.901 22.4062 141.073 22.3011 141.218 22.1619C141.362 22.0227 141.473 21.8509 141.55 21.6463L142.756 21.8636C142.659 22.2187 142.486 22.5298 142.236 22.7969C141.989 23.0611 141.678 23.267 141.303 23.4148C140.931 23.5597 140.506 23.6321 140.029 23.6321ZM144.251 23.5V16.9545H145.482V17.9943H145.55C145.67 17.642 145.88 17.3651 146.181 17.1634C146.485 16.9588 146.829 16.8565 147.212 16.8565C147.292 16.8565 147.386 16.8594 147.493 16.8651C147.604 16.8707 147.691 16.8778 147.753 16.8864V18.1051C147.702 18.0909 147.611 18.0753 147.481 18.0582C147.35 18.0384 147.219 18.0284 147.089 18.0284C146.788 18.0284 146.519 18.0923 146.283 18.2202C146.05 18.3452 145.866 18.5199 145.729 18.7443C145.593 18.9659 145.525 19.2187 145.525 19.5028V23.5H144.251ZM149.861 25.9545C149.67 25.9545 149.497 25.9389 149.341 25.9077C149.185 25.8793 149.068 25.848 148.991 25.8139L149.298 24.7699C149.531 24.8324 149.739 24.8594 149.92 24.8509C150.102 24.8423 150.263 24.7741 150.402 24.6463C150.544 24.5185 150.669 24.3097 150.777 24.0199L150.935 23.5852L148.54 16.9545H149.903L151.561 22.0341H151.629L153.287 16.9545H154.655L151.957 24.3736C151.832 24.7145 151.673 25.0028 151.48 25.2386C151.287 25.4773 151.057 25.6563 150.79 25.7756C150.523 25.8949 150.213 25.9545 149.861 25.9545ZM163.174 20.7855V16.9545H164.453V23.5H163.2V22.3665H163.132C162.981 22.7159 162.74 23.0071 162.407 23.2401C162.078 23.4702 161.667 23.5852 161.176 23.5852C160.755 23.5852 160.383 23.4929 160.059 23.3082C159.738 23.1207 159.485 22.8438 159.301 22.4773C159.119 22.1108 159.028 21.6577 159.028 21.1179V16.9545H160.302V20.9645C160.302 21.4105 160.426 21.7656 160.673 22.0298C160.92 22.294 161.241 22.4261 161.636 22.4261C161.875 22.4261 162.112 22.3665 162.348 22.2472C162.586 22.1278 162.784 21.9474 162.94 21.706C163.099 21.4645 163.177 21.1577 163.174 20.7855ZM171.069 18.5526L169.915 18.7571C169.866 18.6094 169.79 18.4687 169.685 18.3352C169.582 18.2017 169.443 18.0923 169.267 18.0071C169.091 17.9219 168.871 17.8793 168.606 17.8793C168.246 17.8793 167.944 17.9602 167.703 18.1222C167.462 18.2812 167.341 18.4872 167.341 18.7401C167.341 18.9588 167.422 19.1349 167.584 19.2685C167.746 19.402 168.007 19.5114 168.368 19.5966L169.408 19.8352C170.01 19.9744 170.459 20.1889 170.754 20.4787C171.05 20.7685 171.197 21.1449 171.197 21.608C171.197 22 171.084 22.3494 170.856 22.6562C170.632 22.9602 170.318 23.1989 169.915 23.3722C169.514 23.5455 169.05 23.6321 168.521 23.6321C167.788 23.6321 167.19 23.4759 166.727 23.1634C166.264 22.848 165.98 22.4006 165.875 21.821L167.106 21.6335C167.183 21.9545 167.341 22.1974 167.579 22.3622C167.818 22.5241 168.129 22.6051 168.513 22.6051C168.93 22.6051 169.264 22.5185 169.514 22.3452C169.764 22.169 169.889 21.9545 169.889 21.7017C169.889 21.4972 169.812 21.3253 169.659 21.1861C169.508 21.0469 169.277 20.9418 168.964 20.8707L167.856 20.6278C167.246 20.4886 166.794 20.267 166.501 19.9631C166.212 19.6591 166.067 19.2741 166.067 18.8082C166.067 18.4219 166.175 18.0838 166.39 17.794C166.606 17.5043 166.905 17.2784 167.285 17.1165C167.666 16.9517 168.102 16.8693 168.594 16.8693C169.301 16.8693 169.858 17.0227 170.264 17.3295C170.67 17.6335 170.939 18.0412 171.069 18.5526ZM175.419 23.6321C174.774 23.6321 174.219 23.4943 173.753 23.2188C173.29 22.9403 172.932 22.5497 172.679 22.0469C172.429 21.5412 172.304 20.9489 172.304 20.2699C172.304 19.5994 172.429 19.0085 172.679 18.4972C172.932 17.9858 173.284 17.5866 173.736 17.2997C174.191 17.0128 174.722 16.8693 175.33 16.8693C175.699 16.8693 176.057 16.9304 176.404 17.0526C176.75 17.1747 177.061 17.3665 177.337 17.6278C177.612 17.8892 177.83 18.2287 177.989 18.6463C178.148 19.0611 178.227 19.5653 178.227 20.1591V20.6108H173.024V19.6562H176.979C176.979 19.321 176.911 19.0241 176.774 18.7656C176.638 18.5043 176.446 18.2983 176.199 18.1477C175.955 17.9972 175.668 17.9219 175.338 17.9219C174.98 17.9219 174.668 18.0099 174.401 18.1861C174.137 18.3594 173.932 18.5866 173.787 18.8679C173.645 19.1463 173.574 19.4489 173.574 19.7756V20.5213C173.574 20.9588 173.651 21.331 173.804 21.6378C173.96 21.9446 174.178 22.179 174.456 22.3409C174.735 22.5 175.06 22.5795 175.432 22.5795C175.674 22.5795 175.894 22.5455 176.093 22.4773C176.291 22.4062 176.463 22.3011 176.608 22.1619C176.753 22.0227 176.864 21.8509 176.941 21.6463L178.147 21.8636C178.05 22.2187 177.877 22.5298 177.627 22.7969C177.379 23.0611 177.068 23.267 176.693 23.4148C176.321 23.5597 175.897 23.6321 175.419 23.6321Z" fill="white"/>
</g>
<defs>
<filter id="filter0_dd_1_3261" x="0.41748" y="0" width="241" height="78" filterUnits="userSpaceOnUse" color-interpolation-filters="sRGB">
<feFlood flood-opacity="0" result="BackgroundImageFix"/>
<feColorMatrix in="SourceAlpha" type="matrix" values="0 0 0 0 0 0 0 0 0 0 0 0 0 0 0 0 0 0 127 0" result="hardAlpha"/>
<feMorphology radius="4" operator="erode" in="SourceAlpha" result="effect1_dropShadow_1_3261"/>
<feOffset dy="8"/>
<feGaussianBlur stdDeviation="4"/>
<feColorMatrix type="matrix" values="0 0 0 0 0.0627451 0 0 0 0 0.0941176 0 0 0 0 0.156863 0 0 0 0.03 0"/>
<feBlend mode="normal" in2="BackgroundImageFix" result="effect1_dropShadow_1_3261"/>
<feColorMatrix in="SourceAlpha" type="matrix" values="0 0 0 0 0 0 0 0 0 0 0 0 0 0 0 0 0 0 127 0" result="hardAlpha"/>
<feMorphology radius="4" operator="erode" in="SourceAlpha" result="effect2_dropShadow_1_3261"/>
<feOffset dy="20"/>
<feGaussianBlur stdDeviation="12"/>
<feColorMatrix type="matrix" values="0 0 0 0 0.0627451 0 0 0 0 0.0941176 0 0 0 0 0.156863 0 0 0 0.08 0"/>
<feBlend mode="normal" in2="effect1_dropShadow_1_3261" result="effect2_dropShadow_1_3261"/>
<feBlend mode="normal" in="SourceGraphic" in2="effect2_dropShadow_1_3261" result="shape"/>
</filter>
</defs>
</svg>
