<svg width="211" height="83" viewBox="0 0 211 83" fill="none" xmlns="http://www.w3.org/2000/svg">
<g filter="url(#filter0_dd_1_3309)">
<rect x="20.0001" width="171" height="43" rx="8" fill="#33895E"/>
<path d="M39.4333 17.1251C39.225 16.6964 38.725 16.5214 38.3167 16.7314C37.7833 17.0114 37.2667 17.4751 36.875 17.8601C36.5333 18.1839 36.5166 18.7439 36.825 19.0939C36.9916 19.2776 37.2166 19.3739 37.4416 19.3739C37.6416 19.3739 37.8416 19.2951 38.0083 19.1464C38.175 18.9889 38.675 18.4989 39.0666 18.2976C39.475 18.0789 39.6416 17.5539 39.4416 17.1251H39.4333Z" fill="white"/>
<path d="M52.9914 17.7025C50.7664 15.6375 47.933 14.5001 45.0164 14.5001C43.6414 14.5001 42.2997 14.7451 41.0164 15.2263C40.9914 15.2351 40.9664 15.2613 40.9414 15.2788L39.7164 13.9051C39.3997 13.5551 38.8747 13.5288 38.5414 13.8613C38.208 14.1938 38.1914 14.7451 38.4997 15.0951L50.1664 28.22C50.333 28.4038 50.5497 28.5 50.7747 28.5C50.9747 28.5 51.183 28.4213 51.3414 28.2638C51.6747 27.9313 51.6914 27.38 51.383 27.03L45.233 20.1088C47.0747 20.17 48.7914 20.9838 50.0997 22.4275C50.2664 22.6113 50.483 22.6988 50.6997 22.6988C50.908 22.6988 51.1164 22.6201 51.2747 22.4539C51.608 22.1214 51.6247 21.57 51.308 21.22C49.633 19.3651 47.3914 18.3501 45.0164 18.3501C44.5997 18.3501 44.183 18.3851 43.7747 18.4463C43.7747 18.4463 43.7664 18.4463 43.758 18.4463L42.183 16.67C43.0997 16.39 44.0497 16.2413 45.0164 16.2413C47.5247 16.2413 49.9664 17.2213 51.8914 19.0063C52.0497 19.1551 52.2497 19.2251 52.4414 19.2251C52.6747 19.2251 52.8997 19.1288 53.0664 18.9276C53.3747 18.5688 53.3414 18.0088 52.9914 17.6938V17.7025Z" fill="white"/>
<path d="M41.8416 19.89C41.6083 19.47 41.1 19.33 40.7 19.575C40.0166 19.9863 39.3916 20.5025 38.8333 21.0975C38.5083 21.4388 38.5166 21.9988 38.8333 22.3313C39 22.4975 39.2083 22.585 39.4166 22.585C39.625 22.585 39.85 22.4975 40.0083 22.3225C40.4666 21.8325 40.975 21.4213 41.525 21.08C41.925 20.835 42.0583 20.3013 41.825 19.8813L41.8416 19.89Z" fill="white"/>
<path d="M44.3916 22.9438C44.2583 22.4801 43.7916 22.2263 43.35 22.3663C42.4833 22.6463 41.6333 23.4863 41.2083 23.9588C40.8916 24.3088 40.9 24.86 41.2416 25.1925C41.4 25.35 41.6083 25.4376 41.8166 25.4376C42.0333 25.4376 42.2583 25.3501 42.4166 25.1663C42.9333 24.5976 43.4916 24.1601 43.8416 24.0463C44.2833 23.9063 44.525 23.4163 44.3916 22.9526V22.9438Z" fill="white"/>
<path d="M44.9412 28.4651C45.5165 28.4651 45.9829 27.9754 45.9829 27.3713C45.9829 26.7673 45.5165 26.2776 44.9412 26.2776C44.3659 26.2776 43.8995 26.7673 43.8995 27.3713C43.8995 27.9754 44.3659 28.4651 44.9412 28.4651Z" fill="white"/>
<path d="M73.003 17.2727V26H71.7927L67.3567 19.5994H67.2757V26H65.9589V17.2727H67.1777L71.618 23.6818H71.699V17.2727H73.003ZM77.5786 26.1321C76.965 26.1321 76.4295 25.9915 75.9721 25.7102C75.5147 25.429 75.1596 25.0355 74.9067 24.5298C74.6539 24.0241 74.5275 23.4332 74.5275 22.7571C74.5275 22.0781 74.6539 21.4844 74.9067 20.9759C75.1596 20.4673 75.5147 20.0724 75.9721 19.7912C76.4295 19.5099 76.965 19.3693 77.5786 19.3693C78.1922 19.3693 78.7277 19.5099 79.1851 19.7912C79.6425 20.0724 79.9976 20.4673 80.2505 20.9759C80.5033 21.4844 80.6297 22.0781 80.6297 22.7571C80.6297 23.4332 80.5033 24.0241 80.2505 24.5298C79.9976 25.0355 79.6425 25.429 79.1851 25.7102C78.7277 25.9915 78.1922 26.1321 77.5786 26.1321ZM77.5829 25.0625C77.9806 25.0625 78.3101 24.9574 78.5715 24.7472C78.8329 24.5369 79.026 24.2571 79.151 23.9077C79.2789 23.5582 79.3428 23.1733 79.3428 22.7528C79.3428 22.3352 79.2789 21.9517 79.151 21.6023C79.026 21.25 78.8329 20.9673 78.5715 20.7543C78.3101 20.5412 77.9806 20.4347 77.5829 20.4347C77.1823 20.4347 76.8499 20.5412 76.5857 20.7543C76.3243 20.9673 76.1297 21.25 76.0019 21.6023C75.8769 21.9517 75.8144 22.3352 75.8144 22.7528C75.8144 23.1733 75.8769 23.5582 76.0019 23.9077C76.1297 24.2571 76.3243 24.5369 76.5857 24.7472C76.8499 24.9574 77.1823 25.0625 77.5829 25.0625ZM85.2277 26V19.4545H86.5019V26H85.2277ZM85.8712 18.4446C85.6496 18.4446 85.4593 18.3707 85.3002 18.223C85.1439 18.0724 85.0658 17.8935 85.0658 17.6861C85.0658 17.4759 85.1439 17.2969 85.3002 17.1491C85.4593 16.9986 85.6496 16.9233 85.8712 16.9233C86.0928 16.9233 86.2817 16.9986 86.438 17.1491C86.5971 17.2969 86.6766 17.4759 86.6766 17.6861C86.6766 17.8935 86.5971 18.0724 86.438 18.223C86.2817 18.3707 86.0928 18.4446 85.8712 18.4446ZM89.4902 22.1136V26H88.216V19.4545H89.439V20.5199H89.52C89.6706 20.1733 89.9064 19.8949 90.2274 19.6847C90.5513 19.4744 90.9589 19.3693 91.4504 19.3693C91.8964 19.3693 92.2871 19.4631 92.6223 19.6506C92.9575 19.8352 93.2175 20.1108 93.4021 20.4773C93.5868 20.8437 93.6791 21.2969 93.6791 21.8366V26H92.405V21.9901C92.405 21.5156 92.2814 21.1449 92.0342 20.8778C91.7871 20.608 91.4476 20.473 91.0157 20.473C90.7203 20.473 90.4575 20.5369 90.2274 20.6648C90.0001 20.7926 89.8197 20.9801 89.6862 21.2273C89.5555 21.4716 89.4902 21.767 89.4902 22.1136ZM98.4433 19.4545V20.4773H94.868V19.4545H98.4433ZM95.8268 17.8864H97.101V24.0781C97.101 24.3253 97.1379 24.5114 97.2118 24.6364C97.2856 24.7585 97.3808 24.8423 97.4973 24.8878C97.6166 24.9304 97.7459 24.9517 97.8851 24.9517C97.9873 24.9517 98.0768 24.9446 98.1535 24.9304C98.2302 24.9162 98.2899 24.9048 98.3325 24.8963L98.5626 25.9489C98.4888 25.9773 98.3836 26.0057 98.2473 26.0341C98.1109 26.0653 97.9405 26.0824 97.7359 26.0852C97.4007 26.0909 97.0882 26.0312 96.7984 25.9062C96.5086 25.7812 96.2743 25.5881 96.0953 25.3267C95.9163 25.0653 95.8268 24.7372 95.8268 24.3423V17.8864ZM102.603 26.1321C101.959 26.1321 101.403 25.9943 100.937 25.7188C100.474 25.4403 100.116 25.0497 99.8634 24.5469C99.6134 24.0412 99.4884 23.4489 99.4884 22.7699C99.4884 22.0994 99.6134 21.5085 99.8634 20.9972C100.116 20.4858 100.469 20.0866 100.92 19.7997C101.375 19.5128 101.906 19.3693 102.514 19.3693C102.883 19.3693 103.241 19.4304 103.588 19.5526C103.934 19.6747 104.246 19.8665 104.521 20.1278C104.797 20.3892 105.014 20.7287 105.173 21.1463C105.332 21.5611 105.412 22.0653 105.412 22.6591V23.1108H100.209V22.1562H104.163C104.163 21.821 104.095 21.5241 103.959 21.2656C103.822 21.0043 103.63 20.7983 103.383 20.6477C103.139 20.4972 102.852 20.4219 102.522 20.4219C102.165 20.4219 101.852 20.5099 101.585 20.6861C101.321 20.8594 101.116 21.0866 100.971 21.3679C100.829 21.6463 100.758 21.9489 100.758 22.2756V23.0213C100.758 23.4588 100.835 23.831 100.988 24.1378C101.145 24.4446 101.362 24.679 101.64 24.8409C101.919 25 102.244 25.0795 102.616 25.0795C102.858 25.0795 103.078 25.0455 103.277 24.9773C103.476 24.9062 103.647 24.8011 103.792 24.6619C103.937 24.5227 104.048 24.3509 104.125 24.1463L105.331 24.3636C105.234 24.7187 105.061 25.0298 104.811 25.2969C104.564 25.5611 104.253 25.767 103.878 25.9148C103.505 26.0597 103.081 26.1321 102.603 26.1321ZM106.825 26V19.4545H108.057V20.4943H108.125C108.244 20.142 108.455 19.8651 108.756 19.6634C109.06 19.4588 109.404 19.3565 109.787 19.3565C109.867 19.3565 109.96 19.3594 110.068 19.3651C110.179 19.3707 110.266 19.3778 110.328 19.3864V20.6051C110.277 20.5909 110.186 20.5753 110.056 20.5582C109.925 20.5384 109.794 20.5284 109.663 20.5284C109.362 20.5284 109.094 20.5923 108.858 20.7202C108.625 20.8452 108.44 21.0199 108.304 21.2443C108.168 21.4659 108.1 21.7187 108.1 22.0028V26H106.825ZM112.705 22.1136V26H111.431V19.4545H112.654V20.5199H112.735C112.885 20.1733 113.121 19.8949 113.442 19.6847C113.766 19.4744 114.174 19.3693 114.665 19.3693C115.111 19.3693 115.502 19.4631 115.837 19.6506C116.172 19.8352 116.432 20.1108 116.617 20.4773C116.802 20.8437 116.894 21.2969 116.894 21.8366V26H115.62V21.9901C115.62 21.5156 115.496 21.1449 115.249 20.8778C115.002 20.608 114.662 20.473 114.231 20.473C113.935 20.473 113.672 20.5369 113.442 20.6648C113.215 20.7926 113.035 20.9801 112.901 21.2273C112.77 21.4716 112.705 21.767 112.705 22.1136ZM121.424 26.1321C120.779 26.1321 120.223 25.9943 119.758 25.7188C119.295 25.4403 118.937 25.0497 118.684 24.5469C118.434 24.0412 118.309 23.4489 118.309 22.7699C118.309 22.0994 118.434 21.5085 118.684 20.9972C118.937 20.4858 119.289 20.0866 119.741 19.7997C120.195 19.5128 120.726 19.3693 121.334 19.3693C121.704 19.3693 122.062 19.4304 122.408 19.5526C122.755 19.6747 123.066 19.8665 123.341 20.1278C123.617 20.3892 123.834 20.7287 123.993 21.1463C124.152 21.5611 124.232 22.0653 124.232 22.6591V23.1108H119.029V22.1562H122.983C122.983 21.821 122.915 21.5241 122.779 21.2656C122.643 21.0043 122.451 20.7983 122.204 20.6477C121.959 20.4972 121.672 20.4219 121.343 20.4219C120.985 20.4219 120.672 20.5099 120.405 20.6861C120.141 20.8594 119.937 21.0866 119.792 21.3679C119.65 21.6463 119.579 21.9489 119.579 22.2756V23.0213C119.579 23.4588 119.655 23.831 119.809 24.1378C119.965 24.4446 120.182 24.679 120.461 24.8409C120.739 25 121.064 25.0795 121.437 25.0795C121.678 25.0795 121.898 25.0455 122.097 24.9773C122.296 24.9062 122.468 24.8011 122.613 24.6619C122.758 24.5227 122.868 24.3509 122.945 24.1463L124.151 24.3636C124.054 24.7187 123.881 25.0298 123.631 25.2969C123.384 25.5611 123.073 25.767 122.698 25.9148C122.326 26.0597 121.901 26.1321 121.424 26.1321ZM128.701 19.4545V20.4773H125.126V19.4545H128.701ZM126.085 17.8864H127.359V24.0781C127.359 24.3253 127.396 24.5114 127.47 24.6364C127.543 24.7585 127.639 24.8423 127.755 24.8878C127.874 24.9304 128.004 24.9517 128.143 24.9517C128.245 24.9517 128.335 24.9446 128.411 24.9304C128.488 24.9162 128.548 24.9048 128.59 24.8963L128.82 25.9489C128.747 25.9773 128.641 26.0057 128.505 26.0341C128.369 26.0653 128.198 26.0824 127.994 26.0852C127.659 26.0909 127.346 26.0312 127.056 25.9062C126.766 25.7812 126.532 25.5881 126.353 25.3267C126.174 25.0653 126.085 24.7372 126.085 24.3423V17.8864ZM134.56 22.1136V26H133.286V19.4545H134.509V20.5199H134.59C134.741 20.1733 134.977 19.8949 135.298 19.6847C135.622 19.4744 136.029 19.3693 136.521 19.3693C136.967 19.3693 137.357 19.4631 137.693 19.6506C138.028 19.8352 138.288 20.1108 138.472 20.4773C138.657 20.8437 138.749 21.2969 138.749 21.8366V26H137.475V21.9901C137.475 21.5156 137.352 21.1449 137.105 20.8778C136.857 20.608 136.518 20.473 136.086 20.473C135.791 20.473 135.528 20.5369 135.298 20.6648C135.07 20.7926 134.89 20.9801 134.757 21.2273C134.626 21.4716 134.56 21.767 134.56 22.1136ZM143.279 26.1321C142.634 26.1321 142.079 25.9943 141.613 25.7188C141.15 25.4403 140.792 25.0497 140.539 24.5469C140.289 24.0412 140.164 23.4489 140.164 22.7699C140.164 22.0994 140.289 21.5085 140.539 20.9972C140.792 20.4858 141.144 20.0866 141.596 19.7997C142.051 19.5128 142.582 19.3693 143.19 19.3693C143.559 19.3693 143.917 19.4304 144.264 19.5526C144.61 19.6747 144.921 19.8665 145.197 20.1278C145.472 20.3892 145.69 20.7287 145.849 21.1463C146.008 21.5611 146.087 22.0653 146.087 22.6591V23.1108H140.884V22.1562H144.839C144.839 21.821 144.771 21.5241 144.634 21.2656C144.498 21.0043 144.306 20.7983 144.059 20.6477C143.815 20.4972 143.528 20.4219 143.198 20.4219C142.84 20.4219 142.528 20.5099 142.261 20.6861C141.997 20.8594 141.792 21.0866 141.647 21.3679C141.505 21.6463 141.434 21.9489 141.434 22.2756V23.0213C141.434 23.4588 141.511 23.831 141.664 24.1378C141.82 24.4446 142.038 24.679 142.316 24.8409C142.595 25 142.92 25.0795 143.292 25.0795C143.534 25.0795 143.754 25.0455 143.953 24.9773C144.151 24.9062 144.323 24.8011 144.468 24.6619C144.613 24.5227 144.724 24.3509 144.801 24.1463L146.007 24.3636C145.91 24.7187 145.737 25.0298 145.487 25.2969C145.239 25.5611 144.928 25.767 144.553 25.9148C144.181 26.0597 143.757 26.1321 143.279 26.1321ZM150.322 26.1321C149.677 26.1321 149.122 25.9943 148.656 25.7188C148.193 25.4403 147.835 25.0497 147.582 24.5469C147.332 24.0412 147.207 23.4489 147.207 22.7699C147.207 22.0994 147.332 21.5085 147.582 20.9972C147.835 20.4858 148.187 20.0866 148.639 19.7997C149.094 19.5128 149.625 19.3693 150.233 19.3693C150.602 19.3693 150.96 19.4304 151.307 19.5526C151.653 19.6747 151.964 19.8665 152.24 20.1278C152.515 20.3892 152.733 20.7287 152.892 21.1463C153.051 21.5611 153.13 22.0653 153.13 22.6591V23.1108H147.927V22.1562H151.882C151.882 21.821 151.814 21.5241 151.677 21.2656C151.541 21.0043 151.349 20.7983 151.102 20.6477C150.858 20.4972 150.571 20.4219 150.241 20.4219C149.883 20.4219 149.571 20.5099 149.304 20.6861C149.04 20.8594 148.835 21.0866 148.69 21.3679C148.548 21.6463 148.477 21.9489 148.477 22.2756V23.0213C148.477 23.4588 148.554 23.831 148.707 24.1378C148.863 24.4446 149.081 24.679 149.359 24.8409C149.638 25 149.963 25.0795 150.335 25.0795C150.576 25.0795 150.797 25.0455 150.996 24.9773C151.194 24.9062 151.366 24.8011 151.511 24.6619C151.656 24.5227 151.767 24.3509 151.844 24.1463L153.049 24.3636C152.953 24.7187 152.78 25.0298 152.53 25.2969C152.282 25.5611 151.971 25.767 151.596 25.9148C151.224 26.0597 150.799 26.1321 150.322 26.1321ZM156.994 26.1278C156.466 26.1278 155.994 25.9929 155.58 25.723C155.168 25.4503 154.844 25.0625 154.608 24.5597C154.375 24.054 154.259 23.4474 154.259 22.7401C154.259 22.0327 154.377 21.4276 154.612 20.9247C154.851 20.4219 155.178 20.0369 155.592 19.7699C156.007 19.5028 156.477 19.3693 157.003 19.3693C157.409 19.3693 157.736 19.4375 157.983 19.5739C158.233 19.7074 158.426 19.8636 158.563 20.0426C158.702 20.2216 158.81 20.3793 158.886 20.5156H158.963V17.2727H160.237V26H158.993V24.9815H158.886C158.81 25.1207 158.699 25.2798 158.554 25.4588C158.412 25.6378 158.216 25.794 157.966 25.9276C157.716 26.0611 157.392 26.1278 156.994 26.1278ZM157.276 25.0412C157.642 25.0412 157.952 24.9446 158.205 24.7514C158.46 24.5554 158.654 24.2841 158.784 23.9375C158.918 23.5909 158.984 23.1875 158.984 22.7273C158.984 22.2727 158.919 21.875 158.788 21.5341C158.658 21.1932 158.466 20.9276 158.213 20.7372C157.96 20.5469 157.648 20.4517 157.276 20.4517C156.892 20.4517 156.573 20.5511 156.317 20.75C156.061 20.9489 155.868 21.2202 155.737 21.5639C155.609 21.9077 155.546 22.2955 155.546 22.7273C155.546 23.1648 155.611 23.5582 155.742 23.9077C155.872 24.2571 156.065 24.5341 156.321 24.7386C156.58 24.9403 156.898 25.0412 157.276 25.0412ZM164.877 26.1321C164.232 26.1321 163.677 25.9943 163.211 25.7188C162.748 25.4403 162.39 25.0497 162.137 24.5469C161.887 24.0412 161.762 23.4489 161.762 22.7699C161.762 22.0994 161.887 21.5085 162.137 20.9972C162.39 20.4858 162.742 20.0866 163.194 19.7997C163.648 19.5128 164.179 19.3693 164.787 19.3693C165.157 19.3693 165.515 19.4304 165.861 19.5526C166.208 19.6747 166.519 19.8665 166.795 20.1278C167.07 20.3892 167.287 20.7287 167.447 21.1463C167.606 21.5611 167.685 22.0653 167.685 22.6591V23.1108H162.482V22.1562H166.437C166.437 21.821 166.368 21.5241 166.232 21.2656C166.096 21.0043 165.904 20.7983 165.657 20.6477C165.412 20.4972 165.125 20.4219 164.796 20.4219C164.438 20.4219 164.125 20.5099 163.858 20.6861C163.594 20.8594 163.39 21.0866 163.245 21.3679C163.103 21.6463 163.032 21.9489 163.032 22.2756V23.0213C163.032 23.4588 163.108 23.831 163.262 24.1378C163.418 24.4446 163.635 24.679 163.914 24.8409C164.192 25 164.518 25.0795 164.89 25.0795C165.131 25.0795 165.351 25.0455 165.55 24.9773C165.749 24.9062 165.921 24.8011 166.066 24.6619C166.211 24.5227 166.322 24.3509 166.398 24.1463L167.604 24.3636C167.508 24.7187 167.334 25.0298 167.084 25.2969C166.837 25.5611 166.526 25.767 166.151 25.9148C165.779 26.0597 165.354 26.1321 164.877 26.1321ZM171.549 26.1278C171.021 26.1278 170.549 25.9929 170.134 25.723C169.722 25.4503 169.399 25.0625 169.163 24.5597C168.93 24.054 168.813 23.4474 168.813 22.7401C168.813 22.0327 168.931 21.4276 169.167 20.9247C169.406 20.4219 169.732 20.0369 170.147 19.7699C170.562 19.5028 171.032 19.3693 171.558 19.3693C171.964 19.3693 172.291 19.4375 172.538 19.5739C172.788 19.7074 172.981 19.8636 173.117 20.0426C173.257 20.2216 173.364 20.3793 173.441 20.5156H173.518V17.2727H174.792V26H173.548V24.9815H173.441C173.364 25.1207 173.254 25.2798 173.109 25.4588C172.967 25.6378 172.771 25.794 172.521 25.9276C172.271 26.0611 171.947 26.1278 171.549 26.1278ZM171.83 25.0412C172.197 25.0412 172.507 24.9446 172.759 24.7514C173.015 24.5554 173.208 24.2841 173.339 23.9375C173.472 23.5909 173.539 23.1875 173.539 22.7273C173.539 22.2727 173.474 21.875 173.343 21.5341C173.212 21.1932 173.021 20.9276 172.768 20.7372C172.515 20.5469 172.203 20.4517 171.83 20.4517C171.447 20.4517 171.127 20.5511 170.872 20.75C170.616 20.9489 170.423 21.2202 170.292 21.5639C170.164 21.9077 170.1 22.2955 170.1 22.7273C170.1 23.1648 170.166 23.5582 170.296 23.9077C170.427 24.2571 170.62 24.5341 170.876 24.7386C171.134 24.9403 171.453 25.0412 171.83 25.0412Z" fill="white"/>
</g>
<defs>
<filter id="filter0_dd_1_3309" x="0.00012207" y="0" width="211" height="83" filterUnits="userSpaceOnUse" color-interpolation-filters="sRGB">
<feFlood flood-opacity="0" result="BackgroundImageFix"/>
<feColorMatrix in="SourceAlpha" type="matrix" values="0 0 0 0 0 0 0 0 0 0 0 0 0 0 0 0 0 0 127 0" result="hardAlpha"/>
<feMorphology radius="4" operator="erode" in="SourceAlpha" result="effect1_dropShadow_1_3309"/>
<feOffset dy="8"/>
<feGaussianBlur stdDeviation="4"/>
<feColorMatrix type="matrix" values="0 0 0 0 0.0627451 0 0 0 0 0.0941176 0 0 0 0 0.156863 0 0 0 0.03 0"/>
<feBlend mode="normal" in2="BackgroundImageFix" result="effect1_dropShadow_1_3309"/>
<feColorMatrix in="SourceAlpha" type="matrix" values="0 0 0 0 0 0 0 0 0 0 0 0 0 0 0 0 0 0 127 0" result="hardAlpha"/>
<feMorphology radius="4" operator="erode" in="SourceAlpha" result="effect2_dropShadow_1_3309"/>
<feOffset dy="20"/>
<feGaussianBlur stdDeviation="12"/>
<feColorMatrix type="matrix" values="0 0 0 0 0.0627451 0 0 0 0 0.0941176 0 0 0 0 0.156863 0 0 0 0.08 0"/>
<feBlend mode="normal" in2="effect1_dropShadow_1_3309" result="effect2_dropShadow_1_3309"/>
<feBlend mode="normal" in="SourceGraphic" in2="effect2_dropShadow_1_3309" result="shape"/>
</filter>
</defs>
</svg>
