<svg width="73" height="73" viewBox="0 0 73 73" fill="none" xmlns="http://www.w3.org/2000/svg">
<g clip-path="url(#clip0_5_5234)">
<path d="M28.8024 51.1573C28.5267 51.1573 28.2489 51.0625 28.0223 50.8695L20.2235 44.2289C19.9545 43.9995 19.7998 43.6646 19.7998 43.3108C19.7998 42.9578 19.9552 42.6228 20.2235 42.3935L28.0223 35.7529C28.5287 35.3211 29.2893 35.3823 29.7211 35.8887C30.1522 36.3958 30.0917 37.1564 29.5846 37.5875L22.8639 43.3108L29.5846 49.0341C30.0917 49.4659 30.1522 50.2266 29.7211 50.733C29.4823 51.0134 29.1434 51.1573 28.8024 51.1573Z" fill="#BBD7A7"/>
<path d="M44.198 51.1573C43.857 51.1573 43.518 51.0134 43.28 50.733C42.8482 50.2266 42.9094 49.4659 43.4158 49.0341L50.1365 43.3108L43.4158 37.5875C42.9094 37.1564 42.8482 36.3958 43.28 35.8887C43.7111 35.3823 44.4724 35.3211 44.9781 35.7529L52.7769 42.3935C53.0459 42.6228 53.2006 42.9578 53.2006 43.3108C53.2006 43.6646 53.0459 43.9995 52.7769 44.2289L44.9781 50.8695C44.7515 51.0625 44.4737 51.1573 44.198 51.1573Z" fill="#BBD7A7"/>
<path d="M33.7393 56.1381C33.6566 56.1381 33.5732 56.1294 33.4891 56.1119C32.8381 55.9747 32.4211 55.3351 32.5583 54.6841L37.4188 31.6073C37.556 30.9563 38.1949 30.5393 38.8466 30.6765C39.4976 30.8137 39.9146 31.4526 39.7774 32.1043L34.9169 55.1811C34.7972 55.7487 34.2969 56.1381 33.7393 56.1381Z" fill="#BBD7A7"/>
<path d="M64.908 68.7105H8.09198C3.63036 68.7105 0 65.0808 0 60.6185V12.3962C0 7.93456 3.63036 4.3042 8.09198 4.3042H64.908C69.3696 4.3042 73 7.93456 73 12.3962V60.6185C73 65.0808 69.3696 68.7105 64.908 68.7105ZM8.09198 6.71458C4.9593 6.71458 2.41038 9.2635 2.41038 12.3962V60.6185C2.41038 63.7512 4.9593 66.3001 8.09198 66.3001H64.908C68.0407 66.3001 70.5896 63.7512 70.5896 60.6185V12.3962C70.5896 9.2635 68.0407 6.71458 64.908 6.71458H8.09198Z" fill="#BBD7A7"/>
<path d="M71.7948 23.6028H1.20519C0.539376 23.6028 0 23.0634 0 22.3976C0 21.7324 0.539376 21.1924 1.20519 21.1924H71.7948C72.4606 21.1924 73 21.7324 73 22.3976C73 23.0634 72.4606 23.6028 71.7948 23.6028Z" fill="#BBD7A7"/>
<path d="M20.5913 17.8357C18.489 17.8357 16.7773 16.1241 16.7773 14.0217C16.7773 11.9187 18.489 10.2078 20.5913 10.2078C22.6943 10.2078 24.4053 11.9187 24.4053 14.0217C24.4053 16.1241 22.6943 17.8357 20.5913 17.8357ZM20.5913 12.6181C19.8179 12.6181 19.1877 13.2476 19.1877 14.0217C19.1877 14.7958 19.8179 15.4253 20.5913 15.4253C21.3654 15.4253 21.9949 14.7958 21.9949 14.0217C21.9949 13.2476 21.3654 12.6181 20.5913 12.6181Z" fill="#BBD7A7"/>
<path d="M8.87354 17.7987C6.77051 17.7987 5.05957 16.0878 5.05957 13.9847C5.05957 11.8817 6.77051 10.1708 8.87354 10.1708C10.9766 10.1708 12.6875 11.8817 12.6875 13.9847C12.6875 16.0878 10.9766 17.7987 8.87354 17.7987ZM8.87354 12.5812C8.10012 12.5812 7.46995 13.2113 7.46995 13.9847C7.46995 14.7588 8.10012 15.3883 8.87354 15.3883C9.64763 15.3883 10.2771 14.7588 10.2771 13.9847C10.2771 13.2113 9.64763 12.5812 8.87354 12.5812Z" fill="#BBD7A7"/>
<path d="M32.3104 17.872C30.208 17.872 28.4971 16.1611 28.4971 14.058C28.4971 11.9557 30.208 10.2448 32.3104 10.2448C34.4134 10.2448 36.1243 11.9557 36.1243 14.058C36.1243 16.1611 34.4134 17.872 32.3104 17.872ZM32.3104 12.6545C31.5369 12.6545 30.9074 13.284 30.9074 14.058C30.9074 14.8321 31.5369 15.4616 32.3104 15.4616C33.0845 15.4616 33.714 14.8321 33.714 14.058C33.714 13.284 33.0845 12.6545 32.3104 12.6545Z" fill="#BBD7A7"/>
</g>
<defs>
<clipPath id="clip0_5_5234">
<rect width="73" height="73" fill="white"/>
</clipPath>
</defs>
</svg>
