<svg width="25" height="24" viewBox="0 0 25 24" fill="none" xmlns="http://www.w3.org/2000/svg">
<path fill-rule="evenodd" clip-rule="evenodd" d="M12.4999 21.5999C17.8018 21.5999 22.0999 17.3018 22.0999 11.9999C22.0999 6.69797 17.8018 2.3999 12.4999 2.3999C7.19797 2.3999 2.8999 6.69797 2.8999 11.9999C2.8999 17.3018 7.19797 21.5999 12.4999 21.5999ZM5.69805 9.63279C6.14641 8.34423 6.95059 7.22227 7.99295 6.38457C8.31441 6.87549 8.86929 7.19979 9.49992 7.19979C10.494 7.19979 11.2999 8.00568 11.2999 8.99979V9.59979C11.2999 10.9253 12.3744 11.9998 13.6999 11.9998C15.0254 11.9998 16.0999 10.9253 16.0999 9.59979C16.0999 8.47165 16.8783 7.52531 17.9273 7.26853C19.0312 8.53383 19.6999 10.1887 19.6999 11.9998C19.6999 12.4087 19.6658 12.8097 19.6003 13.2H18.4999C17.1744 13.2 16.0999 14.2745 16.0999 15.6V18.2366C15.0409 18.8492 13.8112 19.1998 12.4998 19.1998V16.7999C12.4998 15.4744 11.4253 14.3999 10.0998 14.3999C8.77432 14.3999 7.6998 13.3254 7.6998 11.9999C7.6998 10.8101 6.83399 9.8225 5.69805 9.63279Z" fill="white"/>
</svg>
