<svg width="24" height="24" viewBox="0 0 24 24" fill="none" xmlns="http://www.w3.org/2000/svg">
<path fill-rule="evenodd" clip-rule="evenodd" d="M12 21.5999C17.302 21.5999 21.6 17.3018 21.6 11.9999C21.6 6.69797 17.302 2.3999 12 2.3999C6.69809 2.3999 2.40002 6.69797 2.40002 11.9999C2.40002 17.3018 6.69809 21.5999 12 21.5999ZM5.19817 9.63279C5.64653 8.34423 6.45072 7.22227 7.49307 6.38457C7.81454 6.87549 8.36942 7.19979 9.00004 7.19979C9.99415 7.19979 10.8 8.00568 10.8 8.99979V9.59979C10.8 10.9253 11.8746 11.9998 13.2 11.9998C14.5255 11.9998 15.6 10.9253 15.6 9.59979C15.6 8.47165 16.3784 7.52531 17.4274 7.26853C18.5314 8.53383 19.2 10.1887 19.2 11.9998C19.2 12.4087 19.166 12.8097 19.1005 13.2H18C16.6745 13.2 15.6 14.2745 15.6 15.6V18.2366C14.541 18.8492 13.3113 19.1998 11.9999 19.1998V16.7999C11.9999 15.4744 10.9254 14.3999 9.59992 14.3999C8.27444 14.3999 7.19992 13.3254 7.19992 11.9999C7.19992 10.8101 6.33412 9.8225 5.19817 9.63279Z" fill="#4C5651"/>
</svg>
