<svg width="41" height="33" viewBox="0 0 41 33" fill="none" xmlns="http://www.w3.org/2000/svg">
<path fill-rule="evenodd" clip-rule="evenodd" d="M3.71368 14.3266C14.1497 9.88639 21.1088 6.95914 24.5907 5.54495C34.5324 1.50694 36.5982 0.80544 37.9446 0.782225C38.2408 0.777173 38.9029 0.848866 39.3318 1.18876C39.9681 1.69293 39.9717 2.7873 39.9011 3.5116C39.3623 9.03946 37.0312 22.4539 35.8452 28.6452C35.3433 31.2649 34.3552 32.1434 33.3987 32.2293C31.3199 32.4161 29.7412 30.8876 27.7277 29.5988C24.577 27.5818 22.7969 26.3263 19.7385 24.3582C16.2041 22.0837 18.4954 20.8337 20.5096 18.7906C21.0368 18.256 30.1964 10.12 30.3737 9.38194C30.3959 9.28963 30.4165 8.9455 30.2072 8.76388C29.9978 8.58226 29.6889 8.64426 29.466 8.69369C29.15 8.76375 24.1166 12.0126 14.3659 18.4401C12.9372 19.3982 11.6431 19.8649 10.4837 19.8405C9.20543 19.8136 6.74678 19.1348 4.91895 18.5545C2.67705 17.8429 0.89522 17.4666 1.05044 16.258C1.13127 15.6284 2.01897 14.9846 3.71368 14.3266Z" stroke="black" stroke-width="1.7" stroke-miterlimit="10" stroke-linecap="round" stroke-linejoin="round"/>
</svg>
