<svg width="41" height="43" viewBox="0 0 41 43" fill="none" xmlns="http://www.w3.org/2000/svg">
<g clip-path="url(#clip0_1_19452)">
<path d="M20.5684 0.650391L21.6162 0.665039C26.8338 0.772753 31.6576 1.3776 34.4844 2.64746V2.64844L34.4902 2.65039H34.4893L34.4971 2.65332C34.5049 2.65693 34.5186 2.66381 34.5371 2.67285C34.5745 2.6911 34.6329 2.72029 34.709 2.76172C34.862 2.84499 35.0867 2.97686 35.3594 3.16406C35.9052 3.53876 36.6404 4.13446 37.3779 5.00781C38.8447 6.74488 40.3485 9.61316 40.3486 14.1172V14.2002C40.349 14.2507 40.3495 14.3262 40.3496 14.4238C40.3499 14.619 40.3494 14.9038 40.3457 15.2607C40.3383 15.9751 40.3187 16.9776 40.2695 18.1279C40.1832 20.1479 40.0065 22.602 39.6523 24.751L39.4893 25.6514C39.2379 26.9163 38.0614 28.3777 36.1572 29.6289C34.3963 30.7859 32.1068 31.6987 29.6416 32.0635L29.1465 32.1289C26.4523 32.4434 23.8408 32.7283 21.0889 32.6533L20.5361 32.6328C18.1026 32.5237 15.9235 32.2397 14.3525 31.9824C13.5675 31.8539 12.9353 31.7317 12.501 31.6426C12.2841 31.5981 12.1165 31.5622 12.0039 31.5371C11.9476 31.5246 11.905 31.5143 11.877 31.5078C11.8629 31.5046 11.8524 31.5026 11.8457 31.501C11.8426 31.5003 11.8404 31.4994 11.8389 31.499H11.8369L11.0352 31.3076V32.1309C11.0352 32.6255 11.0664 33.1016 11.1299 33.5518V33.5527C11.3029 34.8372 11.7215 35.8607 12.3477 36.6641C12.9736 37.467 13.7796 38.0142 14.6709 38.3896C16.2026 39.0347 18.0476 39.193 19.7979 39.2666L20.541 39.2939H20.542C22.6037 39.3629 24.5435 39.1148 25.9629 38.8516C26.5896 38.7353 27.1177 38.6135 27.5137 38.5156L27.6201 40.8086C27.5898 40.8216 27.5584 40.8374 27.5244 40.8516C27.203 40.9857 26.718 41.1704 26.0791 41.3643C24.9608 41.7035 23.3708 42.071 21.3594 42.2461L20.4717 42.3086C17.9546 42.4439 14.8568 42.2683 11.2598 41.4121L10.5332 41.2314C6.46172 40.1771 4.07634 37.5459 2.66016 34.0293C1.31915 30.6993 0.860231 26.5991 0.714844 22.3516L0.689453 21.5V21.499C0.620598 18.8017 0.663086 16.267 0.663086 14.1172C0.663174 9.61317 2.16692 6.74488 3.63379 5.00781C4.37129 4.13451 5.10655 3.53875 5.65234 3.16406C5.92502 2.97688 6.14976 2.84498 6.30273 2.76172C6.37886 2.72029 6.4372 2.69109 6.47461 2.67285C6.49321 2.66378 6.50684 2.65693 6.51465 2.65332C6.5172 2.65214 6.51918 2.65099 6.52051 2.65039L6.52148 2.65137L6.52637 2.64844C9.35322 1.37839 14.1742 0.772793 19.3916 0.665039L20.4404 0.650391H20.5684Z" stroke="white" stroke-width="1.3"/>
<path d="M26.127 8.5498C27.752 8.5498 29.0266 9.1182 30.0059 10.2178V10.2168C30.9505 11.3142 31.4502 12.8264 31.4502 14.8125V24.4502H28.5439V15.1123C28.5439 14.0069 28.3144 13.0725 27.7637 12.4082C27.1968 11.7245 26.3683 11.4199 25.3818 11.4199C24.2898 11.4199 23.3881 11.783 22.7793 12.5713C22.1912 13.3329 21.9414 14.4091 21.9414 15.7061V20.5684H19.0586V15.7061C19.0586 14.4091 18.8089 13.3329 18.2207 12.5713C17.6119 11.7831 16.7102 11.4199 15.6182 11.4199C14.6317 11.4199 13.8032 11.7245 13.2363 12.4082C12.6856 13.0725 12.4561 14.0069 12.4561 15.1123V24.4502H9.5498V14.8125C9.5498 12.8268 10.0497 11.3152 10.9941 10.2178C11.9732 9.11825 13.2478 8.5498 14.873 8.5498C16.6389 8.54986 17.9524 9.17877 18.8633 10.4229L19.04 10.6807L20.0264 12.3477L20.5 13.1465L20.9736 12.3477L21.9648 10.6719C22.8791 9.26267 24.2467 8.54992 26.127 8.5498Z" fill="white" stroke="white" stroke-width="1.1"/>
</g>
<defs>
<clipPath id="clip0_1_19452">
<rect width="41" height="43" fill="white"/>
</clipPath>
</defs>
</svg>
