<svg width="37" height="37" viewBox="0 0 37 37" fill="none" xmlns="http://www.w3.org/2000/svg">
<g clip-path="url(#clip0_1_19216)">
<path d="M28.3685 37.0002H14.1983V33.0638H11.9646C9.67241 33.0546 7.62235 31.6345 6.80821 29.4919L5.98168 27.2778C5.86665 26.9699 5.5723 26.7658 5.24365 26.7661H4.75153C4.05559 26.7669 3.39482 26.4613 2.94537 25.93C2.49592 25.399 2.30334 24.6967 2.41924 24.0108C2.60634 22.8888 3.63958 22.0427 4.83023 22.0427H6.60151C8.17617 22.0407 9.60062 22.9773 10.2228 24.424L11.1577 26.5989C11.4056 27.1775 11.9744 27.5528 12.6041 27.5534H14.1983C14.3361 25.6244 14.9756 24.0994 16.0679 23.0266L16.2844 22.8199C11.2854 21.1668 7.90056 17.1126 7.90056 12.5959C7.91065 10.7479 8.45783 8.94291 9.47493 7.39996V4.12322C9.47464 2.84291 9.77101 1.57961 10.341 0.433066L10.5673 4.92986e-05H11.9251C13.5972 -0.00658145 15.2025 0.655917 16.383 1.84023L16.7569 2.21414C19.7197 1.35301 22.8667 1.35301 25.8298 2.21414L26.2037 1.84023C27.3817 0.658511 28.9829 -0.00398681 30.6515 4.92986e-05H32.0094L32.2259 0.433066C32.7958 1.57961 33.0922 2.84291 33.0919 4.12322V7.39996C34.109 8.94291 34.6562 10.7479 34.6663 12.5959C34.6663 17.1126 31.2811 21.1668 26.2824 22.8199L26.4692 23.007C27.6798 24.1948 28.3639 25.8179 28.3685 27.5139V37.0002ZM15.7727 35.4255H26.7941V27.5139C26.7887 26.2434 26.2749 25.0277 25.3671 24.1386L23.1827 22.0032L24.5801 21.6786C29.5886 20.4977 33.0919 16.7681 33.0919 12.5959C33.081 10.9797 32.5799 9.40476 31.6551 8.07918L31.5175 7.88228V4.12322C31.5178 3.24912 31.3472 2.38337 31.0156 1.57471H30.6515C29.3989 1.57355 28.1978 2.07288 27.3157 2.96198L26.2527 4.01511L25.7903 3.85741C22.8604 2.90979 19.7065 2.90979 16.7765 3.85741L16.3141 4.01511L15.2512 2.96198C14.369 2.07288 13.168 1.57355 11.9153 1.57471H11.5512C11.2197 2.38337 11.049 3.24912 11.0493 4.12322V7.88228L10.9115 8.07918C9.98694 9.40476 9.48588 10.9797 9.47493 12.5959C9.47493 16.7681 12.978 20.4977 17.9868 21.6688L19.3841 21.9934L17.1701 24.1585C16.3533 24.9553 15.8811 26.1361 15.7629 27.6811C15.6966 28.4967 15.0165 29.1252 14.1983 29.1278H12.6041C11.3448 29.1272 10.2069 28.3762 9.71104 27.2187L8.7862 25.0441C8.41199 24.176 7.55634 23.6147 6.61131 23.617H4.84004C4.41682 23.617 4.0429 23.9025 3.98409 24.2666C3.94344 24.4946 4.00543 24.729 4.15332 24.9072C4.30122 25.0853 4.52003 25.1894 4.75153 25.1917H5.23356C6.21894 25.1937 7.10026 25.8046 7.44765 26.7266L8.27447 28.9309C8.85423 30.4669 10.3228 31.4849 11.9646 31.4895H14.1983C15.0678 31.4895 15.7727 32.1943 15.7727 33.0638V35.4255Z" fill="black"/>
</g>
<defs>
<clipPath id="clip0_1_19216">
<rect width="37" height="37" fill="white"/>
</clipPath>
</defs>
</svg>
