<svg width="19" height="39" viewBox="0 0 19 39" fill="none" xmlns="http://www.w3.org/2000/svg">
<path d="M3.89111 37.2935V20.2222H1.47998C0.747559 20.2222 0.154297 19.6274 0.154297 18.8965V13.4912C0.154297 12.7632 0.750489 12.167 1.47998 12.167H3.89111V7.8208C3.89111 3.71191 7.22363 0.380859 11.3325 0.380859H17.52C18.2524 0.380859 18.8457 0.97412 18.8457 1.70654V7.11035C18.8457 7.84277 18.2524 8.43604 17.52 8.43604H13.8579C13.4404 8.43604 13.0962 8.78027 13.0962 9.19775V12.1699L17.4395 12.167C18.1719 12.2183 18.7651 12.7119 18.7651 13.4912C18.6362 15.3223 18.4575 17.1724 18.3022 19.0063C18.2451 19.6904 17.6694 20.2222 16.9824 20.2222H13.0962V37.2935C13.0962 38.0215 12.5015 38.6177 11.772 38.6177L5.2168 38.6191C4.48584 38.6191 3.89111 38.0244 3.89111 37.2935ZM5.62256 36.8906H11.3647V18.4907H16.6104L16.9985 13.894H11.3647V9.19775C11.3647 7.8208 12.481 6.70459 13.8579 6.70459H17.1143V2.1123H11.3325C8.17871 2.1123 5.62256 4.66846 5.62256 7.8208V13.897H1.88574V18.4907H5.62256V36.8906Z" fill="black"/>
</svg>
