<svg width="41" height="41" viewBox="0 0 41 41" fill="none" xmlns="http://www.w3.org/2000/svg">
<g clip-path="url(#clip0_1_19203)">
<path d="M10.6957 40.5821H0V12.9519H10.6957V40.5821ZM1.7825 38.7996H8.91315V14.7344H1.7825V38.7996Z" fill="black"/>
<path d="M40.9999 40.5821H30.3042V25.4301C30.3042 23.9534 29.107 22.7561 27.6303 22.7561C26.1533 22.7561 24.9564 23.9534 24.9564 25.4301V40.5821H14.2607V12.9519H24.9564V14.7455C26.5708 13.5783 28.5126 12.9506 30.5046 12.9519C36.2869 12.9519 40.9999 17.6424 40.9999 23.4135V40.5821ZM32.0867 38.7996H39.217V23.4135C39.205 18.6121 35.3061 14.7282 30.5046 14.7344C28.3099 14.7344 26.2486 15.6591 24.7113 17.3303L23.1736 19.0126V14.7344H16.0432V38.7996H23.1736V25.4301C23.1736 22.9686 25.1689 20.9736 27.6303 20.9736C30.0914 20.9736 32.0867 22.9686 32.0867 25.4301V38.7996Z" fill="black"/>
<path d="M5.34783 11.169C2.39418 11.169 0 8.77486 0 5.82122C0 2.8679 2.39418 0.473389 5.34783 0.473389C8.30147 0.473389 10.6957 2.8679 10.6957 5.82122C10.6895 8.77225 8.29886 11.1632 5.34783 11.169ZM5.34783 2.25622C3.37895 2.25622 1.7825 3.85234 1.7825 5.82122C1.7825 7.79042 3.37895 9.38654 5.34783 9.38654C7.3167 9.38654 8.91315 7.79042 8.91315 5.82122C8.91315 3.85234 7.3167 2.25622 5.34783 2.25622Z" fill="black"/>
</g>
<defs>
<clipPath id="clip0_1_19203">
<rect width="41" height="41" fill="white"/>
</clipPath>
</defs>
</svg>
