<svg width="43" height="43" viewBox="0 0 43 43" fill="none" xmlns="http://www.w3.org/2000/svg">
<g clip-path="url(#clip0_1_19231)">
<path d="M40.7948 7.16675H2.20518C0.992275 7.16675 0 8.15902 0 9.37184V33.6283C0 34.841 0.992275 35.8335 2.20518 35.8335H40.7949C42.0076 35.8335 43.0001 34.8412 43.0001 33.6283V9.37184C43 8.15902 42.0077 7.16675 40.7948 7.16675ZM39.9673 8.82048L22.7685 21.7207C22.4593 21.956 21.9846 22.1032 21.4999 22.101C21.0153 22.1032 20.5407 21.956 20.2314 21.7207L3.03259 8.82048H39.9673ZM30.7803 22.5718L40.1521 34.1488C40.1615 34.1604 40.173 34.1692 40.183 34.1797H2.817C2.82691 34.1687 2.8385 34.1604 2.84791 34.1488L12.2197 22.5718C12.5069 22.2168 12.4524 21.6964 12.0968 21.4086C11.7418 21.1214 11.2213 21.1758 10.9341 21.5309L1.65382 32.9949V9.85416L19.2396 23.0436C19.9007 23.5359 20.7049 23.7526 21.4998 23.7548C22.2937 23.7531 23.0986 23.5364 23.76 23.0436L41.3458 9.85416V32.9947L32.0658 21.5309C31.7786 21.1759 31.2576 21.1213 30.9031 21.4086C30.5476 21.6957 30.493 22.2168 30.7803 22.5718Z" fill="black"/>
</g>
<defs>
<clipPath id="clip0_1_19231">
<rect width="43" height="43" fill="white"/>
</clipPath>
</defs>
</svg>
