<svg width="51" height="22" viewBox="0 0 51 22" fill="none" xmlns="http://www.w3.org/2000/svg">
<g clip-path="url(#clip0_1_19244)">
<path d="M0.636333 0.503269V21.4858H2.12825V21.989H0.0644531V0.00276953H2.12757V0.506019L0.636333 0.503269ZM6.38233 7.15483V8.21633H6.41225C6.67372 7.82877 7.01965 7.50702 7.42341 7.27583C7.81781 7.05377 8.27001 6.94239 8.77865 6.94239C9.26825 6.94239 9.71501 7.03864 10.1196 7.23114C10.5242 7.42296 10.8316 7.76121 11.041 8.24658C11.2709 7.90283 11.5823 7.59964 11.9774 7.33702C12.3718 7.07371 12.8383 6.94239 13.3782 6.94239C13.7875 6.94239 14.167 6.99327 14.5165 7.09364C14.866 7.19539 15.1652 7.35696 15.4155 7.57971C15.6643 7.80177 15.8595 8.09258 15.9996 8.45146C16.139 8.81033 16.209 9.24208 16.209 9.74877V14.9965H14.0827V10.5525C14.0827 10.2891 14.0725 10.0416 14.0527 9.80858C14.0385 9.59737 13.9825 9.39119 13.8882 9.20221C13.7976 9.02978 13.6597 8.88748 13.4911 8.79246C13.3163 8.69208 13.079 8.64121 12.7791 8.64121C12.4799 8.64121 12.2378 8.69964 12.0529 8.81514C11.8679 8.93202 11.7231 9.08327 11.6183 9.27027C11.5101 9.46778 11.4391 9.68387 11.4089 9.90758C11.3736 10.1461 11.3558 10.3869 11.3559 10.6281V14.9965H9.22881V10.5978C9.22881 10.3655 9.22405 10.1351 9.21453 9.90758C9.20682 9.69194 9.16361 9.47911 9.08669 9.27783C9.01329 9.08766 8.88241 8.92574 8.71269 8.81514C8.53725 8.69964 8.28021 8.64121 7.94089 8.64121C7.80617 8.64694 7.67271 8.67005 7.54377 8.70996C7.36807 8.76115 7.20482 8.84871 7.06437 8.96708C6.90933 9.09358 6.77741 9.27577 6.66725 9.51296C6.55777 9.75083 6.50269 10.0616 6.50269 10.4459V14.9965H4.37497V7.15208L6.38233 7.15483ZM17.5751 8.30777C17.7901 7.97831 18.0769 7.70312 18.4136 7.50339C18.7687 7.29515 19.1561 7.14895 19.5594 7.07096C19.9812 6.98544 20.4103 6.94237 20.8405 6.94239C21.2301 6.94239 21.6245 6.96989 22.0237 7.02558C22.4235 7.08127 22.788 7.19058 23.1178 7.35214C23.4469 7.51371 23.7162 7.73852 23.927 8.02658C24.1365 8.31533 24.2412 8.69689 24.2412 9.17196V13.2516C24.2412 13.6063 24.2616 13.9446 24.301 14.2677C24.3405 14.5915 24.4105 14.8342 24.5105 14.9965H22.3542C22.2726 14.7509 22.2223 14.4959 22.2046 14.2375C21.8646 14.5915 21.4654 14.8397 21.0064 14.9806C20.55 15.1218 20.0754 15.1937 19.5981 15.1938C19.2282 15.1938 18.8841 15.1477 18.5645 15.0563C18.2596 14.973 17.9742 14.8288 17.7254 14.6321C17.4839 14.4377 17.2914 14.1882 17.1637 13.904C17.0284 13.6111 16.9611 13.2619 16.9611 12.8576C16.9611 12.4128 17.0386 12.0464 17.1937 11.7576C17.348 11.4696 17.5473 11.24 17.7927 11.0674C18.0375 10.8955 18.317 10.767 18.6319 10.681C18.946 10.5951 19.2636 10.527 19.5832 10.4761C19.9028 10.426 20.2169 10.3854 20.5263 10.3551C20.8364 10.3249 21.1111 10.2795 21.3505 10.2183C21.5905 10.1578 21.7796 10.0691 21.9197 9.95296C22.0597 9.83677 22.1243 9.66764 22.1148 9.44421C22.1148 9.21252 22.0774 9.02758 22.0019 8.89146C21.9321 8.76006 21.8288 8.64992 21.7027 8.57246C21.5691 8.49376 21.4215 8.44238 21.2682 8.42121C21.0921 8.39533 20.9144 8.38269 20.7365 8.38339C20.3169 8.38339 19.9878 8.47414 19.7477 8.65633C19.5084 8.83783 19.3683 9.14171 19.3282 9.56589H17.2011C17.2311 9.06058 17.3555 8.64121 17.5751 8.30777ZM21.7769 11.3486C21.6346 11.3958 21.4894 11.4337 21.3423 11.462C21.181 11.4934 21.0186 11.5186 20.8555 11.5376C20.6855 11.5583 20.5155 11.5837 20.3461 11.6133C20.1864 11.6436 20.0288 11.6843 19.8742 11.735C19.7295 11.7807 19.5931 11.8499 19.4703 11.9398C19.3547 12.0258 19.2629 12.1351 19.1929 12.2657C19.1228 12.3977 19.0881 12.5641 19.0881 12.7662C19.0881 12.9587 19.1228 13.1203 19.1929 13.2516C19.2629 13.3836 19.3574 13.4867 19.4778 13.563C19.5975 13.6386 19.7369 13.6916 19.8973 13.7218C20.0565 13.7521 20.2217 13.7672 20.391 13.7672C20.8106 13.7672 21.1349 13.6971 21.3648 13.5548C21.5946 13.4138 21.7639 13.244 21.8748 13.0467C21.9836 12.8501 22.0516 12.6507 22.0767 12.4486C22.1012 12.2458 22.1141 12.0842 22.1141 11.9625V11.1581C22.0158 11.2443 21.901 11.3091 21.7769 11.3486ZM29.8417 7.15483V8.59583H28.2838V12.4781C28.2838 12.8425 28.3436 13.0852 28.4633 13.2062C28.583 13.3279 28.823 13.3884 29.1821 13.3884C29.3024 13.3884 29.4167 13.3836 29.5268 13.3733C29.6363 13.363 29.7417 13.3478 29.8417 13.3279V14.9958C29.6431 15.0281 29.4428 15.0485 29.2419 15.057C29.0274 15.0667 28.8127 15.0718 28.5979 15.0721C28.2688 15.0721 27.956 15.0487 27.6616 15.0033C27.3879 14.9651 27.1237 14.8751 26.883 14.738C26.657 14.6053 26.4727 14.4109 26.3512 14.177C26.2213 13.9343 26.1561 13.616 26.1561 13.2213V8.59583H24.8681V7.15483H26.1561V4.80358H28.2838V7.15483H29.8417ZM32.8819 7.15483V8.61096H32.9119C33.1156 8.11861 33.4598 7.6988 33.9006 7.40508C34.1189 7.25919 34.3559 7.14423 34.6051 7.06339C34.8568 6.98236 35.1195 6.94153 35.3837 6.94239C35.5237 6.94239 35.6781 6.96783 35.8481 7.01802V9.02002C35.7293 8.99687 35.6095 8.97921 35.4891 8.96708C35.3547 8.95222 35.2196 8.94465 35.0845 8.94439C34.6948 8.94439 34.365 9.01039 34.0957 9.14171C33.8377 9.26362 33.6138 9.44864 33.4443 9.68002C33.2746 9.91843 33.1547 10.1893 33.0921 10.4761C33.0201 10.7997 32.9849 11.1304 32.9873 11.462V14.9958H30.8603V7.15827L32.8819 7.15483ZM36.7471 5.94139V4.16627H38.8741V5.94139H36.7471ZM38.8741 7.15483V14.9923H36.7477V7.15483H38.8741ZM39.9825 7.15483H42.4094L43.7728 9.20221L45.1206 7.15483H47.4727L44.9261 10.8254L47.7875 14.9965H45.3599L43.7429 12.5242L42.1245 14.9965H39.7431L42.5291 10.8708L39.9825 7.15483ZM50.3865 21.4823V0.499832H48.8946V-0.00341797H50.9584V21.9828H48.8946V21.4796L50.3865 21.4823Z" fill="#040404"/>
</g>
<defs>
<clipPath id="clip0_1_19244">
<rect width="51" height="22" fill="white"/>
</clipPath>
</defs>
</svg>
