<svg width="39" height="39" viewBox="0 0 39 39" fill="none" xmlns="http://www.w3.org/2000/svg">
<g clip-path="url(#clip0_1_19218)">
<path d="M19.4842 37.6984C9.22714 37.6984 0.875 31.7392 0.875 24.4061C0.875 17.0732 9.22714 11.1138 19.4842 11.1138C29.7416 11.1138 38.0934 17.0732 38.0934 24.4061C38.0934 31.7392 29.7416 37.6984 19.4842 37.6984ZM19.4842 12.8863C10.2017 12.8863 2.6472 18.0591 2.6472 24.4061C2.6472 30.7533 10.2017 35.9262 19.4842 35.9262C28.7667 35.9262 36.3212 30.7533 36.3212 24.4061C36.3212 18.0591 28.7667 12.8863 19.4842 12.8863Z" fill="black"/>
<path d="M1.98301 21.4709C0.398056 20.1952 -0.319779 18.1267 0.134223 16.1432C0.5879 14.1598 2.13391 12.6092 4.11574 12.1497C6.0979 11.6899 8.16866 12.4015 9.44889 13.9829L8.06449 15.0905C7.21003 14.0371 5.8292 13.5636 4.50809 13.871C3.18697 14.1786 2.15727 15.2128 1.85547 16.5353C1.55399 17.858 2.03363 19.2366 3.09091 20.0861L1.98301 21.4709Z" fill="black"/>
<path d="M36.9861 21.4598L35.8782 20.0861C36.9355 19.2365 37.4151 17.858 37.1136 16.5352C36.8122 15.2128 35.7821 14.1786 34.461 13.8709C33.1399 13.5636 31.7594 14.0371 30.9049 15.0905L29.5312 13.9719C30.8076 12.3762 32.8855 11.6532 34.8767 12.112C36.8676 12.5706 38.4198 14.1296 38.8696 16.1228C39.3194 18.116 38.5873 20.1906 36.9861 21.4598Z" fill="black"/>
<path d="M12.3953 25.2922C10.4375 25.2922 8.85059 23.7053 8.85059 21.7475C8.85059 19.79 10.4375 18.2031 12.3953 18.2031C14.3528 18.2031 15.9397 19.79 15.9397 21.7475C15.9397 23.7053 14.3528 25.2922 12.3953 25.2922ZM12.3953 19.9753C11.4166 19.9753 10.6228 20.7688 10.6228 21.7475C10.6228 22.7266 11.4166 23.52 12.3953 23.52C13.3741 23.52 14.1675 22.7266 14.1675 21.7475C14.1675 20.7688 13.3741 19.9753 12.3953 19.9753Z" fill="black"/>
<path d="M26.5737 25.2922C24.6162 25.2922 23.0293 23.7053 23.0293 21.7475C23.0293 19.79 24.6162 18.2031 26.5737 18.2031C28.5315 18.2031 30.1184 19.79 30.1184 21.7475C30.1184 23.7053 28.5315 25.2922 26.5737 25.2922ZM26.5737 19.9753C25.5949 19.9753 24.8015 20.7688 24.8015 21.7475C24.8015 22.7266 25.5949 23.52 26.5737 23.52C27.5528 23.52 28.3462 22.7266 28.3462 21.7475C28.3462 20.7688 27.5528 19.9753 26.5737 19.9753Z" fill="black"/>
<path d="M31.8906 8.45532C29.9331 8.45532 28.3462 6.86843 28.3462 4.91093C28.3462 2.95311 29.9331 1.36621 31.8906 1.36621C33.8484 1.36621 35.4353 2.95311 35.4353 4.91093C35.4353 6.86843 33.8484 8.45532 31.8906 8.45532ZM31.8906 3.13841C30.9118 3.13841 30.1184 3.93186 30.1184 4.91093C30.1184 5.88968 30.9118 6.68313 31.8906 6.68313C32.8697 6.68313 33.6631 5.88968 33.6631 4.91093C33.6631 3.93186 32.8697 3.13841 31.8906 3.13841Z" fill="black"/>
<path d="M20.3707 12H18.5981V7.56939C18.5988 5.91305 19.3711 4.35179 20.6874 3.3461C22.0033 2.34075 23.7129 2.00584 25.3108 2.4407L29.5091 3.58171L29.0438 5.28738L24.8458 4.14637C23.7797 3.85657 22.6394 4.08017 21.7619 4.75127C20.8844 5.42238 20.3697 6.46441 20.3707 7.56939V12Z" fill="black"/>
<path d="M19.4844 33.2678C16.2389 33.2678 13.2151 32.0051 11.1768 29.8117L12.4729 28.6045C14.1786 30.4432 16.7374 31.4956 19.4844 31.4956C22.2315 31.4956 24.7903 30.4432 26.4963 28.6045L27.7921 29.8117C25.7541 32.0051 22.73 33.2678 19.4844 33.2678Z" fill="black"/>
</g>
<defs>
<clipPath id="clip0_1_19218">
<rect width="39" height="39" fill="white"/>
</clipPath>
</defs>
</svg>
