<svg width="94" height="36" viewBox="0 0 94 36" fill="none" xmlns="http://www.w3.org/2000/svg">
<path fill-rule="evenodd" clip-rule="evenodd" d="M3.80579 10.2059C5.68031 8.33137 8.7195 8.33137 10.594 10.2059L11.9999 11.6118L13.4058 10.2059C15.2803 8.33137 18.3195 8.33137 20.194 10.2059C22.0685 12.0804 22.0685 15.1196 20.194 16.9941L11.9999 25.1882L3.80579 16.9941C1.93127 15.1196 1.93127 12.0804 3.80579 10.2059Z" fill="#26312C"/>
<path d="M37.6761 25H33.4382V11.9091H37.8104C39.093 11.9091 40.1946 12.1712 41.1151 12.6953C42.0355 13.2152 42.7408 13.9631 43.2308 14.9389C43.7251 15.9105 43.9723 17.076 43.9723 18.4354C43.9723 19.799 43.723 20.9709 43.2244 21.951C42.7301 22.9311 42.0142 23.6854 41.0767 24.2138C40.1392 24.7379 39.0057 25 37.6761 25ZM35.4134 23.2741H37.5675C38.5646 23.2741 39.3935 23.0866 40.054 22.7116C40.7145 22.3324 41.2088 21.7848 41.5369 21.0689C41.8651 20.3487 42.0291 19.4709 42.0291 18.4354C42.0291 17.4084 41.8651 16.5369 41.5369 15.821C41.2131 15.1051 40.7294 14.5618 40.0859 14.1911C39.4425 13.8203 38.6435 13.6349 37.6889 13.6349H35.4134V23.2741ZM50.4107 25.1982C49.4902 25.1982 48.687 24.9872 48.0009 24.5653C47.3148 24.1435 46.7821 23.5533 46.4029 22.7947C46.0236 22.0362 45.834 21.1499 45.834 20.1357C45.834 19.1172 46.0236 18.2266 46.4029 17.4638C46.7821 16.701 47.3148 16.1087 48.0009 15.6868C48.687 15.2649 49.4902 15.054 50.4107 15.054C51.3311 15.054 52.1344 15.2649 52.8205 15.6868C53.5066 16.1087 54.0392 16.701 54.4185 17.4638C54.7978 18.2266 54.9874 19.1172 54.9874 20.1357C54.9874 21.1499 54.7978 22.0362 54.4185 22.7947C54.0392 23.5533 53.5066 24.1435 52.8205 24.5653C52.1344 24.9872 51.3311 25.1982 50.4107 25.1982ZM50.4171 23.5938C51.0137 23.5938 51.508 23.4361 51.9 23.1207C52.2921 22.8054 52.5819 22.3857 52.7694 21.8615C52.9611 21.3374 53.057 20.7599 53.057 20.1293C53.057 19.5028 52.9611 18.9276 52.7694 18.4034C52.5819 17.875 52.2921 17.451 51.9 17.1314C51.508 16.8118 51.0137 16.652 50.4171 16.652C49.8162 16.652 49.3176 16.8118 48.9213 17.1314C48.5293 17.451 48.2374 17.875 48.0456 18.4034C47.8581 18.9276 47.7644 19.5028 47.7644 20.1293C47.7644 20.7599 47.8581 21.3374 48.0456 21.8615C48.2374 22.3857 48.5293 22.8054 48.9213 23.1207C49.3176 23.4361 49.8162 23.5938 50.4171 23.5938ZM59.032 19.1705V25H57.1207V15.1818H58.9553V16.7798H59.0767C59.3026 16.2599 59.6563 15.8423 60.1378 15.527C60.6236 15.2116 61.2351 15.054 61.9723 15.054C62.6413 15.054 63.2273 15.1946 63.7301 15.4759C64.233 15.7528 64.6229 16.1662 64.8999 16.7159C65.1768 17.2656 65.3153 17.9453 65.3153 18.755V25H63.4041V18.9851C63.4041 18.2734 63.2188 17.7173 62.848 17.3168C62.4773 16.9119 61.968 16.7095 61.3203 16.7095C60.8771 16.7095 60.483 16.8054 60.1378 16.9972C59.7969 17.1889 59.5263 17.4702 59.326 17.8409C59.13 18.2074 59.032 18.6506 59.032 19.1705ZM70.7358 25.2173C70.1136 25.2173 69.5511 25.1023 69.0483 24.8722C68.5455 24.6378 68.147 24.299 67.853 23.8558C67.5632 23.4126 67.4183 22.8693 67.4183 22.2259C67.4183 21.6719 67.5249 21.2159 67.7379 20.858C67.951 20.5 68.2386 20.2166 68.6009 20.0078C68.9631 19.799 69.3679 19.6413 69.8153 19.5348C70.2628 19.4283 70.7188 19.3473 71.1832 19.2919C71.7713 19.2237 72.2486 19.1683 72.6151 19.1257C72.9815 19.0788 73.2479 19.0043 73.4141 18.902C73.5803 18.7997 73.6634 18.6335 73.6634 18.4034V18.3587C73.6634 17.8004 73.5057 17.3679 73.1903 17.0611C72.8793 16.7543 72.4148 16.6009 71.7969 16.6009C71.1534 16.6009 70.6463 16.7436 70.2756 17.0291C69.9091 17.3104 69.6555 17.6236 69.5149 17.9688L67.7188 17.5597C67.9318 16.9631 68.2429 16.4815 68.652 16.1151C69.0653 15.7443 69.5405 15.4759 70.0774 15.3097C70.6143 15.1392 71.179 15.054 71.7713 15.054C72.1634 15.054 72.5788 15.1009 73.0178 15.1946C73.4609 15.2841 73.8743 15.4503 74.2578 15.6932C74.6456 15.9361 74.9631 16.2834 75.2102 16.7351C75.4574 17.1825 75.581 17.7642 75.581 18.4801V25H73.7145V23.6577H73.6378C73.5142 23.9048 73.3288 24.1477 73.0817 24.3864C72.8345 24.625 72.517 24.8232 72.1293 24.9808C71.7415 25.1385 71.277 25.2173 70.7358 25.2173ZM71.1513 23.6832C71.6797 23.6832 72.1314 23.5788 72.5064 23.37C72.8857 23.1612 73.1733 22.8885 73.3693 22.5518C73.5696 22.2109 73.6697 21.8466 73.6697 21.4588V20.1932C73.6016 20.2614 73.4695 20.3253 73.2734 20.3849C73.0817 20.4403 72.8622 20.4893 72.6151 20.532C72.3679 20.5703 72.1271 20.6065 71.8928 20.6406C71.6584 20.6705 71.4624 20.696 71.3047 20.7173C70.9339 20.7642 70.5952 20.843 70.2884 20.9538C69.9858 21.0646 69.7429 21.2244 69.5597 21.4332C69.3807 21.6378 69.2912 21.9105 69.2912 22.2514C69.2912 22.7244 69.4659 23.0824 69.8153 23.3253C70.1648 23.5639 70.6101 23.6832 71.1513 23.6832ZM82.7097 15.1818V16.7159H77.3468V15.1818H82.7097ZM78.785 12.8295H80.6962V22.1172C80.6962 22.4879 80.7516 22.767 80.8624 22.9545C80.9732 23.1378 81.1159 23.2635 81.2907 23.3317C81.4696 23.3956 81.6635 23.4276 81.8723 23.4276C82.0257 23.4276 82.16 23.4169 82.275 23.3956C82.3901 23.3743 82.4796 23.3572 82.5435 23.3445L82.8887 24.9233C82.7779 24.9659 82.6202 25.0085 82.4157 25.0511C82.2111 25.098 81.9554 25.1236 81.6486 25.1278C81.1458 25.1364 80.677 25.0469 80.2424 24.8594C79.8077 24.6719 79.4561 24.3821 79.1877 23.9901C78.9192 23.598 78.785 23.1058 78.785 22.5135V12.8295ZM88.9499 25.1982C87.9826 25.1982 87.1495 24.9915 86.4506 24.5781C85.756 24.1605 85.2191 23.5746 84.8398 22.8203C84.4648 22.0618 84.2773 21.1733 84.2773 20.1548C84.2773 19.1491 84.4648 18.2628 84.8398 17.4957C85.2191 16.7287 85.7475 16.13 86.4251 15.6996C87.1069 15.2692 87.9038 15.054 88.8157 15.054C89.3697 15.054 89.9066 15.1456 90.4265 15.3288C90.9464 15.5121 91.413 15.7997 91.8263 16.1918C92.2397 16.5838 92.5657 17.093 92.8043 17.7195C93.043 18.3416 93.1623 19.098 93.1623 19.9886V20.6662H85.3576V19.2344H91.2894C91.2894 18.7315 91.1871 18.2862 90.9826 17.8984C90.7781 17.5064 90.4904 17.1974 90.1197 16.9716C89.7532 16.7457 89.3228 16.6328 88.8285 16.6328C88.2915 16.6328 87.8228 16.7649 87.4222 17.0291C87.0259 17.2891 86.7191 17.63 86.5018 18.0518C86.2887 18.4695 86.1822 18.9233 86.1822 19.4134V20.532C86.1822 21.1882 86.2972 21.7464 86.5273 22.2067C86.7617 22.6669 87.0877 23.0185 87.5053 23.2614C87.9229 23.5 88.4109 23.6193 88.9691 23.6193C89.3313 23.6193 89.6616 23.5682 89.9599 23.4659C90.2582 23.3594 90.516 23.2017 90.7333 22.9929C90.9506 22.7841 91.1168 22.5263 91.2319 22.2195L93.0408 22.5455C92.896 23.0781 92.636 23.5447 92.261 23.9453C91.8903 24.3416 91.4237 24.6506 90.8612 24.8722C90.3029 25.0895 89.6658 25.1982 88.9499 25.1982Z" fill="#006031"/>
</svg>
