<svg width="152" height="45" viewBox="0 0 152 45" fill="none" xmlns="http://www.w3.org/2000/svg">
<rect x="0.5" y="0.745239" width="150.5" height="43" rx="4.5" fill="black"/>
<rect x="0.5" y="0.745239" width="150.5" height="43" rx="4.5" stroke="#A6A6A6"/>
<path d="M60.8047 34.3452V32.9341L62.2616 32.6592V22.6989L60.8047 22.424V21.0037H71.1865V24.4674H69.3813L69.2347 22.7905H64.5707V26.859H69.3355V28.6458H64.5707V32.6592L66.0276 32.9341V34.3452H60.8047Z" fill="white"/>
<path d="M73.0557 29.5621V27.7753H77.9305V29.5621H73.0557Z" fill="white"/>
<path d="M79.7723 34.3452V32.9341L81.2384 32.65V22.7172L79.7723 22.424V21.0037H85.3618C86.5469 21.0037 87.5884 21.2847 88.4864 21.8467C89.3844 22.4087 90.0838 23.1815 90.5847 24.165C91.0856 25.1485 91.3361 26.2756 91.3361 27.5462V27.8119C91.3361 29.0642 91.0887 30.1852 90.5939 31.1748C90.1052 32.1583 89.4179 32.9341 88.5322 33.5022C87.6464 34.0642 86.611 34.3452 85.4259 34.3452H79.7723ZM83.5475 32.5676H85.3068C86.0887 32.5676 86.7545 32.3599 87.3043 31.9445C87.8602 31.523 88.2848 30.9549 88.578 30.2401C88.8712 29.5193 89.0178 28.7099 89.0178 27.8119V27.537C89.0178 26.6207 88.8712 25.8052 88.578 25.0905C88.2848 24.3758 87.8602 23.8138 87.3043 23.4045C86.7545 22.9952 86.0887 22.7905 85.3068 22.7905H83.5475V32.5676Z" fill="white"/>
<path d="M92.7106 34.3452V32.9341L94.0759 32.6592V26.1259L92.6281 25.851V24.4307H96.2017L96.3208 25.6769L96.3391 25.8785C96.8706 24.7912 97.6403 24.2475 98.6482 24.2475C99.027 24.2475 99.366 24.2963 99.6653 24.3941L99.3996 26.5291L98.1076 26.4558C97.6861 26.4313 97.3379 26.5138 97.063 26.7032C96.7881 26.8926 96.5621 27.1552 96.3849 27.4912V32.6592L97.7594 32.9341V34.3452H92.7106Z" fill="white"/>
<path d="M105.044 34.5376C104.091 34.5376 103.273 34.3238 102.588 33.8962C101.904 33.4625 101.379 32.8669 101.012 32.1094C100.646 31.3519 100.463 30.4784 100.463 29.4888V29.2963C100.463 28.3128 100.646 27.4423 101.012 26.6849C101.379 25.9274 101.904 25.3318 102.588 24.8981C103.273 24.4643 104.085 24.2475 105.026 24.2475C105.979 24.2475 106.797 24.4643 107.481 24.8981C108.166 25.3257 108.691 25.9213 109.057 26.6849C109.424 27.4423 109.607 28.3128 109.607 29.2963V29.4888C109.607 30.4845 109.424 31.3611 109.057 32.1186C108.691 32.876 108.166 33.4686 107.481 33.8962C106.803 34.3238 105.991 34.5376 105.044 34.5376ZM105.044 32.76C105.808 32.76 106.376 32.4576 106.748 31.8528C107.121 31.242 107.307 30.4539 107.307 29.4888V29.2963C107.307 28.3495 107.118 27.5706 106.739 26.9597C106.367 26.3428 105.795 26.0343 105.026 26.0343C104.262 26.0343 103.694 26.3428 103.321 26.9597C102.955 27.5706 102.772 28.3495 102.772 29.2963V29.4888C102.772 30.4539 102.955 31.242 103.321 31.8528C103.694 32.4576 104.268 32.76 105.044 32.76Z" fill="white"/>
<path d="M110.817 34.3452V32.9341L112.191 32.6592V26.1259L110.734 25.851V24.4307H114.5V32.6592L115.866 32.9341V34.3452H110.817ZM112.1 22.1858V20.0508H114.5V22.1858H112.1Z" fill="white"/>
<path d="M120.768 34.5376C119.968 34.5376 119.284 34.336 118.715 33.9329C118.147 33.5297 117.711 32.9677 117.405 32.2469C117.106 31.5199 116.956 30.6739 116.956 29.7087V29.5163C116.956 28.4655 117.106 27.5462 117.405 26.7582C117.711 25.964 118.147 25.347 118.715 24.9072C119.284 24.4674 119.965 24.2475 120.759 24.2475C121.327 24.2475 121.822 24.3574 122.243 24.5773C122.671 24.7912 123.037 25.0996 123.343 25.5028V21.746L121.886 21.4711V20.0508H125.652V32.6592L127.026 32.9341V34.3452H123.654L123.471 33.1448C122.83 34.0734 121.929 34.5376 120.768 34.5376ZM121.418 32.7142C121.858 32.7142 122.237 32.6164 122.555 32.4209C122.872 32.2255 123.135 31.9475 123.343 31.5871V27.2163C123.141 26.8559 122.878 26.5749 122.555 26.3733C122.237 26.1717 121.864 26.0709 121.437 26.0709C120.685 26.0709 120.136 26.3886 119.787 27.0239C119.439 27.6592 119.265 28.49 119.265 29.5163V29.7087C119.265 30.625 119.433 31.355 119.769 31.8987C120.111 32.4423 120.661 32.7142 121.418 32.7142Z" fill="white"/>
<path d="M65.9301 14.7885C65.6914 15.0997 65.3604 15.3355 64.9373 15.4956C64.5142 15.6558 64.0337 15.7359 63.4958 15.7359C62.9427 15.7359 62.4531 15.6105 62.027 15.3596C61.6009 15.1088 61.2715 14.7507 61.0388 14.2853C60.8091 13.8168 60.6897 13.2713 60.6807 12.6488V12.132C60.6807 11.1347 60.9194 10.3565 61.3969 9.7974C61.8744 9.23528 62.5408 8.95422 63.3961 8.95422C64.1304 8.95422 64.7137 9.13555 65.1459 9.49821C65.578 9.86086 65.8379 10.3837 65.9256 11.0667H64.8013C64.6744 10.2719 64.2135 9.87446 63.4187 9.87446C62.905 9.87446 62.5136 10.0603 62.2446 10.432C61.9787 10.8007 61.8412 11.3432 61.8321 12.0595V12.5672C61.8321 13.2804 61.9817 13.835 62.2809 14.2309C62.5831 14.6237 63.0017 14.8202 63.5366 14.8202C64.1229 14.8202 64.5399 14.6872 64.7877 14.4213V13.1293H63.4278V12.2589H65.9301V14.7885Z" fill="white"/>
<path d="M71.1409 12.6986H68.4301V14.7295H71.5988V15.6452H67.2832V9.04489H71.5671V9.96966H68.4301V11.792H71.1409V12.6986Z" fill="white"/>
<path d="M77.4851 9.96966H75.427V15.6452H74.2892V9.96966H72.2492V9.04489H77.4851V9.96966Z" fill="white"/>
<path d="M81.7914 15.6452H80.6491V9.04489H81.7914V15.6452Z" fill="white"/>
<path d="M87.927 9.96966H85.869V15.6452H84.7311V9.96966H82.6912V9.04489H87.927V9.96966Z" fill="white"/>
<path d="M96.2906 12.5173C96.2906 13.1641 96.1788 13.7322 95.9552 14.2218C95.7315 14.7084 95.4112 15.0831 94.9941 15.346C94.5801 15.6059 94.1026 15.7359 93.5616 15.7359C93.0267 15.7359 92.5492 15.6059 92.1291 15.346C91.7121 15.0831 91.3887 14.7099 91.159 14.2263C90.9324 13.7428 90.8175 13.1852 90.8145 12.5536V12.1819C90.8145 11.5381 90.9278 10.97 91.1545 10.4774C91.3842 9.98477 91.706 9.60852 92.1201 9.34861C92.5371 9.08569 93.0146 8.95422 93.5526 8.95422C94.0905 8.95422 94.5665 9.08418 94.9805 9.34408C95.3976 9.60096 95.7194 9.97268 95.9461 10.4592C96.1727 10.9428 96.2876 11.5064 96.2906 12.1501V12.5173ZM95.1437 12.1728C95.1437 11.4414 95.0047 10.8808 94.7267 10.491C94.4516 10.1011 94.0603 9.9062 93.5526 9.9062C93.0569 9.9062 92.6686 10.1011 92.3875 10.491C92.1095 10.8778 91.9674 11.4263 91.9614 12.1365V12.5173C91.9614 13.2426 92.1019 13.8032 92.383 14.1991C92.6671 14.595 93.0599 14.793 93.5616 14.793C94.0693 14.793 94.4592 14.5996 94.7312 14.2127C95.0062 13.8259 95.1437 13.2608 95.1437 12.5173V12.1728Z" fill="white"/>
<path d="M102.762 15.6452H101.615L98.6727 10.9624V15.6452H97.5258V9.04489H98.6727L101.624 13.7458V9.04489H102.762V15.6452Z" fill="white"/>
<path fill-rule="evenodd" clip-rule="evenodd" d="M48.3535 10.9955C48.6757 11.3177 49.1981 11.3177 49.5202 10.9955L53.0204 7.49537C53.3426 7.17318 53.3426 6.65082 53.0204 6.32864L48.3535 10.9955Z" fill="#8AB000"/>
<path fill-rule="evenodd" clip-rule="evenodd" d="M48.3535 10.9955C48.6757 11.3177 49.1981 11.3177 49.5202 10.9955L53.0204 7.49537C53.3426 7.17318 53.3426 6.65082 53.0204 6.32864L48.3535 10.9955Z" fill="#263238" fill-opacity="0.2"/>
<path fill-rule="evenodd" clip-rule="evenodd" d="M48.3536 10.9955C48.0314 10.6734 48.0314 10.151 48.3536 9.82881L51.8538 6.32863C52.176 6.00645 52.6984 6.00645 53.0205 6.32863L48.3536 10.9955Z" fill="#8AB000"/>
<path fill-rule="evenodd" clip-rule="evenodd" d="M48.3536 10.9955C48.0314 10.6734 48.0314 10.151 48.3536 9.82881L51.8538 6.32863C52.176 6.00645 52.6984 6.00645 53.0205 6.32863L48.3536 10.9955Z" fill="white" fill-opacity="0.3"/>
<path d="M48.3537 10.9955C48.1604 10.8022 48.2648 10.3843 48.587 10.0621L52.0872 6.56197C52.4094 6.23978 52.8273 6.13531 53.0206 6.32862C53.2139 6.52193 53.1094 6.93982 52.7872 7.262L49.2871 10.7622C48.9649 11.0844 48.547 11.1888 48.3537 10.9955Z" fill="#8AB000"/>
<path fill-rule="evenodd" clip-rule="evenodd" d="M22.2837 6.32861C21.9615 6.6508 21.9615 7.17316 22.2837 7.49534L25.7839 10.9955C26.1061 11.3177 26.6284 11.3177 26.9506 10.9955L22.2837 6.32861Z" fill="#8AB000"/>
<path fill-rule="evenodd" clip-rule="evenodd" d="M22.2837 6.32861C21.9615 6.6508 21.9615 7.17316 22.2837 7.49534L25.7839 10.9955C26.1061 11.3177 26.6284 11.3177 26.9506 10.9955L22.2837 6.32861Z" fill="#263238" fill-opacity="0.2"/>
<path fill-rule="evenodd" clip-rule="evenodd" d="M22.2836 6.3286C22.6058 6.00642 23.1281 6.00642 23.4503 6.3286L26.9505 9.82878C27.2727 10.151 27.2727 10.6733 26.9505 10.9955L22.2836 6.3286Z" fill="#8AB000"/>
<path fill-rule="evenodd" clip-rule="evenodd" d="M22.2836 6.3286C22.6058 6.00642 23.1281 6.00642 23.4503 6.3286L26.9505 9.82878C27.2727 10.151 27.2727 10.6733 26.9505 10.9955L22.2836 6.3286Z" fill="white" fill-opacity="0.3"/>
<path d="M22.2835 6.32859C22.4768 6.13529 22.8947 6.23976 23.2169 6.56194L26.7171 10.0621C27.0393 10.3843 27.1437 10.8022 26.9504 10.9955C26.7571 11.1888 26.3392 11.0843 26.0171 10.7622L22.5169 7.26198C22.1947 6.93979 22.0902 6.5219 22.2835 6.32859Z" fill="#8AB000"/>
<g filter="url(#filter0_ii_1_25386)">
<path d="M25.0002 11.2452C25.0002 10.0302 25.9852 9.04523 27.2002 9.04523H48.1002C49.3153 9.04523 50.3002 10.0302 50.3002 11.2452V15.6452C50.3002 16.8603 49.3153 17.8452 48.1002 17.8452H27.2002C25.9852 17.8452 25.0002 16.8603 25.0002 15.6452V11.2452Z" fill="#AEEA00"/>
</g>
<g filter="url(#filter1_ii_1_25386)">
<path d="M25.0002 21.1453C25.0002 19.9302 25.9852 18.9453 27.2002 18.9453H48.1002C49.3153 18.9453 50.3002 19.9302 50.3002 21.1453V34.3453C50.3002 35.5603 49.3153 36.5452 48.1002 36.5452H27.2002C25.9852 36.5452 25.0002 35.5603 25.0002 34.3453V21.1453Z" fill="#1976D2"/>
</g>
<path d="M37.652 31.5953C39.7783 31.5953 41.502 29.8716 41.502 27.7453C41.502 25.619 39.7783 23.8953 37.652 23.8953C35.9079 23.8953 34.4347 25.0549 33.9614 26.6453H35.7463C36.1267 25.9877 36.8377 25.5453 37.652 25.5453C38.867 25.5453 39.852 26.5302 39.852 27.7453C39.852 28.9603 38.867 29.9453 37.652 29.9453C36.8377 29.9453 36.1267 29.5028 35.7463 28.8453H33.9614C34.4347 30.4356 35.9079 31.5953 37.652 31.5953Z" fill="#0D47A1"/>
<path fill-rule="evenodd" clip-rule="evenodd" d="M44.252 27.7453C44.252 31.3903 41.2971 34.3453 37.652 34.3453C34.0069 34.3453 31.052 31.3903 31.052 27.7453C31.052 24.1002 34.0069 21.1453 37.652 21.1453C41.2971 21.1453 44.252 24.1002 44.252 27.7453ZM43.152 27.7453C43.152 30.7828 40.6896 33.2453 37.652 33.2453C34.6144 33.2453 32.152 30.7828 32.152 27.7453C32.152 24.7077 34.6144 22.2453 37.652 22.2453C40.6896 22.2453 43.152 24.7077 43.152 27.7453Z" fill="#0D47A1"/>
<g filter="url(#filter2_d_1_25386)">
<path d="M31.0503 15.6452C32.2654 15.6452 33.2503 14.6603 33.2503 13.4452C33.2503 12.2302 32.2654 11.2452 31.0503 11.2452C29.8353 11.2452 28.8503 12.2302 28.8503 13.4452C28.8503 14.6603 29.8353 15.6452 31.0503 15.6452Z" fill="white"/>
<path d="M44.2504 15.6452C45.4654 15.6452 46.4504 14.6603 46.4504 13.4452C46.4504 12.2302 45.4654 11.2452 44.2504 11.2452C43.0353 11.2452 42.0503 12.2302 42.0503 13.4452C42.0503 14.6603 43.0353 15.6452 44.2504 15.6452Z" fill="white"/>
</g>
<path d="M22.2836 6.32861C22.6058 6.00643 23.1282 6.00643 23.4504 6.32861L26.3411 9.21934C26.605 9.10725 26.8954 9.04525 27.2003 9.04525H48.1003C48.4061 9.04525 48.6974 9.10765 48.962 9.22042L51.8538 6.32862C52.176 6.00643 52.6983 6.00643 53.0205 6.32862C53.3427 6.6508 53.3427 7.17316 53.0205 7.49534L50.1273 10.3886C50.2387 10.6519 50.3003 10.9414 50.3003 11.2452V15.6452C50.3003 16.8603 49.3153 17.8452 48.1003 17.8452H27.2003C25.9852 17.8452 25.0003 16.8603 25.0003 15.6452V11.2452C25.0003 10.9404 25.0623 10.65 25.1744 10.3861L22.2836 7.49534C21.9614 7.17316 21.9614 6.65079 22.2836 6.32861Z" fill="url(#paint0_radial_1_25386)"/>
<path d="M27.2003 18.9452C25.9852 18.9452 25.0003 19.9302 25.0003 21.1452V34.3452C25.0003 35.5603 25.9852 36.5452 27.2003 36.5452H48.1003C49.3153 36.5452 50.3003 35.5603 50.3003 34.3452V21.1452C50.3003 19.9302 49.3153 18.9452 48.1003 18.9452H27.2003Z" fill="url(#paint1_radial_1_25386)"/>
<defs>
<filter id="filter0_ii_1_25386" x="25.0002" y="9.04523" width="25.3" height="8.79999" filterUnits="userSpaceOnUse" color-interpolation-filters="sRGB">
<feFlood flood-opacity="0" result="BackgroundImageFix"/>
<feBlend mode="normal" in="SourceGraphic" in2="BackgroundImageFix" result="shape"/>
<feColorMatrix in="SourceAlpha" type="matrix" values="0 0 0 0 0 0 0 0 0 0 0 0 0 0 0 0 0 0 127 0" result="hardAlpha"/>
<feOffset dy="-1"/>
<feComposite in2="hardAlpha" operator="arithmetic" k2="-1" k3="1"/>
<feColorMatrix type="matrix" values="0 0 0 0 0.14902 0 0 0 0 0.196078 0 0 0 0 0.219608 0 0 0 0.2 0"/>
<feBlend mode="normal" in2="shape" result="effect1_innerShadow_1_25386"/>
<feColorMatrix in="SourceAlpha" type="matrix" values="0 0 0 0 0 0 0 0 0 0 0 0 0 0 0 0 0 0 127 0" result="hardAlpha"/>
<feOffset dy="1"/>
<feComposite in2="hardAlpha" operator="arithmetic" k2="-1" k3="1"/>
<feColorMatrix type="matrix" values="0 0 0 0 1 0 0 0 0 1 0 0 0 0 1 0 0 0 0.3 0"/>
<feBlend mode="normal" in2="effect1_innerShadow_1_25386" result="effect2_innerShadow_1_25386"/>
</filter>
<filter id="filter1_ii_1_25386" x="25.0002" y="18.9453" width="25.3" height="17.6" filterUnits="userSpaceOnUse" color-interpolation-filters="sRGB">
<feFlood flood-opacity="0" result="BackgroundImageFix"/>
<feBlend mode="normal" in="SourceGraphic" in2="BackgroundImageFix" result="shape"/>
<feColorMatrix in="SourceAlpha" type="matrix" values="0 0 0 0 0 0 0 0 0 0 0 0 0 0 0 0 0 0 127 0" result="hardAlpha"/>
<feOffset dy="-1"/>
<feComposite in2="hardAlpha" operator="arithmetic" k2="-1" k3="1"/>
<feColorMatrix type="matrix" values="0 0 0 0 0.14902 0 0 0 0 0.196078 0 0 0 0 0.219608 0 0 0 0.2 0"/>
<feBlend mode="normal" in2="shape" result="effect1_innerShadow_1_25386"/>
<feColorMatrix in="SourceAlpha" type="matrix" values="0 0 0 0 0 0 0 0 0 0 0 0 0 0 0 0 0 0 127 0" result="hardAlpha"/>
<feOffset dy="1"/>
<feComposite in2="hardAlpha" operator="arithmetic" k2="-1" k3="1"/>
<feColorMatrix type="matrix" values="0 0 0 0 1 0 0 0 0 1 0 0 0 0 1 0 0 0 0.2 0"/>
<feBlend mode="normal" in2="effect1_innerShadow_1_25386" result="effect2_innerShadow_1_25386"/>
</filter>
<filter id="filter2_d_1_25386" x="28.8503" y="10.7452" width="17.6001" height="4.90002" filterUnits="userSpaceOnUse" color-interpolation-filters="sRGB">
<feFlood flood-opacity="0" result="BackgroundImageFix"/>
<feColorMatrix in="SourceAlpha" type="matrix" values="0 0 0 0 0 0 0 0 0 0 0 0 0 0 0 0 0 0 127 0" result="hardAlpha"/>
<feOffset dy="-0.5"/>
<feColorMatrix type="matrix" values="0 0 0 0 0.14902 0 0 0 0 0.196078 0 0 0 0 0.219608 0 0 0 0.2 0"/>
<feBlend mode="normal" in2="BackgroundImageFix" result="effect1_dropShadow_1_25386"/>
<feBlend mode="normal" in="SourceGraphic" in2="effect1_dropShadow_1_25386" result="shape"/>
</filter>
<radialGradient id="paint0_radial_1_25386" cx="0" cy="0" r="1" gradientUnits="userSpaceOnUse" gradientTransform="translate(21.8051 5.84931) rotate(90) scale(30.6959 31.2553)">
<stop stop-color="white" stop-opacity="0.1"/>
<stop offset="1" stop-color="white" stop-opacity="0"/>
</radialGradient>
<radialGradient id="paint1_radial_1_25386" cx="0" cy="0" r="1" gradientUnits="userSpaceOnUse" gradientTransform="translate(21.8051 5.84931) rotate(90) scale(30.6959 31.2553)">
<stop stop-color="white" stop-opacity="0.1"/>
<stop offset="1" stop-color="white" stop-opacity="0"/>
</radialGradient>
</defs>
</svg>
