<svg width="48" height="48" viewBox="0 0 48 48" fill="none" xmlns="http://www.w3.org/2000/svg">
<g clip-path="url(#clip0_1_25347)">
<path d="M18.9383 33.6377C18.757 33.6377 18.5744 33.5753 18.4253 33.4484L13.2974 29.082C13.1205 28.9312 13.0188 28.7109 13.0188 28.4783C13.0188 28.2462 13.121 28.026 13.2974 27.8752L18.4253 23.5087C18.7583 23.2248 19.2585 23.265 19.5424 23.598C19.8258 23.9315 19.786 24.4316 19.4526 24.7151L15.0335 28.4783L19.4526 32.2416C19.786 32.5255 19.8258 33.0257 19.5424 33.3586C19.3854 33.5431 19.1625 33.6377 18.9383 33.6377Z" fill="#006031"/>
<path d="M29.0616 33.6377C28.8374 33.6377 28.6146 33.5431 28.458 33.3586C28.1741 33.0257 28.2144 32.5255 28.5473 32.2416L32.9664 28.4783L28.5473 24.7151C28.2144 24.4316 28.1741 23.9315 28.458 23.598C28.7415 23.265 29.2421 23.2248 29.5746 23.5087L34.7026 27.8752C34.8794 28.026 34.9812 28.2462 34.9812 28.4783C34.9812 28.7109 34.8794 28.9312 34.7026 29.082L29.5746 33.4484C29.4256 33.5753 29.243 33.6377 29.0616 33.6377Z" fill="#006031"/>
<path d="M22.1848 36.9128C22.1304 36.9128 22.0756 36.907 22.0203 36.8955C21.5922 36.8053 21.3181 36.3847 21.4083 35.9567L24.6042 20.7829C24.6944 20.3548 25.1145 20.0806 25.543 20.1709C25.9711 20.2611 26.2453 20.6812 26.155 21.1097L22.9591 36.2835C22.8804 36.6567 22.5514 36.9128 22.1848 36.9128Z" fill="#006031"/>
<path d="M42.6792 45.1796H5.32076C2.38709 45.1796 0 42.7929 0 39.8588V8.15095C0 5.21729 2.38709 2.8302 5.32076 2.8302H42.6792C45.6129 2.8302 48 5.21729 48 8.15095V39.8588C48 42.7929 45.6129 45.1796 42.6792 45.1796ZM5.32076 4.41511C3.26091 4.41511 1.58491 6.09111 1.58491 8.15095V39.8588C1.58491 41.9186 3.26091 43.5946 5.32076 43.5946H42.6792C44.7391 43.5946 46.4151 41.9186 46.4151 39.8588V8.15095C46.4151 6.09111 44.7391 4.41511 42.6792 4.41511H5.32076Z" fill="#006031"/>
<path d="M47.2076 15.5196H0.792453C0.354658 15.5196 0 15.1649 0 14.7271C0 14.2898 0.354658 13.9347 0.792453 13.9347H47.2076C47.6453 13.9347 48 14.2898 48 14.7271C48 15.1649 47.6453 15.5196 47.2076 15.5196Z" fill="#006031"/>
<path d="M13.5398 11.7276C12.1574 11.7276 11.032 10.6022 11.032 9.21979C11.032 7.83698 12.1574 6.71198 13.5398 6.71198C14.9226 6.71198 16.0476 7.83698 16.0476 9.21979C16.0476 10.6022 14.9226 11.7276 13.5398 11.7276ZM13.5398 8.29688C13.0312 8.29688 12.6169 8.7108 12.6169 9.21979C12.6169 9.72878 13.0312 10.1427 13.5398 10.1427C14.0488 10.1427 14.4627 9.72878 14.4627 9.21979C14.4627 8.7108 14.0488 8.29688 13.5398 8.29688Z" fill="#006031"/>
<path d="M5.83472 11.7033C4.4519 11.7033 3.3269 10.5783 3.3269 9.19547C3.3269 7.81265 4.4519 6.68765 5.83472 6.68765C7.21753 6.68765 8.34253 7.81265 8.34253 9.19547C8.34253 10.5783 7.21753 11.7033 5.83472 11.7033ZM5.83472 8.27256C5.32617 8.27256 4.91181 8.68692 4.91181 9.19547C4.91181 9.70446 5.32617 10.1184 5.83472 10.1184C6.34371 10.1184 6.75762 9.70446 6.75762 9.19547C6.75762 8.68692 6.34371 8.27256 5.83472 8.27256Z" fill="#006031"/>
<path d="M21.2449 11.7515C19.8625 11.7515 18.7375 10.6265 18.7375 9.24367C18.7375 7.8613 19.8625 6.7363 21.2449 6.7363C22.6277 6.7363 23.7527 7.8613 23.7527 9.24367C23.7527 10.6265 22.6277 11.7515 21.2449 11.7515ZM21.2449 8.32076C20.7364 8.32076 20.3225 8.73468 20.3225 9.24367C20.3225 9.75266 20.7364 10.1666 21.2449 10.1666C21.7539 10.1666 22.1678 9.75266 22.1678 9.24367C22.1678 8.73468 21.7539 8.32076 21.2449 8.32076Z" fill="#006031"/>
</g>
<defs>
<clipPath id="clip0_1_25347">
<rect width="48" height="48" fill="white"/>
</clipPath>
</defs>
</svg>
