<svg width="33" height="33" viewBox="0 0 33 33" fill="none" xmlns="http://www.w3.org/2000/svg">
<g clip-path="url(#clip0_1_19195)">
<path d="M32.7138 24.01L29.3313 22.3188L27.1785 16.7191C27.1532 16.6529 27.1145 16.5926 27.0648 16.542C27.0151 16.4915 26.9555 16.4517 26.8898 16.4252L13.5325 11.0859C13.4391 11.0487 13.3369 11.0396 13.2384 11.0598C13.14 11.0799 13.0495 11.1284 12.9782 11.1993L11.1968 12.9808C11.1268 13.0521 11.0791 13.1423 11.0594 13.2402C11.0397 13.3382 11.0489 13.4397 11.0859 13.5325L16.4252 26.8898C16.4517 26.9555 16.4915 27.0151 16.542 27.0648C16.5926 27.1145 16.6529 27.1532 16.7191 27.1785L22.3188 29.3313L24.01 32.7138C24.0456 32.7884 24.0987 32.8533 24.1646 32.9031C24.2306 32.9529 24.3075 32.9861 24.389 32.9999C24.4165 33.0025 24.4441 33.0025 24.4715 32.9999C24.608 32.9994 24.7388 32.9447 24.835 32.8478L32.8478 24.835C32.9068 24.7781 32.9514 24.708 32.9778 24.6304C33.0043 24.5528 33.0119 24.4701 33 24.389C32.9861 24.3075 32.9529 24.2306 32.9031 24.1646C32.8533 24.0987 32.7884 24.0456 32.7138 24.01ZM12.1661 13.4655L12.4523 13.1819L19.1013 19.8309C18.6631 20.4518 18.4738 21.2145 18.571 21.9683C18.6681 22.722 19.0445 23.4119 19.6257 23.9015C20.207 24.391 20.9508 24.6447 21.7101 24.6122C22.4694 24.5798 23.1888 24.2636 23.7262 23.7262C24.2636 23.1888 24.5798 22.4694 24.6122 21.7101C24.6447 20.9508 24.391 20.207 23.9015 19.6257C23.4119 19.0445 22.722 18.6681 21.9683 18.5709C21.2146 18.4738 20.4518 18.6631 19.8309 19.1013L13.1819 12.4523L13.4655 12.1661L26.2968 17.2992L28.3207 22.5637L22.5637 28.3207L17.2992 26.2968L12.1661 13.4655ZM21.5789 19.5756C22.0423 19.5763 22.4911 19.7377 22.8489 20.0322C23.2067 20.3267 23.4514 20.7361 23.5411 21.1908C23.6309 21.6454 23.5603 22.1171 23.3413 22.5255C23.1223 22.9339 22.7685 23.2537 22.3401 23.4305C21.9118 23.6073 21.4353 23.6301 20.9921 23.4951C20.5488 23.36 20.166 23.0755 19.909 22.6898C19.652 22.3042 19.5366 21.8414 19.5825 21.3803C19.6285 20.9192 19.8329 20.4882 20.1609 20.1609C20.5373 19.7856 21.0473 19.5751 21.5789 19.5756ZM24.6133 31.6129L23.3243 29.0348L29.0296 23.3294L31.6078 24.6185L24.6133 31.6129Z" fill="white"/>
<path d="M9.86114 27.5856C9.76254 27.4924 9.63201 27.4405 9.49634 27.4405C9.36067 27.4405 9.23013 27.4924 9.13153 27.5856L8.47669 28.2405C6.72918 25.8687 5.76514 23.0109 5.71893 20.0652C5.67272 17.1196 6.54663 14.2329 8.21888 11.8075C8.71988 12.0832 9.29674 12.1891 9.86299 12.1093C10.4292 12.0296 10.9544 11.7685 11.3598 11.3651C11.7652 10.9618 12.0289 10.438 12.1115 9.87211C12.1941 9.30626 12.0911 8.72888 11.8179 8.2265C14.2433 6.55425 17.13 5.68034 20.0757 5.72655C23.0213 5.77276 25.8792 6.7368 28.2509 8.48431L27.5858 9.13142C27.4899 9.22809 27.4361 9.35877 27.4362 9.49493C27.4358 9.56279 27.4488 9.63006 27.4745 9.69288C27.5002 9.75571 27.538 9.81285 27.5858 9.86103L29.8597 12.1169C29.9563 12.2129 30.087 12.2668 30.2232 12.2668C30.3594 12.2668 30.4901 12.2129 30.5867 12.1169L32.8477 9.85587C32.8956 9.80798 32.9337 9.75111 32.9596 9.68852C32.9856 9.62592 32.9989 9.55883 32.9989 9.49107C32.9989 9.4233 32.9856 9.35621 32.9596 9.29361C32.9337 9.23102 32.8956 9.17415 32.8477 9.12626L30.5867 6.86525C30.4901 6.76921 30.3594 6.71531 30.2232 6.71531C30.087 6.71531 29.9563 6.76921 29.8597 6.86525L28.9857 7.73407C26.8317 6.1132 24.2851 5.09484 21.6073 4.78357C18.9296 4.47231 16.2173 4.87935 13.749 5.9629L16.7215 2.99806C17.0586 3.15911 17.4418 3.19556 17.8032 3.10096C18.1645 3.00635 18.4807 2.7868 18.6956 2.48125C18.9105 2.1757 19.0102 1.80391 18.977 1.43183C18.9439 1.05976 18.78 0.711453 18.5145 0.448711C18.249 0.185968 17.8989 0.0257734 17.5265 -0.00345379C17.1541 -0.0326809 16.7834 0.070949 16.4802 0.289051C16.1769 0.507154 15.9607 0.825628 15.8699 1.18798C15.7791 1.55032 15.8196 1.93312 15.9842 2.26845L10.9672 7.29322C10.4578 6.95151 9.84553 6.79727 9.23504 6.85684C8.62455 6.91641 8.05368 7.1861 7.61995 7.61983C7.18621 8.05356 6.91653 8.62443 6.85696 9.23492C6.79739 9.84541 6.95163 10.4576 7.29333 10.967L2.26857 15.9841C1.93192 15.82 1.54802 15.7807 1.18508 15.8729C0.822148 15.9652 0.50368 16.1832 0.286271 16.4881C0.0688624 16.793 -0.033406 17.1651 -0.00236147 17.5383C0.0286831 17.9115 0.19103 18.2616 0.455831 18.5264C0.720631 18.7912 1.07074 18.9536 1.44393 18.9846C1.81713 19.0157 2.18924 18.9134 2.49416 18.696C2.79907 18.4786 3.01703 18.1601 3.10931 17.7972C3.20159 17.4342 3.16221 17.0503 2.99817 16.7137L5.97075 13.7488C4.88612 16.2166 4.47779 18.9285 4.78769 21.6062C5.0976 24.2839 6.11457 26.8308 7.73419 28.9856L6.86278 29.8595C6.76675 29.9562 6.71284 30.0868 6.71284 30.2231C6.71284 30.3593 6.76675 30.49 6.86278 30.5866L9.1238 32.8476C9.22005 32.9444 9.35078 32.9991 9.48732 32.9997C9.55536 32.9998 9.62273 32.9863 9.68556 32.9602C9.7484 32.9341 9.80544 32.8958 9.85341 32.8476L12.117 30.5866C12.213 30.49 12.2669 30.3593 12.2669 30.2231C12.2669 30.0868 12.213 29.9562 12.117 29.8595L9.86114 27.5856ZM30.2283 7.95322L31.7597 9.48462L30.2283 11.016L28.6969 9.48462L30.2283 7.95322ZM17.0154 1.19337C17.0921 1.11613 17.1899 1.06338 17.2965 1.04183C17.4032 1.02028 17.5138 1.03089 17.6144 1.07232C17.715 1.11376 17.8011 1.18414 17.8616 1.27454C17.9221 1.36494 17.9545 1.47129 17.9545 1.58009C17.9545 1.68889 17.9221 1.79524 17.8616 1.88564C17.8011 1.97604 17.715 2.04643 17.6144 2.08786C17.5138 2.12929 17.4032 2.1399 17.2965 2.11835C17.1899 2.0968 17.0921 2.04405 17.0154 1.96681C16.9646 1.91605 16.9243 1.85576 16.8968 1.78941C16.8693 1.72305 16.8551 1.65192 16.8551 1.58009C16.8551 1.50826 16.8693 1.43713 16.8968 1.37077C16.9243 1.30442 16.9646 1.24413 17.0154 1.19337ZM8.35294 8.35282C8.50267 8.20238 8.68064 8.083 8.87664 8.00154C9.07264 7.92008 9.2828 7.87814 9.49505 7.87814C9.7073 7.87814 9.91746 7.92008 10.1135 8.00154C10.3095 8.083 10.4874 8.20238 10.6372 8.35282C10.8635 8.57879 11.0177 8.86682 11.0803 9.18045C11.1429 9.49409 11.111 9.81924 10.9887 10.1148C10.8665 10.4103 10.6593 10.6629 10.3934 10.8406C10.1275 11.0184 9.81487 11.1133 9.49505 11.1133C9.17523 11.1133 8.86259 11.0184 8.59671 10.8406C8.33082 10.6629 8.12364 10.4103 8.00136 10.1148C7.87909 9.81924 7.84723 9.49409 7.90982 9.18045C7.9724 8.86682 8.12661 8.57879 8.35294 8.35282ZM1.9695 17.7888C1.86424 17.8765 1.72994 17.9218 1.59302 17.9156C1.45609 17.9094 1.32642 17.8522 1.2295 17.7553C1.13258 17.6584 1.07541 17.5287 1.06922 17.3918C1.06304 17.2549 1.10828 17.1206 1.19607 17.0153C1.29924 16.9139 1.43812 16.8571 1.58278 16.8571C1.72745 16.8571 1.86633 16.9139 1.9695 17.0153C2.02033 17.0661 2.06065 17.1264 2.08816 17.1927C2.11567 17.2591 2.12983 17.3302 2.12983 17.402C2.12983 17.4739 2.11567 17.545 2.08816 17.6114C2.06065 17.6777 2.02033 17.738 1.9695 17.7888ZM9.49505 31.7442L7.96364 30.2127L9.49505 28.6813L11.0265 30.2127L9.49505 31.7442Z" fill="white"/>
</g>
<defs>
<clipPath id="clip0_1_19195">
<rect width="33" height="33" fill="white"/>
</clipPath>
</defs>
</svg>
