<svg width="32" height="32" viewBox="0 0 32 32" fill="none" xmlns="http://www.w3.org/2000/svg">
<path d="M4.38598 27.8731C4.01558 27.8711 3.65712 27.7418 3.3707 27.507C3.08427 27.2721 2.88728 26.9459 2.81274 26.5831L0.993402 17.96C0.950037 17.7545 0.947626 17.5423 0.986307 17.3358C1.02499 17.1293 1.104 16.9324 1.21883 16.7565C1.33366 16.5805 1.48205 16.4289 1.65551 16.3104C1.82897 16.1918 2.02411 16.1086 2.22975 16.0655L4.78881 15.5079C5.17835 15.4274 5.58388 15.4927 5.92843 15.6915C6.27299 15.8902 6.53259 16.2085 6.65795 16.586L9.88208 15.92C10.5556 15.7752 11.2512 15.7651 11.9286 15.8903C12.6061 16.0155 13.2521 16.2735 13.8293 16.6495C14.5203 17.0952 15.3245 17.3338 16.1467 17.337C16.4495 17.3332 16.7512 17.3015 17.0481 17.2423L19.6443 16.7062C20.0941 16.6037 20.5654 16.656 20.9818 16.8547C21.3982 17.0534 21.7354 17.3868 21.9387 17.8009L28.3918 15.8693C28.6987 15.7814 29.0217 15.7655 29.3357 15.8227C29.6498 15.8798 29.9464 16.0085 30.2027 16.1988C30.4589 16.3891 30.6679 16.6359 30.8134 16.92C30.9589 17.2041 31.0371 17.5179 31.0417 17.8371C31.0426 18.1444 30.9729 18.4479 30.838 18.724C30.7031 19.0002 30.5065 19.2416 30.2634 19.4298C27.7639 21.5294 21.4724 26.5655 17.9265 27.3224C15.6272 27.7689 13.2439 27.3431 11.2415 26.128C10.4254 25.6714 9.48654 25.4825 8.55737 25.588C8.58519 25.9807 8.47043 26.3701 8.23417 26.685C7.9979 26.9998 7.656 27.2188 7.27124 27.3018C7.09188 27.328 4.48655 27.9187 4.38598 27.8731ZM5.1184 16.4737C5.07743 16.4737 5.03656 16.4777 4.99633 16.4854L2.43724 17.043C2.35948 17.0585 2.2856 17.0894 2.21993 17.1338C2.15426 17.1782 2.09812 17.2353 2.05482 17.3017C2.01152 17.3681 1.98192 17.4425 1.96777 17.5205C1.95361 17.5985 1.95519 17.6786 1.9724 17.7559L3.79174 26.378C3.82286 26.5363 3.91522 26.6758 4.04873 26.7664C4.18223 26.8569 4.34608 26.891 4.50463 26.8614L7.06763 26.3233C7.17128 26.2929 7.26651 26.239 7.34591 26.1658C7.42531 26.0926 7.48673 26.002 7.52538 25.9012C7.56403 25.8004 7.57888 25.6919 7.56875 25.5844C7.55863 25.4769 7.52381 25.3732 7.46701 25.2813L5.79174 17.2774C5.75833 16.8923 5.55955 16.4638 5.1184 16.4737ZM9.05688 24.5596C9.99527 24.5602 10.9179 24.8012 11.7366 25.2598C13.5265 26.353 15.6598 26.7395 17.7195 26.3438C21.1375 25.6143 27.7244 20.2569 29.6619 18.6329C29.8416 18.4755 29.9625 18.2617 30.0048 18.0265C30.0471 17.7913 30.0082 17.5488 29.8945 17.3387C29.7808 17.1285 29.599 16.9633 29.3791 16.87C29.1591 16.7767 28.914 16.7609 28.6839 16.8253L22.1468 18.7823C22.127 19.3255 21.9279 19.847 21.5806 20.2651C21.2333 20.6833 20.7572 20.9747 20.2268 21.0938L16.3816 21.9444C16.3174 21.9588 16.251 21.9604 16.1861 21.9491C16.1213 21.9378 16.0593 21.9139 16.0038 21.8785C15.9482 21.8432 15.9002 21.7973 15.8624 21.7434C15.8246 21.6895 15.7979 21.6287 15.7837 21.5644C15.7695 21.5001 15.7681 21.4337 15.7796 21.3689C15.7912 21.3041 15.8154 21.2422 15.8509 21.1868C15.8864 21.1313 15.9325 21.0835 15.9865 21.0459C16.0406 21.0083 16.1015 20.9818 16.1658 20.9678L20.011 20.1172C20.366 20.0376 20.6783 19.828 20.8864 19.5295C21.0944 19.2311 21.1831 18.8655 21.135 18.5049C21.1055 18.3661 21.0487 18.2346 20.9678 18.118C20.887 18.0014 20.7838 17.902 20.6642 17.8257C20.5446 17.7494 20.411 17.6976 20.2712 17.6734C20.1314 17.6491 19.9882 17.653 19.8499 17.6846L17.2405 18.2227C15.8785 18.5104 14.458 18.2475 13.2893 17.4913C12.8215 17.1865 12.2981 16.9772 11.7492 16.8753C11.2002 16.7734 10.6366 16.7809 10.0906 16.8975L6.87329 17.5625L7.12129 18.7451L8.36592 24.6035C8.59508 24.5743 8.82586 24.5596 9.05688 24.5596ZM18.4104 15.3496C18.3447 15.3497 18.2797 15.3368 18.219 15.3117C18.1584 15.2865 18.1033 15.2496 18.0569 15.2031L13.6467 10.7941C9.6445 6.81727 14.2022 1.77992 18.4099 5.34678C22.2975 2.00578 26.774 6.13162 23.7019 10.1857C24.0301 10.6099 24.1786 11.1461 24.1153 11.6787C24.052 12.2113 23.782 12.6978 23.3635 13.0333L21.3938 15.004C20.8412 15.5025 20.3407 14.5765 19.8289 14.1466C19.5274 14.3905 18.7051 15.4248 18.4104 15.3496ZM15.4534 5.12705C13.0352 5.27473 12.1446 7.85105 14.3537 10.087L18.4119 14.1437L19.1219 13.4396L18.7166 13.0333C16.7544 11.1161 18.8841 8.50524 21.0398 10.0499C21.289 9.84691 21.5823 9.70521 21.8961 9.63618C22.21 9.56715 22.5356 9.57272 22.847 9.65244C25.3963 6.36822 21.784 3.34895 18.764 6.38387C18.6685 6.47418 18.542 6.5245 18.4105 6.5245C18.279 6.5245 18.1525 6.47418 18.0569 6.38387C17.7272 6.01309 17.3275 5.71117 16.8806 5.49547C16.4338 5.27978 15.9488 5.15457 15.4534 5.12705ZM18.9402 11.3575C18.8441 12.0627 20.5854 13.3959 21.0403 13.9435C21.6585 13.2216 23.3218 12.0309 23.1301 11.2385C22.9283 10.4548 22.1486 10.3349 21.3938 11.0636C21.2983 11.1539 21.1718 11.2042 21.0403 11.2042C20.9088 11.2042 20.7823 11.1539 20.6868 11.0636C19.8859 10.2711 19.0131 10.4967 18.9402 11.3575Z" fill="white"/>
</svg>
