<svg width="32" height="33" viewBox="0 0 32 33" fill="none" xmlns="http://www.w3.org/2000/svg">
<path d="M19.6942 9.54447C19.6941 8.79101 19.4773 8.05449 19.0713 7.42806C18.6653 6.80163 18.0883 6.31341 17.4133 6.02514C16.7383 5.73687 15.9955 5.6615 15.2789 5.80856C14.5623 5.95561 13.9041 6.31849 13.3875 6.85131C12.8709 7.38412 12.5191 8.06295 12.3766 8.80194C12.2341 9.54094 12.3073 10.3069 12.5869 11.003C12.8665 11.6991 13.34 12.2941 13.9476 12.7127C14.5551 13.1313 15.2693 13.3547 15.9999 13.3547C16.9794 13.3535 17.9184 12.9516 18.611 12.2373C19.3036 11.523 19.6931 10.5546 19.6942 9.54447ZM13.1807 9.54447C13.1808 8.96947 13.3462 8.40742 13.656 7.92937C13.9659 7.45133 14.4062 7.07877 14.9214 6.8588C15.4365 6.63883 16.0034 6.58132 16.5502 6.69356C17.0971 6.8058 17.5994 7.08274 17.9936 7.48936C18.3878 7.89598 18.6563 8.41402 18.765 8.97798C18.8738 9.54194 18.8179 10.1265 18.6045 10.6577C18.3911 11.1889 18.0298 11.643 17.5662 11.9624C17.1025 12.2818 16.5575 12.4523 15.9999 12.4523C15.2524 12.4515 14.5357 12.1448 14.0072 11.5996C13.4786 11.0545 13.1814 10.3154 13.1807 9.54447Z" fill="white"/>
<path d="M30.8321 31.2131L27.2656 21.5709C27.234 21.4855 27.178 21.4121 27.105 21.3602C27.032 21.3084 26.9455 21.2806 26.8569 21.2806H20.1069C20.1481 21.2112 20.1891 21.144 20.2304 21.0743C22.8276 16.64 24.1346 12.7609 24.1159 9.54652C24.1163 7.32676 23.2615 5.19776 21.7397 3.62788C20.218 2.05801 18.1538 1.17585 16.0013 1.17548C13.8488 1.1751 11.7843 2.05654 10.262 3.62588C8.73969 5.19522 7.88426 7.32392 7.8839 9.54368C7.86515 12.7609 9.17215 16.6405 11.7694 21.0743C11.8106 21.1447 11.8516 21.212 11.8929 21.2806H5.1429C5.05428 21.2806 4.96776 21.3084 4.89477 21.3602C4.82179 21.4121 4.76578 21.4855 4.73415 21.5709L1.16814 31.2131C1.14274 31.2814 1.13384 31.3551 1.14222 31.4277C1.1506 31.5004 1.17601 31.5698 1.21626 31.6301C1.2565 31.6903 1.31037 31.7396 1.3732 31.7736C1.43603 31.8076 1.50595 31.8253 1.57689 31.8251H30.4234C30.4943 31.8253 30.5643 31.8076 30.6271 31.7736C30.6899 31.7396 30.7438 31.6903 30.784 31.6301C30.8243 31.5698 30.8497 31.5004 30.8581 31.4277C30.8665 31.3551 30.8576 31.2814 30.8321 31.2131ZM8.75915 9.54446C8.75931 8.56384 8.94677 7.59286 9.31081 6.68695C9.67486 5.78104 10.2084 4.95795 10.8809 4.26467C11.5534 3.57139 12.3517 3.02149 13.2303 2.64638C14.1089 2.27127 15.0505 2.07829 16.0014 2.07846C16.9523 2.07863 17.8939 2.27195 18.7723 2.64737C19.6508 3.02279 20.4489 3.57297 21.1212 4.26649C21.7935 4.96001 22.3267 5.78329 22.6904 6.68933C23.0542 7.59537 23.2413 8.56642 23.2411 9.54703C23.2786 15.9557 17.4686 23.86 16.0001 25.7554C14.5316 23.8608 8.7214 15.9586 8.75915 9.54446ZM15.6669 26.7609C15.708 26.8107 15.759 26.8507 15.8166 26.8781C15.8741 26.9056 15.9368 26.9198 16.0001 26.9198C16.0635 26.9198 16.1262 26.9056 16.1837 26.8781C16.2413 26.8507 16.2923 26.8107 16.3334 26.7609C17.495 25.3017 18.5719 23.7728 19.5584 22.1824H26.5551L27.1151 23.6971L13.4424 28.7118L8.5689 22.1817H12.4414C13.4281 23.7723 14.5051 25.3014 15.6669 26.7609ZM13.4271 29.6742H13.4296L21.5864 26.6836L24.7501 30.9228H10.0251L13.4271 29.6742ZM5.44465 22.1817H7.46465L12.5751 29.0297L7.4144 30.9225H2.21189L5.44465 22.1817ZM25.8554 30.9228L22.4531 26.3641L27.4281 24.5396L29.7889 30.9228H25.8554Z" fill="white"/>
</svg>
