<svg width="33" height="33" viewBox="0 0 33 33" fill="none" xmlns="http://www.w3.org/2000/svg">
<path d="M31.2871 20.6168C30.9969 20.1321 29.8066 18.6926 26.676 20.5158L21.1974 23.7068C20.947 23.8526 20.6927 23.959 20.4286 24.027C20.5207 23.8668 20.5937 23.6887 20.646 23.4941C20.9301 22.4336 20.3003 21.3266 19.2121 20.9739C19.19 20.9667 19.1675 20.9611 19.1446 20.9569C17.5725 20.6734 16.0198 20.112 14.7721 19.661C14.3381 19.504 13.928 19.3559 13.5791 19.2427C12.1653 18.784 10.8903 19.3502 9.82923 19.9645L5.77906 22.3095L5.40942 21.6564C5.05029 21.022 4.24205 20.7979 3.60744 21.1569L2.07024 22.0269C1.76363 22.2004 1.54275 22.4838 1.44826 22.8247C1.35378 23.1657 1.39728 23.5223 1.57079 23.8289L6.08998 31.8141C6.33297 32.2434 6.78157 32.4848 7.24299 32.4848C7.46342 32.4848 7.68681 32.4297 7.89196 32.3136L9.42917 31.4436C10.0637 31.0845 10.2878 30.2761 9.92862 29.6416L9.47706 28.8437L10.3703 28.3281L17.3755 30.2051C17.7652 30.3095 18.1529 30.3614 18.5343 30.3614C19.3055 30.3614 20.0505 30.1491 20.7317 29.7298L30.674 23.6078C31.5934 23.0416 31.8856 21.616 31.2871 20.6168ZM8.92128 30.546L7.38407 31.416C7.24679 31.4939 7.06516 31.4433 6.98749 31.306L2.4683 23.3208C2.43046 23.254 2.42118 23.1756 2.44213 23.1001C2.46301 23.0245 2.51135 22.9621 2.57826 22.9242L4.11546 22.0542C4.15936 22.0294 4.20782 22.0176 4.25591 22.0176C4.35826 22.0176 4.45919 22.0708 4.51211 22.1641L9.0313 30.1493C9.1089 30.2867 9.05857 30.4683 8.92128 30.546ZM30.1333 22.7295L20.191 28.8515C19.4097 29.3325 18.5523 29.4528 17.6424 29.2088L10.4309 27.2765C10.2988 27.2411 10.1581 27.2596 10.0397 27.328L8.96917 27.946L6.28708 23.207L10.3461 20.8569C11.2539 20.3312 12.2353 19.8908 13.261 20.2235C13.5936 20.3314 13.9773 20.4701 14.4216 20.6307C15.6959 21.0914 17.2799 21.664 18.9241 21.9649C19.4806 22.1605 19.7918 22.6977 19.6499 23.2271C19.4634 23.9234 18.8815 24.0105 18.4179 23.9576C17.6123 23.7919 16.8464 23.5733 16.0359 23.3419C15.651 23.2319 15.253 23.1183 14.8436 23.0086C14.5687 22.9351 14.2859 23.0982 14.2121 23.3732C14.1384 23.6483 14.3017 23.931 14.5767 24.0047C14.9779 24.1122 15.3718 24.2247 15.7527 24.3335C16.5894 24.5725 17.3797 24.7981 18.2313 24.9722C18.2346 24.9729 18.2482 24.9755 18.2518 24.976L18.9331 25.0868C19.9593 25.2509 20.8695 25.091 21.7164 24.5978L27.195 21.4068C28.7564 20.4974 29.9554 20.4003 30.4025 21.1466C30.7095 21.6595 30.5737 22.4583 30.1333 22.7295ZM4.54691 23.5709C4.59074 23.8708 4.38314 24.1495 4.08324 24.1933C3.78334 24.2371 3.50464 24.0296 3.46081 23.7296C3.41698 23.4297 3.62452 23.151 3.92449 23.1072C4.22439 23.0634 4.50308 23.271 4.54691 23.5709ZM10.8492 12.2497L12.1676 12.7571C12.359 13.461 12.6388 14.1359 13.0019 14.7699L12.4282 16.0617C12.3416 16.2566 12.384 16.4847 12.5348 16.6355L14.3448 18.4456C14.4957 18.5964 14.7237 18.6388 14.9187 18.5523L16.2111 17.9783C16.845 18.3414 17.5197 18.6212 18.2232 18.8125L18.7307 20.1312C18.8073 20.3303 18.9986 20.4615 19.2119 20.4615H21.7717C21.985 20.4615 22.1763 20.3302 22.2529 20.1312L22.7603 18.8128C23.4642 18.6214 24.1391 18.3417 24.7731 17.9784L26.0649 18.5522C26.2599 18.6388 26.4879 18.5964 26.6388 18.4456L28.4488 16.6355C28.5997 16.4847 28.642 16.2566 28.5554 16.0616L27.9815 14.7693C28.3447 14.1353 28.6244 13.4606 28.8156 12.7573L30.1344 12.2497C30.3334 12.1731 30.4647 11.9818 30.4647 11.7685V9.20868C30.4647 8.99534 30.3334 8.8041 30.1344 8.72747L28.8161 8.22003C28.6247 7.5162 28.3449 6.84131 27.9817 6.20729L28.5554 4.91552C28.642 4.72055 28.5997 4.49245 28.4488 4.34163L26.6387 2.53159C26.4879 2.38077 26.2598 2.33829 26.0648 2.42498L24.7726 2.99894C24.1386 2.63581 23.4639 2.35608 22.7605 2.16472L22.2529 0.846076C22.1763 0.64698 21.985 0.515625 21.7717 0.515625H19.2119C18.9986 0.515625 18.8074 0.64698 18.7307 0.846012L18.2231 2.16466C17.5197 2.35602 16.845 2.63575 16.211 2.99887L14.9187 2.42492C14.7237 2.33823 14.4957 2.38071 14.3448 2.53153L12.5348 4.34156C12.384 4.49238 12.3416 4.72048 12.4282 4.91545L13.002 6.20761C12.6388 6.84151 12.3591 7.51633 12.1677 8.2199L10.8492 8.72747C10.6502 8.80404 10.5188 8.99534 10.5188 9.20868V11.7685C10.5188 11.9818 10.6502 12.1731 10.8492 12.2497ZM11.5501 9.56272L12.7868 9.08667C12.9455 9.02563 13.0638 8.89021 13.1031 8.72483C13.2892 7.94295 13.5979 7.19851 14.0204 6.51222C14.1096 6.36739 14.1216 6.18795 14.0527 6.03255L13.5143 4.82045L14.8236 3.51108L16.0359 4.04946C16.1911 4.11849 16.3707 4.1065 16.5155 4.0173C17.2018 3.59468 17.9462 3.28608 18.728 3.10007C18.8933 3.06069 19.0287 2.94235 19.0897 2.78367L19.5659 1.54688H21.4176L21.8937 2.78367C21.9547 2.94235 22.0901 3.06069 22.2555 3.10007C23.0372 3.28608 23.7816 3.59468 24.468 4.0173C24.6128 4.1065 24.7923 4.11849 24.9475 4.04946L26.1598 3.51108L27.4692 4.82045L26.9309 6.03217C26.8619 6.18763 26.8739 6.36707 26.9631 6.51189C27.3858 7.19819 27.6945 7.94275 27.8805 8.72489C27.9199 8.89028 28.0382 9.02569 28.1969 9.08673L29.4334 9.56265V11.4144L28.1966 11.8904C28.0379 11.9515 27.9195 12.0869 27.8802 12.2523C27.6942 13.0339 27.3856 13.7783 26.9629 14.4648C26.8738 14.6096 26.8618 14.789 26.9308 14.9444L27.4692 16.1566L26.1599 17.466L24.9481 16.9278C24.7929 16.8587 24.6134 16.8707 24.4685 16.96C23.7822 17.3826 23.0377 17.6913 22.2555 17.8774C22.0901 17.9167 21.9547 18.0351 21.8936 18.1938L21.4176 19.4302H19.566L19.0899 18.1934C19.0288 18.0348 18.8934 17.9164 18.7281 17.877C17.9463 17.691 17.2019 17.3824 16.5156 16.9598C16.3707 16.8706 16.1913 16.8587 16.036 16.9276L14.8237 17.466L13.5144 16.1567L14.0526 14.9449C14.1216 14.7895 14.1096 14.6101 14.0204 14.4653C13.5978 13.7791 13.2891 13.0345 13.103 12.2522C13.0637 12.0868 12.9453 11.9514 12.7867 11.8904L11.5501 11.4145V9.56272H11.5501ZM20.4918 15.4686C23.2378 15.4686 25.4719 13.2345 25.4719 10.4886C25.4719 7.74262 23.2379 5.50862 20.4918 5.50862C17.7458 5.50862 15.5118 7.74262 15.5118 10.4886C15.5118 13.2345 17.7458 15.4686 20.4918 15.4686ZM17.9448 13.5027C18.1922 12.3074 19.2453 11.4348 20.4918 11.4348C21.7385 11.4348 22.7916 12.3074 23.039 13.5027C22.3508 14.0851 21.4619 14.4373 20.4918 14.4373C19.5218 14.4373 18.6329 14.0851 17.9448 13.5027ZM20.4919 10.4035C19.9071 10.4035 19.4313 9.92771 19.4313 9.34287C19.4313 8.75802 19.9071 8.28223 20.4919 8.28223C21.0767 8.28223 21.5525 8.75802 21.5525 9.34287C21.5525 9.92771 21.0767 10.4035 20.4919 10.4035ZM20.4918 6.53987C22.6692 6.53987 24.4406 8.31123 24.4406 10.4886C24.4406 11.2631 24.2156 11.9856 23.8288 12.5959C23.4772 11.7778 22.837 11.1224 22.0401 10.7482C22.3777 10.3766 22.5837 9.88331 22.5837 9.34287C22.5837 8.18941 21.6453 7.25098 20.4919 7.25098C19.3385 7.25098 18.4 8.18941 18.4 9.34287C18.4 9.88331 18.6061 10.3766 18.9437 10.7482C18.1468 11.1224 17.5065 11.7778 17.1549 12.5959C16.7681 11.9856 16.5431 11.2631 16.5431 10.4886C16.5431 8.31123 18.3144 6.53987 20.4918 6.53987Z" fill="white"/>
</svg>
