<svg width="32" height="32" viewBox="0 0 32 32" fill="none" xmlns="http://www.w3.org/2000/svg">
<g clip-path="url(#clip0_1_19136)">
<path d="M12.6255 22.4251C12.5047 22.4251 12.3829 22.3836 12.2836 22.2989L8.86493 19.388C8.74701 19.2874 8.6792 19.1406 8.6792 18.9856C8.6792 18.8308 8.7473 18.684 8.86493 18.5834L12.2836 15.6725C12.5056 15.4832 12.839 15.51 13.0283 15.732C13.2172 15.9543 13.1907 16.2877 12.9684 16.4767L10.0224 18.9856L12.9684 21.4944C13.1907 21.6837 13.2172 22.0171 13.0283 22.2391C12.9236 22.362 12.775 22.4251 12.6255 22.4251Z" fill="white"/>
<path d="M19.3743 22.4251C19.2248 22.4251 19.0762 22.362 18.9718 22.2391C18.7826 22.0171 18.8094 21.6837 19.0314 21.4944L21.9774 18.9856L19.0314 16.4767C18.8094 16.2877 18.7826 15.9543 18.9718 15.732C19.1608 15.51 19.4945 15.4832 19.7162 15.6725L23.1349 18.5834C23.2528 18.684 23.3206 18.8308 23.3206 18.9856C23.3206 19.1406 23.2528 19.2874 23.1349 19.388L19.7162 22.2989C19.6169 22.3836 19.4951 22.4251 19.3743 22.4251Z" fill="white"/>
<path d="M14.7899 24.6085C14.7536 24.6085 14.7171 24.6047 14.6802 24.597C14.3948 24.5369 14.212 24.2565 14.2722 23.9711L16.4028 13.8553C16.4629 13.5699 16.743 13.3871 17.0287 13.4472C17.3141 13.5074 17.4968 13.7875 17.4367 14.0731L15.3061 24.189C15.2536 24.4378 15.0343 24.6085 14.7899 24.6085Z" fill="white"/>
<path d="M28.4528 30.1197H3.54717C1.59139 30.1197 0 28.5286 0 26.5725V5.43395C0 3.47817 1.59139 1.88678 3.54717 1.88678H28.4528C30.4086 1.88678 32 3.47817 32 5.43395V26.5725C32 28.5286 30.4086 30.1197 28.4528 30.1197ZM3.54717 2.94338C2.17394 2.94338 1.0566 4.06072 1.0566 5.43395V26.5725C1.0566 27.9457 2.17394 29.0631 3.54717 29.0631H28.4528C29.8261 29.0631 30.9434 27.9457 30.9434 26.5725V5.43395C30.9434 4.06072 29.8261 2.94338 28.4528 2.94338H3.54717Z" fill="white"/>
<path d="M31.4717 10.3464H0.528302C0.236439 10.3464 0 10.11 0 9.8181C0 9.52653 0.236439 9.28979 0.528302 9.28979H31.4717C31.7636 9.28979 32 9.52653 32 9.8181C32 10.11 31.7636 10.3464 31.4717 10.3464Z" fill="white"/>
<path d="M9.02637 7.81842C8.10479 7.81842 7.35449 7.06813 7.35449 6.14655C7.35449 5.22467 8.10479 4.47467 9.02637 4.47467C9.94824 4.47467 10.6982 5.22467 10.6982 6.14655C10.6982 7.06813 9.94824 7.81842 9.02637 7.81842ZM9.02637 5.53127C8.68733 5.53127 8.4111 5.80722 8.4111 6.14655C8.4111 6.48587 8.68733 6.76182 9.02637 6.76182C9.3657 6.76182 9.64164 6.48587 9.64164 6.14655C9.64164 5.80722 9.3657 5.53127 9.02637 5.53127Z" fill="white"/>
<path d="M3.88965 7.80219C2.96777 7.80219 2.21777 7.05219 2.21777 6.13031C2.21777 5.20844 2.96777 4.45844 3.88965 4.45844C4.81152 4.45844 5.56152 5.20844 5.56152 6.13031C5.56152 7.05219 4.81152 7.80219 3.88965 7.80219ZM3.88965 5.51504C3.55062 5.51504 3.27438 5.79128 3.27438 6.13031C3.27438 6.46964 3.55062 6.74558 3.88965 6.74558C4.22898 6.74558 4.50492 6.46964 4.50492 6.13031C4.50492 5.79128 4.22898 5.51504 3.88965 5.51504Z" fill="white"/>
<path d="M14.1633 7.8343C13.2417 7.8343 12.4917 7.0843 12.4917 6.16242C12.4917 5.24084 13.2417 4.49084 14.1633 4.49084C15.0852 4.49084 15.8352 5.24084 15.8352 6.16242C15.8352 7.0843 15.0852 7.8343 14.1633 7.8343ZM14.1633 5.54715C13.8242 5.54715 13.5483 5.8231 13.5483 6.16242C13.5483 6.50175 13.8242 6.7777 14.1633 6.7777C14.5026 6.7777 14.7786 6.50175 14.7786 6.16242C14.7786 5.8231 14.5026 5.54715 14.1633 5.54715Z" fill="white"/>
</g>
<defs>
<clipPath id="clip0_1_19136">
<rect width="32" height="32" fill="white"/>
</clipPath>
</defs>
</svg>
